<svg width="614" height="82" viewBox="0 0 614 82" fill="none" xmlns="http://www.w3.org/2000/svg">
<g clip-path="url(#clip0)">
<path fill-rule="evenodd" clip-rule="evenodd" d="M574.39 27.24C573.198 28.9259 572.386 30.85 572.01 32.8799C571.035 36.6666 570.423 40.5374 570.18 44.44C569.94 47.69 569.79 50.93 569.68 54.18C569.57 57.53 569.61 60.89 569.41 64.24C569.2 67.68 569.26 71.2301 568.15 74.5201C567.77 75.6021 567.127 76.5726 566.279 77.3443C565.431 78.1159 564.404 78.6644 563.291 78.9402C562.178 79.216 561.014 79.2104 559.903 78.9241C558.793 78.6378 557.771 78.0797 556.93 77.3001C556.219 76.6651 555.645 75.8912 555.245 75.0262C554.844 74.1611 554.624 73.2231 554.6 72.2701C554.63 70.6842 554.804 69.1044 555.12 67.5501C555.336 66.0194 555.45 64.4758 555.46 62.93C555.53 58.93 555.74 54.94 555.82 50.94C555.9 46.83 556.3 42.7299 556.77 38.6399C557.227 34.2377 558.177 29.9007 559.6 25.71C561.52 20.3 564.44 15.5099 569.48 12.6299C574.29 9.87992 579.79 10.56 583.62 15.43C585.792 18.2257 587.365 21.4392 588.24 24.8699C588.786 26.9965 589.183 29.1585 589.43 31.3401C589.84 34.7501 590.14 38.1701 590.45 41.5901C590.66 43.8901 590.75 46.2 590.98 48.5C591.51 53.88 591.93 59.27 593.64 64.44C593.78 64.85 593.44 65.4599 594.2 65.6499C595.256 63.978 596.04 62.1485 596.52 60.23C597.5 56.82 598.13 53.3201 598.77 49.8301C599.066 48.01 599.246 46.173 599.31 44.3301C599.86 34.5301 599.4 24.73 599.59 14.93C599.66 11.38 601.36 8.67002 604.89 7.73002C605.829 7.45636 606.816 7.39057 607.783 7.53715C608.75 7.68373 609.674 8.03926 610.489 8.57889C611.305 9.11853 611.993 9.8293 612.506 10.6619C613.019 11.4945 613.345 12.4288 613.46 13.3999C614.13 19.3299 613.54 25.3 613.75 31.26C613.88 35.09 613.65 38.91 613.42 42.72C613.055 50.3957 611.742 57.9966 609.51 65.3499C608.245 69.8463 605.943 73.9837 602.79 77.43C599.3 81.05 594.98 81.75 590.26 80.76C588.209 80.3386 586.311 79.3672 584.77 77.95C583.147 76.4012 581.966 74.4474 581.35 72.2901C579.863 67.7022 578.755 62.9996 578.04 58.23C577.61 54.95 577.36 51.6499 577.02 48.3599C576.62 44.4399 576.33 40.5101 576.01 36.5701C575.822 33.4092 575.279 30.2794 574.39 27.24V27.24ZM98.1901 78C94.8296 78.3153 91.4469 77.7031 88.4101 76.23C86.2219 75.1533 84.2969 73.6091 82.7711 71.7066C81.2454 69.8041 80.1559 67.5898 79.58 65.22C79.145 63.5703 78.8706 61.8824 78.7602 60.18C78.5271 57.56 78.4734 54.9273 78.6 52.3001C78.87 48.2001 79.0101 44.09 79.4901 39.99C79.9501 36.14 80.64 32.33 81.13 28.49C81.73 23.67 82.56 18.8799 83.39 14.0999C83.79 11.7599 86.53 8.87989 89.39 8.84989C93.3 8.79989 95.82 10.4399 96.86 13.6599C97.49 15.5699 96.9801 17.4101 96.6901 19.2801C96.3001 21.7801 95.9002 24.2801 95.5102 26.7801C95.0202 29.9001 94.48 33.0099 94.06 36.1299C93.75 38.4499 93.5001 40.7801 93.1901 43.0901C92.4401 48.7201 92.8301 54.37 92.7401 60.01C92.7101 62.5 94.0901 63.78 96.4401 63.96C101.57 64.35 106.41 63.1001 111.22 61.5301C112.39 61.1501 113.42 60.5201 114.54 60.0601C115.432 59.7105 116.387 59.5486 117.345 59.5848C118.302 59.6209 119.242 59.8541 120.106 60.2698C120.969 60.6856 121.737 61.2749 122.363 62.001C122.988 62.7271 123.457 63.5745 123.74 64.49C124.26 66.1506 124.156 67.9439 123.447 69.533C122.738 71.1221 121.473 72.3976 119.89 73.1199C116.198 74.9277 112.28 76.2296 108.24 76.99C104.95 77.7727 101.57 78.1124 98.1901 78ZM418.64 32.18C415.54 33.09 412.58 34.0801 409.56 34.8401C408.608 35.0856 407.616 35.127 406.647 34.962C405.678 34.7969 404.755 34.429 403.938 33.8824C403.122 33.3357 402.429 32.6226 401.908 31.7898C401.386 30.9571 401.046 30.0234 400.91 29.0501C400.71 27.3976 401.091 25.7269 401.989 24.3252C402.887 22.9236 404.245 21.8785 405.83 21.3699C409.47 20.3699 413.03 19.0901 416.67 18.0901C421.65 16.7301 426.72 15.66 431.67 14.17C434.54 13.3 437.45 12.5401 440.34 11.7901C441.584 11.3898 442.922 11.3821 444.171 11.7686C445.42 12.155 446.519 12.9167 447.32 13.95C448.228 14.9795 448.808 16.257 448.984 17.6184C449.161 18.9799 448.926 20.3632 448.31 21.5901C447.704 22.878 446.768 23.982 445.596 24.7901C444.424 25.5981 443.059 26.0812 441.64 26.19C439.325 26.6603 437.037 27.2613 434.79 27.99C434.52 28.06 434.26 28.2001 433.99 28.2701C433.39 28.4101 432.34 28.44 432.29 28.68C432.21 29.4899 432.264 30.3075 432.45 31.0999C432.65 32.6699 432.92 34.2301 433.09 35.8001C433.41 38.8801 433.75 41.9601 434.06 45.0301C434.32 47.6501 434.58 50.2799 434.89 52.8999C435.16 55.2899 435.59 57.6701 435.98 60.0401C436.39 62.5601 437.31 64.97 437.82 67.46C438.241 69.2133 437.966 71.0616 437.052 72.6162C436.139 74.1709 434.659 75.3108 432.922 75.7964C431.186 76.282 429.328 76.0753 427.741 75.22C426.154 74.3647 424.96 72.9274 424.41 71.21C423.19 67.2291 422.278 63.1606 421.68 59.0401C421.03 54.7001 420.6 50.34 420.16 45.98C419.77 42.2 419.32 38.4199 418.88 34.6399C418.79 33.8599 418.73 33.06 418.64 32.18ZM48.86 69.8101C45.38 69.9801 42.0701 69.59 39.2401 67.74C35.0301 64.99 31.9101 61.3301 31.1701 56.0501C30.8398 54.0608 30.6825 52.0465 30.7001 50.0301C30.8501 45.9501 31.0401 41.8501 31.4701 37.7901C32.0001 32.7001 32.7301 27.6201 33.4701 22.5501C34.1601 17.9101 34.9901 13.2999 35.7201 8.65995C35.8501 7.79995 35.8301 6.92008 35.9501 6.04008C36.0658 4.79654 36.5417 3.61372 37.3197 2.63676C38.0977 1.65979 39.1439 0.931159 40.33 0.540076C41.5335 0.0191128 42.8666 -0.125198 44.1537 0.126502C45.4408 0.378202 46.6213 1.01402 47.5399 1.94999C48.3699 2.71978 48.9998 3.6806 49.3744 4.74882C49.7491 5.81704 49.8574 6.96053 49.6901 8.08012C49.1301 13.2501 48.2201 18.37 47.4301 23.5C46.9101 26.83 46.4999 30.1901 46.0499 33.5401C45.1274 40.0108 44.7228 46.545 44.84 53.0801C44.871 53.7547 45.1438 54.3956 45.6083 54.8858C46.0728 55.376 46.698 55.6828 47.37 55.75C51.53 56.13 55.1901 54.6999 58.6701 52.6199C59.7747 51.8809 61.073 51.4848 62.402 51.4812C63.731 51.4777 65.0315 51.8668 66.14 52.5999C67.1549 53.1815 67.9937 54.0267 68.5675 55.0459C69.1414 56.0652 69.4291 57.2206 69.4 58.3899C69.44 61.3899 68 63.3299 65.58 64.8799C61.9457 67.0547 57.9748 68.6094 53.83 69.48C52.2033 69.8661 50.5235 69.9777 48.86 69.8101ZM460.93 47.17C460.93 40.85 460.927 34.53 460.92 28.21C460.841 26.7979 461.047 25.3845 461.524 24.0533C462.002 22.722 462.742 21.5001 463.7 20.46C464.443 19.763 465.328 19.2354 466.294 18.9134C467.26 18.5914 468.285 18.4826 469.297 18.5948C470.309 18.7069 471.285 19.0373 472.158 19.563C473.03 20.0887 473.778 20.7973 474.35 21.6399C474.887 22.4925 475.245 23.4457 475.402 24.4412C475.558 25.4367 475.51 26.4537 475.26 27.43C475.163 27.877 475.109 28.3326 475.1 28.7901C475.09 41.4701 475.08 54.1501 475.07 66.8301C475.07 68.0201 475.65 69.0801 475.62 70.2801C475.52 73.6801 473.37 76.67 470.2 77.2C466.68 77.79 463.71 76.5801 462.12 72.8201C461.319 70.7242 460.928 68.4935 460.97 66.25C460.84 59.89 460.93 53.53 460.93 47.17V47.17ZM543.56 20.8201C541.32 21.4101 540.08 23.1699 538.59 24.6499C537.82 25.4199 537.62 25.3001 537.3 24.2901C536.675 22.1698 535.913 20.0922 535.02 18.0701C533.37 14.5601 530.61 12.0201 527.52 9.78007C525.439 8.15155 523.005 7.03445 520.414 6.51859C517.822 6.00273 515.146 6.10256 512.6 6.8101C508.59 7.8901 505.7 10.5801 503.26 13.8201C503.15 14.0037 503 14.1606 502.822 14.2798C502.644 14.3991 502.442 14.4778 502.23 14.51C501.031 14.6802 499.883 15.1102 498.868 15.7701C497.852 16.4299 496.993 17.3037 496.35 18.3301C493.824 22.7199 492.113 27.5308 491.3 32.5301C490.8 35.2301 490.46 37.96 490.22 40.71C489.836 43.9879 489.873 47.3016 490.33 50.5701C490.95 55.0629 492.466 59.3851 494.79 63.2801C496.773 66.5896 499.577 69.3313 502.93 71.24C506.09 72.9124 509.654 73.6675 513.22 73.42C515.205 73.5266 517.196 73.3958 519.15 73.0301C522.99 72.1001 525.92 69.6699 528.77 67.0999C532.334 63.7286 535.101 59.6054 536.87 55.0301C538.436 51.3322 539.346 47.3899 539.56 43.3799C539.62 42.2499 539.84 41.55 540.92 41.21C541.141 41.1114 541.349 40.9874 541.54 40.8401C544.9 38.6801 547.45 35.6201 550.19 32.7901C550.913 32.043 551.473 31.1545 551.837 30.1805C552.2 29.2064 552.357 28.1678 552.3 27.1299C552.238 26.1002 551.948 25.0973 551.451 24.1934C550.954 23.2895 550.262 22.5074 549.425 21.9036C548.589 21.2998 547.629 20.8893 546.615 20.7019C545.6 20.5145 544.557 20.555 543.56 20.8201V20.8201ZM515.75 20.8401C516.75 20.0101 517.67 20.3699 518.71 20.8499C522.11 22.4199 523.12 25.6101 524.17 28.8101C524.26 29.0801 524.32 29.3699 524.43 29.6299C524.86 30.6399 524.68 31.1601 523.44 30.8401C521.988 30.8599 520.546 30.5926 519.197 30.0537C517.848 29.5149 516.619 28.715 515.58 27.7C515.086 27.2696 514.693 26.7356 514.429 26.1358C514.165 25.536 514.036 24.8852 514.052 24.23C514.068 23.5749 514.229 22.9315 514.523 22.3455C514.816 21.7595 515.235 21.2455 515.75 20.8401V20.8401ZM521.14 54.67C519.934 56.2772 518.463 57.6672 516.79 58.7801C515.596 59.4911 514.171 59.7064 512.82 59.3799C511.57 59.1899 510.25 59.3801 509.15 58.5701C507.435 57.2675 506.149 55.4805 505.46 53.44C504.156 49.9844 503.646 46.2793 503.97 42.5999C504.08 40.6508 504.351 38.7144 504.78 36.8101C510.55 42.4901 517.18 45.6599 525.34 44.6299C524.794 48.273 523.351 51.7232 521.14 54.67V54.67ZM396.42 52.7701C396.3 51.4701 396.28 50.1499 396.22 48.8599C396.01 44.2999 395.9 39.75 395.4 35.21C395.13 32.67 395.09 30.0899 394.59 27.5999C393.4 21.5799 391.81 15.6501 388.76 10.2801C387.318 7.82314 385.409 5.67253 383.14 3.94999C379.64 1.19999 375.67 0.629969 371.46 1.42997C366.983 2.2435 363.01 4.79622 360.41 8.53007C357.76 12.1701 356.03 16.2999 354.25 20.3999C351.21 27.7792 349.311 35.5789 348.62 43.5301C348.27 46.7801 347.67 49.99 347.56 53.26C347.43 57.34 346.8 61.4 347.31 65.5C347.444 66.4721 347.785 67.4043 348.309 68.2339C348.833 69.0636 349.529 69.7715 350.349 70.3103C351.169 70.8492 352.095 71.2065 353.064 71.3582C354.034 71.5099 355.025 71.4526 355.97 71.19C359.44 70.22 361.14 67.4301 361.23 64.0901C361.33 60.4801 361.1 56.86 361.49 53.26C361.54 52.79 361.46 52.4999 362.15 52.3599C364.427 51.9224 366.741 51.7015 369.06 51.7C373.27 51.7 377.47 51.15 381.7 51.45C382.45 51.51 382.51 51.6 382.5 52.19C382.49 54.16 382.5 56.12 382.5 58.49C382.63 60.54 382.26 63 382.74 65.45C382.939 66.4579 383.359 67.4092 383.968 68.2361C384.578 69.063 385.363 69.7452 386.267 70.2334C387.17 70.7217 388.171 71.0041 389.197 71.0606C390.222 71.1171 391.248 70.9462 392.2 70.5601C395.34 69.2201 396.62 66.6301 396.65 63.3401C396.753 59.8152 396.677 56.2872 396.42 52.7701V52.7701ZM370.57 37.5401C368.413 37.5314 366.26 37.6986 364.13 38.0401C363.32 38.1701 363.48 37.6 363.57 37.16C364.235 34.0247 365.151 30.9482 366.31 27.96C367.79 24.27 369.13 20.47 371.42 17.2C373.34 14.47 375.05 14.58 376.72 17.5C378.499 20.886 379.76 24.5198 380.46 28.2801C381.04 31.0153 381.381 33.7958 381.48 36.5901C381.454 36.9304 381.546 37.2692 381.74 37.5501C377.89 37.5501 374.23 37.5501 370.57 37.5401V37.5401ZM338.04 68.3499C337.78 66.4199 336.66 65.04 335.83 63.45C333.317 58.492 330.369 53.7669 327.02 49.3301C326.53 48.6901 325.54 48.2299 325.63 47.3499C325.71 46.5299 326.72 46.26 327.27 45.69L327.36 45.5999C329.835 42.6218 331.906 39.3302 333.52 35.8101C334.491 33.4644 334.945 30.9368 334.85 28.3999C334.803 25.746 334.334 23.1164 333.46 20.6099C332.11 16.6799 330.47 13.0601 327.2 10.3301C325.352 8.77566 323.158 7.68518 320.803 7.14945C318.448 6.61372 315.999 6.64817 313.66 7.25004C308.866 8.1741 304.535 10.7157 301.39 14.45C299.893 16.1608 298.569 18.0167 297.44 19.99C295.399 23.8041 293.977 27.9189 293.23 32.18C292.403 36.0142 291.865 39.9053 291.62 43.8201C291.63 45.041 291.55 46.261 291.38 47.47C290.784 51.2882 290.477 55.1458 290.46 59.01C290.225 64.1126 290.285 69.2245 290.64 74.3201C290.697 75.3821 291.011 76.4142 291.557 77.3272C292.102 78.2402 292.862 79.0067 293.77 79.5601C297.57 81.9201 301.8 80.3799 304.26 77.1099C304.766 76.4137 305.127 75.623 305.321 74.7847C305.515 73.9464 305.538 73.0777 305.39 72.23C305.25 71.13 304.59 70.2199 304.58 69.1399C304.56 64.4799 304.57 59.8299 304.57 55.0999C306.89 55.4408 309.258 55.1687 311.44 54.3101C312.02 54.1001 312.58 53.7401 313.14 54.5201C314.43 56.3001 315.98 57.87 317.26 59.67C320.04 63.7002 322.546 67.9132 324.76 72.2801C327.18 76.9001 333.38 77.7899 336.61 73.6299C337.205 72.8989 337.639 72.0514 337.885 71.1419C338.132 70.2324 338.184 69.281 338.04 68.3499ZM320.04 31.5701C318.596 34.8275 315.948 37.4001 312.65 38.75C311.296 39.398 309.903 39.9624 308.48 40.44C308.227 40.5571 307.945 40.5955 307.67 40.5501C306.08 40.1101 306.07 40.1301 306.34 38.3301C306.75 34.4797 307.791 30.7228 309.42 27.21C310.93 24.28 312.98 21.8801 316.38 21.0601C317.46 20.8001 318.24 20.8299 318.88 21.8999C320.074 23.883 320.726 26.1454 320.77 28.46C320.856 29.5474 320.601 30.6347 320.04 31.5701V31.5701ZM205.58 74.45C200.65 74.74 196.08 73.2501 191.68 71.2801C189.831 70.5526 188.155 69.4454 186.76 68.0301C185.962 67.2008 185.389 66.1808 185.097 65.0674C184.804 63.9541 184.802 62.7844 185.09 61.67C185.343 60.4126 185.954 59.2554 186.85 58.3379C187.746 57.4205 188.889 56.7822 190.14 56.5C191.091 56.2411 192.087 56.1892 193.06 56.3479C194.033 56.5066 194.961 56.8722 195.78 57.42C198.375 59.0616 201.315 60.0783 204.37 60.3899C207.872 60.6648 211.364 59.7488 214.28 57.7901C215.217 57.2361 215.93 56.3721 216.297 55.3477C216.664 54.3233 216.662 53.2027 216.29 52.18C215.87 51.06 214.78 50.94 213.81 50.91C211.94 50.85 210.05 51.0101 208.18 51.0201C202.08 51.0501 196.22 50.2201 191.99 45.0601C190.397 43.1015 189.364 40.7483 189 38.25C188.143 33.0693 188.883 27.7506 191.12 23C193.699 17.3963 198.369 13.0246 204.13 10.8201C206.292 10.0274 208.59 9.67708 210.89 9.79008C213.02 9.84008 215.26 9.54996 217.3 10.42C220.31 11.72 223.59 12.7501 224.9 16.3201C225.408 17.6864 225.477 19.177 225.097 20.5843C224.717 21.9915 223.907 23.2451 222.78 24.17C220.36 26.19 217.63 26.23 214.85 24.92C213.747 24.2095 212.48 23.7962 211.17 23.72C206.59 23.94 203.84 27.64 202.91 31.44C202.701 32.2937 202.607 33.1715 202.63 34.0501C202.67 36.4701 202.94 36.6201 205.36 36.8301C208.03 37.0701 210.67 36.6901 213.33 36.7801C217.21 36.9101 220.88 37.6899 224.05 40.1199C227.163 42.3913 229.281 45.7766 229.96 49.5701C230.368 51.0922 230.603 52.6553 230.66 54.23C230.659 56.3028 230.262 58.3563 229.49 60.2801C227.271 65.4993 223.086 69.6344 217.84 71.7901C213.89 73.4401 209.9 74.7 205.58 74.45ZM161.95 29.5501C162.05 27.5101 161.71 25.1799 162.44 22.9099C162.92 21.3552 163.94 20.0228 165.314 19.1521C166.689 18.2815 168.329 17.9296 169.94 18.1599C171.449 18.3237 172.857 18.9962 173.933 20.0667C175.009 21.1372 175.689 22.542 175.86 24.0501C176.218 26.9014 176.232 29.7854 175.9 32.6399C175.76 34.1899 175.66 35.7601 175.64 37.3101C175.729 42.6422 175.185 47.966 174.02 53.17C172.83 57.8 171.57 62.4799 168.53 66.3799C165.818 69.7748 162.349 72.4875 158.4 74.3001C155.074 75.8122 151.402 76.3995 147.77 76C144.875 75.6699 142.116 74.5948 139.76 72.8799C135.15 69.7999 132.53 65.3301 131.06 60.0301C130.097 56.7337 129.688 53.3002 129.85 49.8699C130.12 45.1899 130.27 40.5001 130.62 35.8401C130.766 31.9221 131.272 28.0256 132.13 24.2C133.11 20.52 135.65 17.6599 139.84 17.8899C143.23 18.0799 145.53 20.4 146.3 23.67C146.75 25.57 145.81 27.1101 145.51 28.8201C145.155 30.5294 144.907 32.2595 144.77 34C144.62 37.63 144.29 41.2499 144.15 44.8799C144.07 46.7899 143.95 48.74 143.82 50.66C143.517 53.8656 144.306 57.0796 146.06 59.7801C146.704 60.6759 147.613 61.3477 148.659 61.701C149.704 62.0543 150.834 62.0714 151.89 61.75C153.636 61.1803 155.215 60.1901 156.488 58.8665C157.761 57.5429 158.689 55.9266 159.19 54.16C160.544 50.0578 161.319 45.7865 161.49 41.47C161.61 37.58 161.98 33.7001 161.95 29.5501ZM268.87 40.22C268.87 45.63 268.83 51.04 268.89 56.45C268.92 58.35 269.15 60.2399 269.15 62.1499C269.164 63.5733 268.756 64.969 267.979 66.1612C267.201 67.3534 266.088 68.2888 264.78 68.8499C263.466 69.4622 261.993 69.6489 260.568 69.3836C259.143 69.1182 257.836 68.4141 256.83 67.3699C255.386 65.9088 254.565 63.9443 254.54 61.8899C253.55 49.2499 254.26 36.58 254.05 23.93C254.04 23.15 253.96 23.0101 253.09 23.2701C250.203 24.0897 247.247 24.6485 244.26 24.94C243.306 25.0846 242.333 25.0363 241.398 24.7979C240.463 24.5595 239.585 24.136 238.817 23.5523C238.048 22.9686 237.405 22.2363 236.924 21.3995C236.444 20.5626 236.137 19.6379 236.02 18.68C235.856 17.6728 235.904 16.6425 236.162 15.6551C236.419 14.6676 236.88 13.745 237.514 12.9458C238.148 12.1467 238.943 11.4887 239.846 11.0142C240.749 10.5397 241.742 10.2589 242.76 10.19C245.201 10.004 247.615 9.55464 249.96 8.84989C251.941 8.42191 253.955 8.17092 255.98 8.09989C260.5 7.56989 265.07 7.58999 269.6 7.19999C272.41 6.95999 275.22 7.23999 278.01 6.94999C279.738 6.73126 281.492 7.04171 283.04 7.84013C284.391 8.63261 285.459 9.8287 286.094 11.2603C286.729 12.6919 286.899 14.2868 286.58 15.8201C286.262 17.2853 285.499 18.6165 284.397 19.6328C283.295 20.6492 281.906 21.3013 280.42 21.5C278.2 21.758 275.962 21.8316 273.73 21.72C272.29 21.72 270.86 21.94 269.43 22C268.53 22.04 268.89 22.6701 268.89 23.0601C268.86 27.8801 268.87 32.7101 268.87 37.5401V40.22V40.22ZM14.1701 15.3001C14.4001 20.5901 15.7 36.44 15.81 41.73C15.89 45.32 15.75 48.9301 15.57 52.5201C15.42 55.6801 15.13 58.83 14.81 61.97C14.6386 64.5601 14.2947 67.1358 13.7802 69.68C13.368 71.131 12.4807 72.4017 11.2604 73.2884C10.0401 74.175 8.55729 74.6264 7.04995 74.5701C5.48233 74.5088 3.98137 73.9207 2.78921 72.9009C1.59705 71.8811 0.783514 70.4892 0.480125 68.95C0.291525 67.7651 0.278008 66.5588 0.440086 65.3699C0.540086 63.8199 0.760067 62.28 0.920067 60.73C1.25007 57.39 1.59006 54.04 1.91006 50.69C1.94006 50.35 1.93008 50.01 1.93008 49.67C1.93008 45.78 2.03005 41.89 1.90005 38.01C1.77005 33.92 0.620008 19.24 0.110008 15.18C-0.339992 11.62 0.519959 8.77001 3.55996 6.97001C4.53028 6.39637 5.62718 6.07064 6.75332 6.02177C7.87945 5.9729 9.00014 6.20232 10.0165 6.68973C11.0329 7.17715 11.9136 7.90769 12.5805 8.81644C13.2474 9.7252 13.6799 10.7842 13.84 11.8999C13.92 12.4799 14.04 13.0499 14.08 13.6399C14.12 14.1899 14.09 14.7501 14.09 15.3001H14.1701V15.3001Z" fill="black"/>
</g>
<defs>
<clipPath id="clip0">
<rect width="613.79" height="81.16" fill="white"/>
</clipPath>
</defs>
</svg>
