<svg width="515" height="1372" viewBox="0 0 515 1372" fill="none" xmlns="http://www.w3.org/2000/svg">
<path d="M58.1583 606.095C90.7312 527.165 124.13 355.315 136.326 256.227C174.437 93.1124 207.974 51.9527 294.867 65.6726C360.389 76.0183 375.662 192.89 375.662 276.044C375.662 352.584 405.602 418.889 411.031 444.187C416.46 469.485 519.607 674.401 514.179 818.6C508.75 962.8 383.887 957.74 375.744 977.979C367.6 998.218 374.945 1271.17 374.945 1286.35C374.945 1301.53 402.204 1329.66 415.776 1342.31C426.633 1352.43 394.139 1349.08 388.632 1342.31L407.633 1349.9C410.483 1359.18 375.873 1357.55 361.933 1353.41C308.575 1337.55 319.608 1286.63 318.703 1271.45C317.799 1154.23 302.455 977.979 291.597 977.979C280.739 977.979 230.975 972.919 207.45 970.39C205.641 1054.72 199.85 1236.53 191.164 1289.15C179.782 1333.94 148.252 1360.25 112.965 1362.78C91.9935 1364.28 94.0174 1357.9 108.318 1349.9C104.918 1350.35 100.887 1350.41 96.1595 1349.86C74.4442 1347.33 83.1613 1341.15 91.8138 1339.22C107.196 1331.05 104.303 1344.8 131.447 1289.15C153.163 1244.62 140.496 1044.6 131.447 950.151C-50.4181 841.369 17.4422 704.758 58.1583 606.095Z" fill="#FF480E"/>
<path fill-rule="evenodd" clip-rule="evenodd" d="M310.402 57.4697C310.82 55.9012 310.795 53.7215 309.614 50.7508C308.929 49.0266 307.755 48.0818 306.29 47.6112C304.719 47.1069 302.714 47.1354 300.683 47.723C298.651 48.3106 296.893 49.3716 295.792 50.564C294.711 51.7342 294.453 52.7748 294.626 53.6454C295.043 55.7422 295.673 56.6896 296.049 57.065C296.345 57.3598 296.54 57.3777 296.725 57.362C297.013 57.3374 297.489 57.1675 297.995 56.7185V56.7185C298.746 56.0523 299.765 55.4434 300.73 55.7192L304.019 56.6589C304.811 56.8853 305.294 57.6742 304.947 58.4213V58.4213C304.237 59.9475 305.382 62.8535 306.813 61.9678C307.112 61.7829 307.4 61.5848 307.676 61.3732C309.036 60.3294 309.985 59.0374 310.402 57.4697ZM297.297 64.0674C297.57 64.0441 297.803 64.2815 297.755 64.5518L297.183 67.7825C296.919 69.2745 297.919 70.7105 299.434 70.7183C303.421 70.7387 308.16 69.4845 311.773 66.7123C314.093 64.9317 316.041 62.4487 316.905 59.2014C317.77 55.9549 317.463 52.2796 315.869 48.2659C314.386 44.5335 311.579 42.2419 308.348 41.2039C305.221 40.1997 301.813 40.3905 298.813 41.2581C295.813 42.1255 292.92 43.7552 290.849 45.9971C288.757 48.2612 287.319 51.3982 288.026 54.9565C288.598 57.8366 289.656 60.1945 291.298 61.831C293.02 63.5481 295.173 64.2486 297.297 64.0674V64.0674Z" fill="black"/>
<path fill-rule="evenodd" clip-rule="evenodd" d="M202.757 110.899C204.965 108.216 206.76 105.386 208.043 103.016C208.928 101.381 210.907 100.592 212.613 101.327V101.327C214.32 102.062 215.111 104.045 214.245 105.689C212.748 108.53 210.616 111.941 207.953 115.176C204.94 118.837 201.055 122.509 196.429 124.739C194.755 125.547 192.856 124.538 192.305 122.763V122.763C191.754 120.988 192.764 119.116 194.392 118.22C197.437 116.543 200.277 113.912 202.757 110.899Z" fill="black"/>
<path fill-rule="evenodd" clip-rule="evenodd" d="M260 113.737C259.48 115.521 257.599 116.551 255.842 115.945C233.837 108.352 226.373 92.9587 225.212 83.1335C224.994 81.288 226.561 79.8297 228.418 79.8898V79.8898C230.275 79.9499 231.731 81.5097 232.039 83.3423C233.282 90.7308 239.284 102.999 257.729 109.476C259.482 110.091 260.521 111.953 260 113.737V113.737Z" fill="black"/>
<path fill-rule="evenodd" clip-rule="evenodd" d="M261.282 107.992C257.667 106.147 255.067 103.956 253.564 101.72C252.527 100.178 253.671 98.3417 255.486 97.9418V97.9418C257.301 97.542 259.448 98.6076 260.882 99.7897C261.701 100.465 262.821 101.222 264.341 101.997C268.237 103.986 274.445 105.91 283.909 106.749C285.76 106.913 287.182 108.496 287.077 110.351V110.351C286.972 112.206 285.381 113.632 283.53 113.471C273.338 112.589 266.175 110.489 261.282 107.992Z" fill="black"/>
<path fill-rule="evenodd" clip-rule="evenodd" d="M175.782 107.914C170.947 108.302 166.493 107.945 163.068 107.328C161.239 106.998 160.204 105.131 160.715 103.344V103.344C161.226 101.558 163.092 100.523 164.927 100.818C167.7 101.264 171.307 101.521 175.245 101.206C180.011 100.824 185.108 99.6158 189.755 97.0208C191.377 96.1147 193.474 96.4354 194.562 97.9418V97.9418C195.651 99.4482 195.318 101.567 193.715 102.508C187.831 105.963 181.461 107.459 175.782 107.914Z" fill="black"/>
<path fill-rule="evenodd" clip-rule="evenodd" d="M315.883 102.343C314.268 99.9119 312.2 97.7155 310.297 96.0184C308.911 94.7814 308.559 92.6825 309.642 91.1724V91.1724C310.725 89.6624 312.834 89.3119 314.241 90.5258C316.656 92.6093 319.355 95.4077 321.488 98.6178C323.869 102.201 325.836 106.759 325.345 111.567C325.156 113.416 323.193 114.349 321.438 113.737V113.737C319.683 113.125 318.808 111.164 318.652 109.313C318.468 107.12 317.492 104.763 315.883 102.343Z" fill="black"/>
<path fill-rule="evenodd" clip-rule="evenodd" d="M352.515 97.5601C352.771 99.4006 351.484 101.117 349.629 101.231C334.842 102.139 325.764 94.742 321.729 88.6908C320.698 87.1446 321.479 85.1504 323.181 84.4033V84.4033C324.882 83.6563 326.877 84.4413 328.008 85.9158C331.129 89.9844 337.732 95.0375 348.695 94.5403C350.552 94.4562 352.258 95.7195 352.515 97.5601V97.5601Z" fill="black"/>
<path fill-rule="evenodd" clip-rule="evenodd" d="M304.807 93.804C306.176 90.9626 306.921 87.4668 307.231 84.3776C307.417 82.5285 308.913 81.0187 310.771 81.0187V81.0187C312.63 81.0187 314.146 82.5268 313.989 84.3786C313.666 88.2006 312.766 92.7906 310.869 96.7256C309.608 99.3423 307.806 101.878 305.231 103.619C303.407 104.853 301.306 105.611 298.96 105.782C297.106 105.918 295.828 104.152 296.104 102.314V102.314C296.38 100.477 298.164 99.3594 299.934 98.7919C300.501 98.6099 301.005 98.3531 301.461 98.0447C302.736 97.1821 303.868 95.7524 304.807 93.804Z" fill="black"/>
<path fill-rule="evenodd" clip-rule="evenodd" d="M197.901 74.7318C203.828 73.64 209.351 74.6177 213.465 76.2109C215.198 76.8821 215.778 78.9468 214.872 80.5697V80.5697C213.967 82.1926 211.914 82.7591 210.152 82.1668C207.165 81.1623 203.263 80.5871 199.12 81.3503C194.114 82.2724 188.467 85.1992 183.488 92.2968C182.421 93.8182 180.371 94.3682 178.769 93.4273V93.4273C177.166 92.4864 176.619 90.4154 177.668 88.8815C183.649 80.1376 190.906 76.0203 197.901 74.7318Z" fill="black"/>
<path fill-rule="evenodd" clip-rule="evenodd" d="M322.602 57.3576C320.983 58.9074 319.707 60.6451 318.778 62.2253C317.835 63.8271 315.901 64.7323 314.156 64.0933V64.0933C312.411 63.4543 311.508 61.5135 312.383 59.8738C313.644 57.5093 315.492 54.8482 317.947 52.4972C320.951 49.6204 324.97 47.1165 329.984 46.3238C331.819 46.0335 333.336 47.5695 333.336 49.4279V49.4279C333.336 51.2863 331.809 52.7496 330 53.1762C327.071 53.8671 324.614 55.4302 322.602 57.3576Z" fill="black"/>
<path fill-rule="evenodd" clip-rule="evenodd" d="M285.46 83.7844C281.991 84.6347 278.506 84.481 275.653 83.9267C273.829 83.5723 272.915 81.6312 273.539 79.8809V79.8809C274.164 78.1307 276.097 77.2353 277.939 77.4865C279.769 77.7363 281.856 77.7388 283.858 77.248C286.245 76.6632 288.582 75.3759 290.327 72.7269C291.349 71.1749 293.229 70.2298 294.976 70.8642V70.8642C296.722 71.4986 297.653 73.4495 296.76 75.0791C294.011 80.0953 289.8 82.7209 285.46 83.7844Z" fill="black"/>
<path fill-rule="evenodd" clip-rule="evenodd" d="M244.09 53.5919C243.883 56.3344 243.36 58.9166 242.758 61.0485C242.253 62.8368 240.285 63.6665 238.563 62.9666V62.9666C236.842 62.2668 236.014 60.2991 236.476 58.4991C236.882 56.9182 237.231 55.0515 237.379 53.0855C237.556 50.7359 237.435 48.413 236.893 46.3244C236.427 44.5255 236.953 42.4576 238.563 41.5302V41.5302C240.174 40.6028 242.258 41.1543 242.88 42.9058C244.146 46.4757 244.341 50.2703 244.09 53.5919Z" fill="black"/>
<path fill-rule="evenodd" clip-rule="evenodd" d="M295.231 44.7696C291.714 46.8219 288.537 50.0247 286.217 53.0048C285.075 54.4712 283.002 54.9385 281.435 53.9393V53.9393C279.868 52.9402 279.401 50.8541 280.522 49.3723C283.263 45.75 287.202 41.6629 291.839 38.9571C294.805 37.2265 298.211 35.9713 301.868 35.9112C304.614 35.8661 307.371 36.4993 310.038 37.941C311.673 38.8245 311.916 40.976 310.769 42.4384V42.4384C309.622 43.9008 307.528 44.0793 305.809 43.3714C304.49 42.828 303.211 42.6199 301.978 42.6401C299.798 42.6759 297.521 43.4334 295.231 44.7696Z" fill="black"/>
<path fill-rule="evenodd" clip-rule="evenodd" d="M276.588 10.7812C277.703 16.7103 275.972 24.5353 269.609 34.5565C259.582 50.3455 263.636 67.4378 267.979 76.2803C268.798 77.9484 268.337 80.0222 266.768 81.0184V81.0184C265.199 82.0147 263.115 81.5546 262.271 79.8991C257.122 69.8021 251.996 49.7389 263.928 30.9488C269.824 21.6637 270.648 15.6058 269.974 12.0245C269.673 10.4202 269.052 9.20328 268.323 8.3044C267.152 6.86143 266.146 4.92139 266.768 3.17042V3.17042C267.391 1.41944 269.35 0.482298 270.868 1.55394C273.451 3.37672 275.766 6.40946 276.588 10.7812Z" fill="black"/>
<path fill-rule="evenodd" clip-rule="evenodd" d="M388.62 73.1209C390.11 74.232 390.421 76.3488 389.1 77.6559C383.212 83.4818 370.981 90.1853 354.879 84.4735C346.837 81.621 341.063 81.1154 337.227 81.4902C336.101 81.6003 335.166 81.7822 334.397 81.9933C332.605 82.4856 330.25 82.4936 328.824 81.3022V81.3022C327.397 80.1109 327.229 77.9625 328.84 77.0361C330.788 75.916 333.406 75.1018 336.573 74.7923C341.616 74.2995 348.396 75.0335 357.129 78.131C369.593 82.5524 378.956 77.8059 383.641 73.5704C385.02 72.3242 387.13 72.0099 388.62 73.1209V73.1209Z" fill="black"/>
<path fill-rule="evenodd" clip-rule="evenodd" d="M187.099 52.2496C194.744 53.786 204.419 54.7504 211.955 54.7504C219.364 54.7504 226.994 59.2028 233.153 64.0622C238.191 68.0369 242.672 72.6275 245.855 76.348C247.063 77.76 246.798 79.8759 245.332 81.0184V81.0184C243.866 82.1609 241.754 81.8966 240.541 80.4893C237.618 77.1001 233.531 72.9321 228.985 69.3457C223.048 64.662 216.964 61.4801 211.955 61.4801C203.966 61.4801 193.847 60.4701 185.773 58.8474C181.761 58.041 178.07 57.0478 175.358 55.8713C174.026 55.2935 172.697 54.5736 171.681 53.6448C171.261 53.2613 170.803 52.7501 170.439 52.1226C169.506 50.5152 171.31 49.1274 173.143 49.4279L175.07 49.7434C175.84 49.8695 175.596 49.1564 176.172 48.6301V48.6301C176.172 48.6301 176.187 48.646 176.222 48.6785C176.435 48.8726 176.979 49.2387 178.036 49.6974C180.103 50.594 183.253 51.4765 187.099 52.2496Z" fill="black"/>
<path fill-rule="evenodd" clip-rule="evenodd" d="M276.01 37.0172C277.826 36.6234 279.633 37.7814 279.888 39.6222C282.384 57.6421 272.805 71.5583 265.716 78.1572C264.356 79.4235 262.245 79.1184 261.128 77.6335V77.6335C260.01 76.1487 260.314 74.0405 261.65 72.7481C267.493 67.0931 275.079 55.6241 273.285 41.0476C273.058 39.2032 274.194 37.4109 276.01 37.0172V37.0172Z" fill="black"/>
<path fill-rule="evenodd" clip-rule="evenodd" d="M256.581 37.1844C259.226 42.0237 259.214 47.501 258.289 51.8421C257.902 53.6597 255.957 54.5684 254.207 53.9411V53.9411C252.458 53.3137 251.577 51.3849 251.878 49.5512C252.374 46.5376 252.182 43.1677 250.676 40.4117C248.775 36.9343 244.136 33.3244 232.74 33.6311C226.761 33.7919 222.394 34.1889 219.263 34.7048C216.067 35.2316 214.408 35.8445 213.658 36.2797C213.444 36.404 213.37 36.4682 213.37 36.4677C213.369 36.4665 213.825 36.0637 213.707 35.19V35.19C213.697 35.1161 213.605 35.0982 213.562 35.1598L211.127 38.7323C210.502 39.6505 209.218 39.9092 208.477 39.0808C207.804 38.3277 207.206 37.3354 207.038 36.0898C206.673 33.386 208.473 31.5079 210.28 30.4593C212.086 29.4114 214.699 28.6365 218.169 28.0646C221.705 27.4819 226.401 27.0694 232.559 26.9037C245.435 26.5573 253.039 30.7026 256.581 37.1844ZM213.482 34.5835V34.5835C213.486 34.5825 213.478 34.5844 213.482 34.5835V34.5835Z" fill="black"/>
<path fill-rule="evenodd" clip-rule="evenodd" d="M340.515 65.0139C335.521 69.3793 329.938 73.453 325.541 76.3899C323.996 77.422 321.917 76.9492 320.925 75.3772V75.3772C319.934 73.8051 320.406 71.7298 321.95 70.6957C326.126 67.8984 331.403 64.0403 336.086 59.9469C338.996 57.4028 341.608 54.8281 343.574 52.4122C344.415 51.3787 345.092 50.4287 345.617 49.5697C346.586 47.9841 348.438 46.8022 350.259 47.1714V47.1714C352.081 47.5405 353.263 49.3343 352.475 51.0174C351.562 52.968 350.246 54.8754 348.794 56.6596C346.5 59.4782 343.584 62.3313 340.515 65.0139Z" fill="black"/>
<path fill-rule="evenodd" clip-rule="evenodd" d="M187.416 96.9085C197.382 91.4793 208.605 88.8983 216.991 88.0632C218.841 87.8791 220.419 89.3163 220.51 91.1725V91.1725C220.6 93.0286 219.17 94.6006 217.322 94.794C209.686 95.5927 199.53 97.9728 190.635 102.818C181.322 107.891 173.692 115.471 171.355 126.572C170.972 128.39 169.331 129.733 167.483 129.532V129.532C165.635 129.332 164.285 127.665 164.636 125.84C167.319 111.887 176.812 102.684 187.416 96.9085Z" fill="black"/>
<path fill-rule="evenodd" clip-rule="evenodd" d="M350.139 120.306C349.79 119.017 348.827 117.64 347.606 116.413C346.295 115.095 345.844 113.028 346.873 111.481V111.481C347.903 109.934 350.009 109.501 351.395 110.739C353.591 112.7 355.779 115.386 356.635 118.547C357.286 120.953 357.151 123.62 355.692 126.197C354.72 127.916 353.243 129.446 351.296 130.805C349.772 131.869 347.72 131.185 346.873 129.531V129.531C346.026 127.876 346.737 125.911 348.177 124.736C349.028 124.041 349.538 123.409 349.836 122.883C350.325 122.018 350.381 121.203 350.139 120.306Z" fill="black"/>
<path fill-rule="evenodd" clip-rule="evenodd" d="M243.735 155.879C245.663 155.324 247.369 153.588 248.559 151.389C249.295 150.029 250.814 149.166 252.306 149.573L253.943 150.02C255.525 150.451 256.443 152.123 255.731 153.601C254.011 157.171 250.917 161.098 245.966 162.525C239.805 164.3 232.902 161.695 225.468 154.318C224.276 153.136 224.447 151.188 225.771 150.156L226.958 149.232C228.148 148.304 229.847 148.462 230.915 149.528C237.595 156.198 241.732 156.456 243.735 155.879Z" fill="black"/>
<path fill-rule="evenodd" clip-rule="evenodd" d="M283.429 155.879C285.172 155.336 286.718 153.66 287.812 151.527C288.54 150.108 290.118 149.212 291.648 149.664L292.769 149.995C294.294 150.446 295.182 152.056 294.542 153.512C292.962 157.106 290.096 161.087 285.489 162.525C279.778 164.307 273.378 161.674 266.483 154.228C265.404 153.062 265.565 151.239 266.779 150.214L267.678 149.455C268.898 148.425 270.715 148.591 271.807 149.756C277.849 156.203 281.602 156.45 283.429 155.879Z" fill="black"/>
<path fill-rule="evenodd" clip-rule="evenodd" d="M335.58 180.618C337.278 181.374 338.041 183.364 337.285 185.061C324.776 213.145 294.281 218.004 270.904 218.004C265.257 218.004 259.739 216.746 254.604 215.576C253.353 215.291 252.124 215.011 250.923 214.756C249.371 214.427 247.804 214.115 246.223 213.802C240.316 212.628 234.23 211.42 228.153 209.097C224.005 207.512 219.855 205.656 215.799 203.841C214.172 203.113 212.56 202.392 210.969 201.698C205.325 199.234 199.803 197.041 194.169 195.693C192.361 195.261 191.247 193.445 191.679 191.638C192.111 189.83 193.927 188.716 195.734 189.148C201.965 190.639 207.929 193.028 213.661 195.53C215.378 196.279 217.063 197.033 218.729 197.778C222.714 199.561 226.592 201.297 230.555 202.811C236.049 204.91 241.416 205.979 247.236 207.138C248.89 207.467 250.58 207.804 252.321 208.173C253.74 208.475 255.112 208.786 256.452 209.089C261.505 210.235 266.087 211.274 270.904 211.274C294.122 211.274 320.45 206.316 331.137 182.323C331.894 180.625 333.883 179.862 335.58 180.618Z" fill="black"/>
<path fill-rule="evenodd" clip-rule="evenodd" d="M292.839 200.958C294.697 200.958 296.204 202.465 296.204 204.323C296.204 211.811 297.488 219.588 298.791 227.309C299.377 230.786 299.641 234.266 299.844 237.626C299.889 238.373 299.932 239.111 299.973 239.842C300.123 242.45 300.267 244.972 300.527 247.495C300.97 251.79 301.525 257.633 301.468 263.456C301.411 269.185 300.765 275.355 298.51 280.087C296.707 283.87 294.317 286.721 290.99 287.458C287.611 288.207 284.732 286.462 282.767 284.716C280.724 282.902 278.915 280.437 277.433 278.147C276.145 276.157 274.995 274.125 274.094 272.532C273.947 272.272 273.806 272.023 273.673 271.789C270.159 265.611 267.525 258.77 265.012 252.245C264.172 250.065 263.346 247.92 262.506 245.847C257.95 234.612 255.248 223.336 253.515 211.43C253.247 209.591 254.521 207.883 256.36 207.615C258.199 207.348 259.907 208.622 260.175 210.461C261.85 221.968 264.435 232.697 268.742 243.318C269.684 245.641 270.571 247.943 271.447 250.215C273.909 256.607 276.28 262.761 279.523 268.461C279.667 268.715 279.815 268.977 279.967 269.245C280.872 270.844 281.913 272.684 283.083 274.49C284.465 276.625 285.881 278.481 287.236 279.684C288.668 280.957 289.36 280.926 289.534 280.888C289.761 280.838 290.907 280.399 292.435 277.192C294.034 273.836 294.684 268.894 294.738 263.389C294.792 257.979 294.274 252.466 293.833 248.186C293.555 245.494 293.4 242.77 293.249 240.139C293.209 239.429 293.169 238.726 293.127 238.033C292.926 234.714 292.678 231.533 292.155 228.429C290.867 220.796 289.474 212.467 289.474 204.323C289.474 202.465 290.981 200.958 292.839 200.958Z" fill="black"/>
<path fill-rule="evenodd" clip-rule="evenodd" d="M353.263 438.609C354.904 437.737 356.941 438.36 357.813 440.001C359.626 443.41 360.633 447.252 361.498 450.548C361.74 451.472 361.971 452.353 362.206 453.169C363.352 457.164 364.643 460.102 367.239 462.146C368.699 463.296 368.951 465.412 367.801 466.872C366.651 468.332 364.536 468.583 363.076 467.434C358.73 464.011 356.962 459.294 355.737 455.026C355.411 453.89 355.124 452.801 354.846 451.75C354.017 448.606 353.279 445.809 351.871 443.159C350.999 441.519 351.622 439.481 353.263 438.609Z" fill="black"/>
<path fill-rule="evenodd" clip-rule="evenodd" d="M290.372 456.267C292.23 456.267 293.737 457.774 293.737 459.632V477.684C293.737 479.543 292.23 481.049 290.372 481.049C288.513 481.049 287.007 479.543 287.007 477.684V459.632C287.007 457.774 288.513 456.267 290.372 456.267Z" fill="black"/>
<path fill-rule="evenodd" clip-rule="evenodd" d="M202.689 445.952C204.547 445.952 206.054 447.458 206.054 449.317V464.79C206.054 466.648 204.547 468.155 202.689 468.155C200.831 468.155 199.324 466.648 199.324 464.79V449.317C199.324 447.458 200.831 445.952 202.689 445.952Z" fill="black"/>
<path fill-rule="evenodd" clip-rule="evenodd" d="M231.44 353.134C233.286 353.346 234.611 355.015 234.398 356.861C234.321 357.537 234.287 358.646 234.243 360.199C234.202 361.667 234.153 363.416 234.023 365.124C233.895 366.808 233.678 368.618 233.252 370.187C232.887 371.533 232.126 373.685 230.208 374.836C228.614 375.792 226.547 375.275 225.591 373.682C224.694 372.187 225.094 370.275 226.462 369.255C226.515 369.152 226.627 368.905 226.757 368.426C227.016 367.472 227.195 366.16 227.312 364.614C227.428 363.091 227.474 361.501 227.516 360.009C227.518 359.952 227.52 359.895 227.521 359.838C227.559 358.483 227.598 357.088 227.713 356.093C227.925 354.247 229.594 352.922 231.44 353.134Z" fill="black"/>
<path fill-rule="evenodd" clip-rule="evenodd" d="M261.655 366.025C263.504 365.833 265.158 367.176 265.35 369.024C265.537 370.827 266.455 380.307 267.145 389.124C267.49 393.524 267.782 397.809 267.895 400.901C267.951 402.419 267.969 403.768 267.91 404.721C267.888 405.088 267.837 405.81 267.603 406.467C267.533 406.662 267.398 406.995 267.15 407.351C266.915 407.689 266.397 408.305 265.484 408.636C263.227 409.453 261.775 407.74 261.613 407.542C260.744 406.48 260.631 405.047 261.21 403.896C261.226 403.271 261.214 402.349 261.17 401.148C261.062 398.203 260.779 394.035 260.436 389.649C259.75 380.895 258.838 371.472 258.656 369.719C258.464 367.87 259.807 366.216 261.655 366.025ZM261.172 404.547C261.172 404.547 261.172 404.545 261.173 404.541C261.172 404.545 261.172 404.547 261.172 404.547Z" fill="black"/>
<path fill-rule="evenodd" clip-rule="evenodd" d="M342.845 330.354C344.454 329.424 346.512 329.975 347.442 331.584C348.251 332.984 349.128 334.884 350.005 336.797C350.062 336.922 350.119 337.047 350.177 337.173C351.033 339.041 351.934 341.006 352.906 342.904C353.947 344.936 355.013 346.778 356.101 348.231C357.226 349.733 358.162 350.53 358.846 350.849C360.53 351.635 361.258 353.637 360.472 355.321C359.686 357.005 357.684 357.733 356 356.947C353.837 355.938 352.095 354.109 350.714 352.265C349.297 350.372 348.03 348.147 346.916 345.971C345.874 343.937 344.915 341.846 344.071 340.002C344.009 339.867 343.948 339.734 343.887 339.602C342.969 337.599 342.232 336.019 341.615 334.951C340.685 333.342 341.236 331.284 342.845 330.354Z" fill="black"/>
<path fill-rule="evenodd" clip-rule="evenodd" d="M165.965 363.45C167.786 363.82 168.963 365.596 168.593 367.417C166.836 376.08 164.32 383.673 160.591 391.418C159.785 393.092 157.774 393.796 156.099 392.99C154.425 392.183 153.721 390.173 154.527 388.498C158.002 381.281 160.346 374.222 161.998 366.079C162.367 364.258 164.143 363.081 165.965 363.45Z" fill="black"/>
<path fill-rule="evenodd" clip-rule="evenodd" d="M167.386 556.941C169.19 557.385 170.293 559.208 169.849 561.012C167.356 571.149 167.362 581.32 167.369 592.06C167.369 592.617 167.37 593.174 167.37 593.734C167.37 595.592 165.863 597.099 164.005 597.099C162.147 597.099 160.64 595.592 160.64 593.734C160.64 593.107 160.639 592.479 160.639 591.849C160.629 581.295 160.619 570.362 163.314 559.405C163.758 557.6 165.581 556.497 167.386 556.941Z" fill="black"/>
<path fill-rule="evenodd" clip-rule="evenodd" d="M303.873 536.851C305.379 535.762 307.483 536.1 308.572 537.606C311.02 540.994 313.721 545.582 315.822 550.425C317.9 555.213 319.525 560.556 319.525 565.366C319.525 567.225 318.019 568.731 316.16 568.731C314.302 568.731 312.795 567.225 312.795 565.366C312.795 561.896 311.574 557.541 309.649 553.103C307.747 548.721 305.291 544.555 303.118 541.549C302.029 540.043 302.367 537.939 303.873 536.851Z" fill="black"/>
<path fill-rule="evenodd" clip-rule="evenodd" d="M190.189 495.755C191.603 494.549 193.727 494.718 194.933 496.133C200.547 502.719 206.052 509.434 206.052 518.947C206.052 520.805 204.546 522.311 202.687 522.311C200.829 522.311 199.322 520.805 199.322 518.947C199.322 512.23 195.598 507.287 189.811 500.498C188.605 499.084 188.775 496.96 190.189 495.755Z" fill="black"/>
<path fill-rule="evenodd" clip-rule="evenodd" d="M389.421 531.42C391.077 530.578 393.103 531.238 393.945 532.895C395.077 535.121 396.213 537.348 397.351 539.577C402.747 550.155 408.171 560.788 413.265 571.58C413.224 570.3 413.184 568.98 413.184 567.676C413.184 565.817 414.691 564.311 416.549 564.311C418.408 564.311 419.914 565.817 419.914 567.676C419.914 568.866 419.95 570.093 419.992 571.383C419.996 571.504 420 571.626 420.004 571.749C420.042 572.912 420.081 574.126 420.095 575.339C420.124 578.015 420.031 580.873 419.469 583.673C419.394 584.047 419.046 585.681 417.364 586.456C415.505 587.312 413.975 586.284 413.63 586.033C413.119 585.662 412.741 585.214 412.515 584.926C412.257 584.598 412.019 584.244 411.81 583.91C410.997 582.616 410.182 580.923 409.792 580.069C404.018 567.458 397.712 555.096 391.369 542.661C390.228 540.426 389.086 538.187 387.946 535.945C387.104 534.288 387.764 532.263 389.421 531.42ZM417.849 580.819C417.849 580.82 417.844 580.814 417.834 580.802C417.844 580.813 417.849 580.819 417.849 580.819Z" fill="black"/>
<path fill-rule="evenodd" clip-rule="evenodd" d="M357.007 568.988C357.855 567.334 359.883 566.682 361.537 567.53C367.72 570.704 370.263 574.878 371.909 579.302C372.346 580.476 372.78 581.858 373.191 583.165C373.45 583.991 373.7 584.787 373.936 585.481C374.613 587.479 375.4 589.43 376.584 591.394C376.877 591.878 378.078 593.454 379.834 595.691C380.447 596.472 381.11 597.311 381.785 598.166C382.93 599.615 384.11 601.109 385.142 602.438C385.967 603.5 386.723 604.489 387.318 605.301C387.84 606.014 388.433 606.85 388.742 607.478L388.745 607.486C388.809 607.615 389.035 608.074 389.119 608.666C389.157 608.935 389.252 609.765 388.8 610.68C388.2 611.893 387.059 612.465 386.065 612.558C385.298 612.629 384.711 612.421 384.504 612.342C384.235 612.24 384.024 612.123 383.898 612.049C383.643 611.898 383.422 611.731 383.268 611.609C382.668 611.134 381.787 610.296 380.64 609.147C379.884 608.39 379.564 607.363 379.68 606.377C378.698 605.115 377.61 603.737 376.534 602.376C375.855 601.516 375.181 600.662 374.541 599.847C372.94 597.808 371.387 595.807 370.823 594.871C369.292 592.334 368.321 589.883 367.562 587.641C367.204 586.585 366.924 585.685 366.664 584.847C366.321 583.744 366.011 582.749 365.602 581.649C364.381 578.367 362.788 575.737 358.464 573.518C356.811 572.669 356.158 570.641 357.007 568.988Z" fill="black"/>
<path fill-rule="evenodd" clip-rule="evenodd" d="M347.996 496.437C349.618 495.53 351.668 496.109 352.576 497.731C352.722 497.993 352.869 498.256 353.016 498.518C357.997 507.416 363.098 516.529 365.79 526.896C366.257 528.694 365.178 530.531 363.379 530.998C361.581 531.465 359.744 530.386 359.277 528.587C356.805 519.072 352.079 510.625 346.973 501.5C346.883 501.339 346.793 501.178 346.702 501.017C345.795 499.395 346.374 497.344 347.996 496.437Z" fill="black"/>
<path fill-rule="evenodd" clip-rule="evenodd" d="M217.116 685.955C218.882 685.377 220.782 686.339 221.36 688.106C225.031 699.314 227.154 710.763 229.21 722.076C229.542 723.905 228.329 725.656 226.501 725.989C224.673 726.321 222.921 725.108 222.589 723.28C220.524 711.919 218.471 700.908 214.965 690.2C214.387 688.434 215.349 686.533 217.116 685.955Z" fill="black"/>
<path fill-rule="evenodd" clip-rule="evenodd" d="M212.282 631.709C214.097 631.311 215.891 632.461 216.289 634.276C217.24 638.612 218.1 642.935 218.892 647.289C219.224 649.117 218.012 650.869 216.183 651.201C214.355 651.534 212.603 650.321 212.271 648.493C211.492 644.212 210.647 639.969 209.715 635.717C209.318 633.901 210.467 632.107 212.282 631.709Z" fill="black"/>
<path fill-rule="evenodd" clip-rule="evenodd" d="M112.529 688.368C114.386 688.424 115.847 689.975 115.791 691.832C115.763 692.786 115.739 693.798 115.714 694.855C115.619 698.912 115.508 703.633 115.049 708.272C114.564 713.187 113.667 718.315 111.834 722.78C112.146 723.639 112.109 724.621 111.651 725.494C111.301 726.161 110.87 726.801 110.355 727.321C110.102 727.576 109.747 727.888 109.287 728.142C108.898 728.356 107.994 728.775 106.833 728.566C105.368 728.302 104.476 727.244 104.124 726.257C103.836 725.447 103.896 724.718 103.952 724.336C104.07 723.515 104.407 722.728 104.753 722.068C106.751 718.263 107.802 713.173 108.352 707.611C108.783 703.25 108.887 698.863 108.982 694.829C109.008 693.734 109.034 692.666 109.065 691.631C109.12 689.773 110.671 688.312 112.529 688.368Z" fill="black"/>
<path fill-rule="evenodd" clip-rule="evenodd" d="M95.1907 613.68C96.9936 614.13 98.0897 615.957 97.639 617.76L87.3235 659.022C86.8727 660.825 85.0458 661.921 83.2429 661.471C81.44 661.02 80.3439 659.193 80.7946 657.39L91.1101 616.128C91.5609 614.325 93.3878 613.229 95.1907 613.68Z" fill="black"/>
<path fill-rule="evenodd" clip-rule="evenodd" d="M150.785 649.699C152.634 649.519 154.28 650.872 154.46 652.722C155.077 659.048 155.249 665.398 155.416 671.607L155.424 671.911C155.494 674.502 155.565 677.068 155.666 679.615C156.508 680.227 157.055 681.219 157.055 682.339C157.055 683.192 156.989 686.342 156.874 688.807C156.819 689.973 156.746 691.21 156.634 691.928L156.632 691.938C156.611 692.073 156.546 692.493 156.376 692.921C156.324 693.053 156.223 693.288 156.05 693.551C155.907 693.771 155.527 694.308 154.809 694.693C153.906 695.179 152.785 695.248 151.782 694.781C150.984 694.41 150.558 693.837 150.399 693.603C150.078 693.129 149.949 692.674 149.916 692.558L149.914 692.551C149.86 692.362 149.826 692.19 149.804 692.067C149.759 691.816 149.725 691.539 149.698 691.268C149.046 684.85 148.867 678.403 148.697 672.092L148.692 671.895C148.522 665.612 148.356 659.464 147.762 653.375C147.582 651.525 148.935 649.88 150.785 649.699ZM149.984 690.892C149.976 690.944 149.975 690.935 149.985 690.884C149.985 690.887 149.985 690.889 149.984 690.892Z" fill="black"/>
<path fill-rule="evenodd" clip-rule="evenodd" d="M296.287 650.218C297.85 649.213 299.932 649.665 300.937 651.229C307.426 661.321 313.226 671.866 317.689 683.705C318.762 684.267 319.494 685.391 319.494 686.687C319.494 687.285 319.504 687.755 319.513 688.146C319.515 688.262 319.518 688.371 319.52 688.475C319.523 688.66 319.528 688.935 319.515 689.177L319.515 689.182C319.511 689.272 319.494 689.586 319.403 689.945C319.366 690.092 319.235 690.596 318.853 691.123C318.387 691.763 317.276 692.721 315.634 692.483C314.431 692.308 313.752 691.562 313.607 691.402C313.371 691.142 313.225 690.901 313.164 690.795C313.031 690.567 312.943 690.356 312.906 690.266C312.819 690.055 312.73 689.803 312.656 689.593C312.614 689.471 312.568 689.34 312.519 689.198C312.376 688.784 312.2 688.275 311.965 687.627C307.649 675.737 301.885 665.148 295.276 654.868C294.271 653.305 294.724 651.223 296.287 650.218Z" fill="black"/>
<path fill-rule="evenodd" clip-rule="evenodd" d="M326.952 637.526C328.404 636.365 330.521 636.601 331.682 638.052L341.998 650.946C343.158 652.397 342.923 654.515 341.472 655.676C340.021 656.837 337.903 656.601 336.742 655.15L326.427 642.256C325.266 640.805 325.501 638.687 326.952 637.526Z" fill="black"/>
<path fill-rule="evenodd" clip-rule="evenodd" d="M415.477 673.137C417.201 672.443 419.161 673.277 419.856 675.001C421.023 677.897 421.942 681.186 422.811 684.292C423.223 685.768 423.624 687.202 424.034 688.533C425.386 692.918 426.973 696.772 429.61 699.863C430.816 701.277 430.648 703.4 429.235 704.607C427.821 705.813 425.697 705.645 424.491 704.231C420.946 700.077 419.034 695.155 417.603 690.516C417.071 688.791 416.617 687.158 416.182 685.593C415.383 682.723 414.648 680.082 413.614 677.516C412.919 675.792 413.754 673.832 415.477 673.137Z" fill="black"/>
<path fill-rule="evenodd" clip-rule="evenodd" d="M293.384 734.815C295.227 735.055 296.526 736.744 296.285 738.587C295.968 741.018 295.957 743.421 296.022 745.897C296.039 746.523 296.061 747.167 296.083 747.822C296.147 749.663 296.213 751.584 296.163 753.416C296.023 758.606 294.957 763.962 290.206 768.862C288.913 770.196 286.782 770.228 285.448 768.935C284.114 767.641 284.081 765.511 285.375 764.177C288.511 760.942 289.321 757.501 289.436 753.234C289.48 751.625 289.424 750.014 289.363 748.248C289.339 747.551 289.315 746.829 289.295 746.074C289.226 743.491 289.226 740.672 289.612 737.716C289.852 735.873 291.541 734.574 293.384 734.815Z" fill="black"/>
<path fill-rule="evenodd" clip-rule="evenodd" d="M247.708 771.195C249.399 770.423 251.395 771.167 252.167 772.857C254.563 778.101 257.087 783.098 259.804 788.13C260.687 789.765 260.078 791.807 258.442 792.69C256.807 793.573 254.766 792.963 253.883 791.328C251.107 786.188 248.514 781.055 246.046 775.654C245.274 773.964 246.018 771.967 247.708 771.195Z" fill="black"/>
<path fill-rule="evenodd" clip-rule="evenodd" d="M72.7912 719.732C74.4186 720.629 75.0104 722.676 74.1131 724.303C69.4606 732.741 66.941 741.366 64.2558 750.559C63.3754 753.573 62.4771 756.649 61.48 759.798C60.9191 761.57 59.0281 762.551 57.2564 761.99C55.4847 761.43 54.5032 759.539 55.0641 757.767C55.9601 754.937 56.7984 752.063 57.6434 749.166C60.3738 739.806 63.1747 730.203 68.2198 721.053C69.1171 719.426 71.1638 718.834 72.7912 719.732Z" fill="black"/>
<path fill-rule="evenodd" clip-rule="evenodd" d="M391.76 750.76C393.342 749.785 395.415 750.277 396.39 751.859C396.88 752.654 397.375 753.453 397.872 754.256C401.551 760.194 405.369 766.358 408.4 772.922C408.522 773.186 408.616 773.486 408.647 773.582C408.649 773.588 408.65 773.594 408.652 773.598C408.652 773.599 408.652 773.599 408.652 773.6C409.347 774.216 409.785 775.116 409.785 776.117C409.785 776.43 409.776 776.925 409.668 777.416L409.667 777.418C409.628 777.596 409.483 778.26 408.972 778.903C408.676 779.276 408.152 779.773 407.341 780.035C406.49 780.309 405.69 780.206 405.09 779.979C404.13 779.617 403.621 778.93 403.51 778.779C403.508 778.776 403.506 778.773 403.504 778.771C403.317 778.519 403.191 778.283 403.122 778.146C402.978 777.859 402.865 777.566 402.789 777.357C402.629 776.919 402.475 776.411 402.37 776.067C402.361 776.039 402.353 776.013 402.346 775.987C402.299 775.835 402.264 775.72 402.235 775.626C402.234 775.622 402.232 775.619 402.231 775.615C399.394 769.499 395.831 763.745 392.157 757.811C391.66 757.008 391.161 756.201 390.661 755.39C389.686 753.808 390.178 751.735 391.76 750.76ZM402.204 775.531C402.204 775.531 402.205 775.535 402.208 775.543C402.205 775.535 402.204 775.531 402.204 775.531ZM403.052 776.249C403.052 776.249 403.052 776.244 403.053 776.236C403.053 776.245 403.052 776.249 403.052 776.249Z" fill="black"/>
<path fill-rule="evenodd" clip-rule="evenodd" d="M378.764 688.932C380.311 687.901 382.4 688.319 383.431 689.865L388.588 697.602C389.619 699.148 389.201 701.237 387.655 702.268C386.109 703.299 384.02 702.881 382.989 701.335L377.831 693.598C376.8 692.052 377.218 689.963 378.764 688.932Z" fill="black"/>
<path fill-rule="evenodd" clip-rule="evenodd" d="M463.204 609.568C464.429 608.171 466.555 608.031 467.953 609.256C475.792 616.126 482.261 623.619 486.845 633.591C487.621 635.28 486.881 637.278 485.192 638.054C483.504 638.83 481.506 638.09 480.73 636.401C476.655 627.534 470.881 620.77 463.517 614.317C462.12 613.092 461.98 610.966 463.204 609.568Z" fill="black"/>
<path fill-rule="evenodd" clip-rule="evenodd" d="M472.319 678.255C474.064 677.618 475.996 678.516 476.634 680.261C477.203 681.818 477.781 683.383 478.363 684.956C481.541 693.548 484.81 702.387 487.057 711.562C487.499 713.367 486.394 715.189 484.589 715.631C482.784 716.073 480.962 714.968 480.52 713.163C478.373 704.394 475.258 695.968 472.08 687.369C471.491 685.777 470.9 684.178 470.313 682.571C469.675 680.825 470.573 678.893 472.319 678.255Z" fill="black"/>
<path fill-rule="evenodd" clip-rule="evenodd" d="M458.426 722.667C459.856 721.481 461.978 721.678 463.164 723.108C463.885 723.977 465.404 726.136 467.207 728.699C467.347 728.898 467.488 729.1 467.632 729.303C469.686 732.224 472.187 735.77 474.698 739.164C477.223 742.578 479.695 745.75 481.693 747.955C482.698 749.063 483.474 749.804 484.003 750.207C485.189 750.285 486.297 750.991 486.834 752.144C487.62 753.828 486.891 755.83 485.207 756.615C483.818 757.263 482.515 756.928 481.838 756.671C481.111 756.395 480.469 755.972 479.961 755.588C478.924 754.804 477.808 753.689 476.707 752.474C474.473 750.01 471.838 746.614 469.288 743.167C466.724 739.7 464.18 736.094 462.128 733.176L462.002 732.998C459.949 730.079 458.527 728.059 457.985 727.406C456.799 725.975 456.996 723.854 458.426 722.667Z" fill="black"/>
<path fill-rule="evenodd" clip-rule="evenodd" d="M135.033 732.262C136.861 731.929 138.614 733.14 138.948 734.968C139.896 740.16 140.757 745.347 141.544 750.542C141.822 752.379 140.558 754.094 138.721 754.373C136.883 754.651 135.168 753.387 134.89 751.55C134.112 746.417 133.263 741.298 132.328 736.177C131.994 734.349 133.205 732.596 135.033 732.262Z" fill="black"/>
<path fill-rule="evenodd" clip-rule="evenodd" d="M313.919 364.28C315.307 363.044 317.434 363.166 318.67 364.554C324.663 371.279 329.307 378.066 334.144 385.137C334.232 385.266 334.32 385.395 334.408 385.523C335.458 387.057 335.065 389.151 333.531 390.201C331.998 391.25 329.904 390.857 328.854 389.324L328.685 389.076C323.783 381.911 319.349 375.432 313.646 369.031C312.409 367.644 312.532 365.517 313.919 364.28Z" fill="black"/>
<path fill-rule="evenodd" clip-rule="evenodd" d="M259.35 471.741C261.208 471.7 262.747 473.173 262.789 475.031C262.956 482.547 264.081 489.781 265.285 497.52L265.328 497.798C265.614 499.635 264.357 501.355 262.521 501.64C260.684 501.926 258.964 500.669 258.678 498.833C258.654 498.678 258.63 498.522 258.606 498.367C257.422 490.761 256.237 483.146 256.06 475.18C256.019 473.322 257.492 471.783 259.35 471.741Z" fill="black"/>
<path fill-rule="evenodd" clip-rule="evenodd" d="M146.181 510.432C148.035 510.558 149.435 512.164 149.309 514.018C148.707 522.852 147.794 531.34 146.712 539.995C146.481 541.839 144.8 543.147 142.956 542.916C141.112 542.686 139.804 541.004 140.034 539.16C141.107 530.579 142.004 522.226 142.595 513.56C142.721 511.706 144.327 510.305 146.181 510.432Z" fill="black"/>
<path fill-rule="evenodd" clip-rule="evenodd" d="M209.44 559.57C211.217 559.026 213.099 560.025 213.643 561.801C213.815 562.361 214.174 563.656 214.633 565.316C214.826 566.012 215.037 566.772 215.259 567.569C216.025 570.32 216.956 573.615 217.855 576.586C218.457 578.577 219.022 580.341 219.497 581.681C220.692 582.198 221.528 583.387 221.528 584.771C221.528 585.27 221.506 585.932 221.349 586.554C221.28 586.828 221.094 587.489 220.564 588.116C219.866 588.943 218.634 589.588 217.19 589.291C216.137 589.074 215.498 588.443 215.287 588.224C215.006 587.932 214.805 587.636 214.676 587.432C214.414 587.013 214.187 586.537 213.999 586.108C213.252 584.401 212.317 581.52 211.414 578.535C210.492 575.489 209.545 572.136 208.776 569.375C208.528 568.483 208.301 567.664 208.1 566.939C207.665 565.37 207.352 564.241 207.209 563.774C206.665 561.997 207.663 560.115 209.44 559.57Z" fill="black"/>
<path fill-rule="evenodd" clip-rule="evenodd" d="M263.232 670.598C264.934 669.851 266.919 670.625 267.666 672.327C268.398 673.995 269.176 675.701 269.971 677.442C272.435 682.842 275.052 688.579 276.92 694.57C277.692 695.184 278.189 696.131 278.192 697.194C278.192 697.191 278.192 697.19 278.192 697.19C278.192 697.19 278.193 697.225 278.198 697.319C278.202 697.403 278.207 697.5 278.213 697.614C278.215 697.649 278.217 697.686 278.219 697.724C278.234 698.029 278.255 698.436 278.262 698.792C278.266 698.965 278.267 699.181 278.258 699.392C278.253 699.495 278.244 699.651 278.22 699.827C278.219 699.829 278.219 699.833 278.218 699.836C278.205 699.937 278.143 700.401 277.9 700.908C277.79 701.135 277.407 701.892 276.502 702.4C275.285 703.084 274 702.869 273.151 702.376C272.5 701.999 272.152 701.506 272.04 701.342C271.89 701.121 271.794 700.925 271.742 700.813C271.569 700.436 271.468 700.041 271.421 699.855C269.749 693.195 266.909 686.962 263.988 680.554C263.158 678.732 262.322 676.896 261.503 675.032C260.756 673.33 261.53 671.345 263.232 670.598ZM277.971 698.3C277.971 698.301 277.969 698.293 277.964 698.276C277.969 698.291 277.971 698.3 277.971 698.3Z" fill="black"/>
<path fill-rule="evenodd" clip-rule="evenodd" d="M230.416 386.699C232.241 386.346 234.006 387.539 234.359 389.364C237.359 404.879 240.093 420.305 242.128 435.989C242.368 437.832 241.068 439.52 239.225 439.759C237.382 439.998 235.694 438.698 235.455 436.855C233.444 421.369 230.74 406.096 227.751 390.641C227.398 388.817 228.592 387.051 230.416 386.699Z" fill="black"/>
<path fill-rule="evenodd" clip-rule="evenodd" d="M318.318 417.611C320.162 417.378 321.845 418.684 322.078 420.528C322.582 424.526 323.168 428.473 323.759 432.456C324.058 434.466 324.358 436.485 324.649 438.525C324.912 440.365 323.634 442.069 321.794 442.332C319.954 442.595 318.25 441.317 317.987 439.477C317.707 437.516 317.413 435.537 317.117 433.545C316.519 429.516 315.914 425.438 315.401 421.37C315.168 419.526 316.475 417.843 318.318 417.611Z" fill="black"/>
<path fill-rule="evenodd" clip-rule="evenodd" d="M193.842 602.345C195.7 602.345 197.207 603.851 197.207 605.71C197.207 621.888 196.218 637.99 193.884 654.069C193.65 655.684 193.219 657.98 192.456 660.108C192.074 661.174 191.572 662.301 190.902 663.311C190.243 664.304 189.295 665.374 187.95 666.047C186.287 666.878 184.266 666.204 183.435 664.542C182.607 662.886 183.273 660.873 184.922 660.036C184.932 660.028 185.071 659.927 185.295 659.59C185.565 659.182 185.849 658.595 186.121 657.837C186.666 656.317 187.018 654.523 187.224 653.102C189.505 637.389 190.477 621.614 190.477 605.71C190.477 603.851 191.983 602.345 193.842 602.345Z" fill="black"/>
<path fill-rule="evenodd" clip-rule="evenodd" d="M256.594 615.019C258.338 615.661 259.232 617.594 258.59 619.339C256.641 624.639 253.534 634.63 251.887 644.697C251.063 649.731 250.622 654.676 250.835 659.007C251.051 663.398 251.922 666.804 253.41 669.058C254.433 670.609 254.006 672.696 252.455 673.72C250.904 674.743 248.817 674.316 247.793 672.765C245.346 669.058 244.355 664.252 244.113 659.338C243.869 654.364 244.378 648.91 245.245 643.61C246.98 633.011 250.222 622.595 252.274 617.016C252.916 615.272 254.849 614.378 256.594 615.019Z" fill="black"/>
<path fill-rule="evenodd" clip-rule="evenodd" d="M323.288 585.701C325.146 585.701 326.653 587.208 326.653 589.066V626.052C326.653 627.91 325.146 629.417 323.288 629.417C321.429 629.417 319.923 627.91 319.923 626.052V589.066C319.923 587.208 321.429 585.701 323.288 585.701Z" fill="black"/>
<path fill-rule="evenodd" clip-rule="evenodd" d="M406.583 626.386C408.44 626.428 409.912 627.969 409.87 629.827C409.73 635.998 407.69 641.87 405.903 647.013L405.891 647.048C404.022 652.428 402.474 656.929 402.474 661.188C402.474 663.046 400.967 664.553 399.109 664.553C397.251 664.553 395.744 663.046 395.744 661.188C395.744 655.737 397.649 650.261 399.375 645.297C399.428 645.144 399.481 644.991 399.534 644.839C401.38 639.526 403.029 634.631 403.142 629.674C403.184 627.816 404.725 626.344 406.583 626.386Z" fill="black"/>
<path fill-rule="evenodd" clip-rule="evenodd" d="M182.394 407.415C184.098 408.156 184.879 410.138 184.138 411.842C183.994 412.173 183.491 413.09 182.89 414.151C182.227 415.321 181.302 416.913 180.186 418.75C177.962 422.413 174.949 427.104 171.726 431.374C168.581 435.543 164.964 439.686 161.497 441.89C159.783 442.98 157.568 443.944 155.192 443.588C152.551 443.191 150.755 441.354 149.673 439.067C148.878 437.387 149.596 435.381 151.276 434.586C152.956 433.791 154.962 434.509 155.756 436.189C155.976 436.653 156.144 436.853 156.233 436.932C156.376 436.923 156.89 436.844 157.887 436.211C160.245 434.712 163.244 431.444 166.354 427.321C169.388 423.3 172.271 418.819 174.434 415.257C175.512 413.481 176.403 411.948 177.035 410.832C177.483 410.043 177.755 409.542 177.882 409.308C177.952 409.179 177.979 409.131 177.966 409.159C178.707 407.455 180.69 406.674 182.394 407.415ZM156.303 436.975C156.302 436.979 156.284 436.973 156.25 436.946C156.287 436.958 156.304 436.971 156.303 436.975Z" fill="black"/>
<path fill-rule="evenodd" clip-rule="evenodd" d="M134.429 471.46C136.059 472.352 136.658 474.397 135.766 476.027C132.533 481.934 128.046 489.786 122.833 497.188C117.665 504.528 111.584 511.718 105.092 516.046C103.546 517.077 101.457 516.659 100.426 515.113C99.395 513.567 99.8128 511.477 101.359 510.447C106.791 506.825 112.292 500.469 117.331 493.313C122.325 486.221 126.67 478.63 129.862 472.797C130.754 471.166 132.799 470.568 134.429 471.46Z" fill="black"/>
<path fill-rule="evenodd" clip-rule="evenodd" d="M227.063 478.445C228.921 478.409 230.456 479.886 230.492 481.744C230.745 494.895 233.623 507.297 237.717 519.579C238.305 521.342 237.352 523.248 235.589 523.836C233.826 524.423 231.92 523.471 231.332 521.708C227.111 509.043 224.034 495.935 223.763 481.874C223.728 480.016 225.205 478.48 227.063 478.445Z" fill="black"/>
<path fill-rule="evenodd" clip-rule="evenodd" d="M391.657 484.582C393.189 483.531 395.283 483.92 396.335 485.453C397.96 487.821 399.68 490.626 401.449 493.511C401.55 493.676 401.651 493.841 401.753 494.007C403.65 497.1 405.626 500.306 407.721 503.378C411.988 509.636 416.41 514.816 421.025 517.259C421.783 517.66 422.665 518.352 423.382 518.957C424.169 519.621 425.023 520.408 425.778 521.172C426.49 521.894 427.27 522.75 427.784 523.529C427.921 523.737 428.081 524.001 428.221 524.303C428.342 524.565 428.551 525.071 428.6 525.717C428.653 526.413 428.523 527.63 427.488 528.595C426.555 529.465 425.481 529.556 424.998 529.556C423.282 529.556 421.866 528.271 421.659 526.611C421.479 526.41 421.256 526.171 420.99 525.901C420.38 525.284 419.676 524.636 419.043 524.101C418.727 523.835 418.446 523.612 418.218 523.443C418.01 523.289 417.902 523.223 417.879 523.208C417.874 523.206 417.873 523.205 417.876 523.206C411.685 519.929 406.479 513.503 402.161 507.169C399.962 503.945 397.907 500.609 396.016 497.525C395.927 497.38 395.839 497.236 395.751 497.093C393.945 494.147 392.31 491.481 390.786 489.261C389.735 487.728 390.124 485.634 391.657 484.582Z" fill="black"/>
<path fill-rule="evenodd" clip-rule="evenodd" d="M363.881 386.598C365.398 385.525 367.498 385.886 368.571 387.403C371.385 391.384 373.888 395.898 376.298 400.245C376.761 401.08 377.221 401.91 377.679 402.728C380.58 407.911 383.444 412.724 386.848 416.615C387.244 417.067 387.702 417.579 388.191 418.124C389.077 419.113 390.061 420.211 390.942 421.257C392.329 422.907 393.782 424.795 394.723 426.675C395.554 428.337 394.88 430.359 393.218 431.19C391.556 432.021 389.534 431.347 388.703 429.685C388.135 428.549 387.114 427.161 385.792 425.59C384.961 424.602 384.136 423.682 383.311 422.763C382.802 422.196 382.293 421.629 381.784 421.047C377.869 416.573 374.71 411.203 371.806 406.015C371.318 405.143 370.838 404.278 370.363 403.421C367.95 399.072 365.658 394.941 363.075 391.288C362.003 389.77 362.363 387.67 363.881 386.598Z" fill="black"/>
<path fill-rule="evenodd" clip-rule="evenodd" d="M52.8048 684.212C53.3658 685.984 52.3844 687.875 50.6127 688.436C35.8106 693.123 18.2997 701.507 5.23175 710.219C3.68549 711.25 1.59633 710.832 0.565489 709.286C-0.465352 707.74 -0.047521 705.65 1.49874 704.62C15.0933 695.556 33.1771 686.898 48.5811 682.02C50.3527 681.459 52.2438 682.441 52.8048 684.212Z" fill="black"/>
<path fill-rule="evenodd" clip-rule="evenodd" d="M72.5776 625.814C73.7303 627.272 73.4829 629.388 72.0252 630.54C70.2986 631.906 68.3408 633.663 66.1183 635.658C65.9005 635.854 65.6801 636.052 65.4571 636.252C63.0014 638.454 60.2862 640.867 57.452 643.09C51.9538 647.404 45.2888 651.608 38.5006 651.608C36.6423 651.608 35.1357 650.101 35.1357 648.243C35.1357 646.384 36.6423 644.878 38.5006 644.878C42.7908 644.878 47.8463 642.073 53.2982 637.796C55.9389 635.724 58.5062 633.446 60.9636 631.242C61.1932 631.036 61.4224 630.83 61.651 630.625C63.8272 628.671 65.9485 626.766 67.8511 625.261C69.3089 624.109 71.425 624.356 72.5776 625.814Z" fill="black"/>
<path fill-rule="evenodd" clip-rule="evenodd" d="M78.0981 669.966C79.956 670.008 81.4287 671.547 81.3874 673.405C80.8439 697.861 66.0954 708.846 49.7883 720.991C48.8163 721.715 47.8386 722.443 46.8582 723.179C45.2706 724.369 41.7357 726.668 38.4491 727.948C36.9249 728.542 34.8128 729.183 32.8394 728.836C31.7217 728.64 30.4811 728.092 29.5705 726.914C28.6914 725.776 28.4268 724.444 28.4268 723.261C28.4268 721.402 29.9333 719.896 31.7916 719.896C33.2201 719.896 34.4406 720.786 34.9289 722.042C35.2413 721.956 35.6016 721.835 36.0064 721.678C38.5186 720.699 41.5074 718.78 42.8203 717.795C43.6596 717.165 44.4889 716.546 45.3072 715.934C62.0253 703.444 74.1904 694.356 74.6593 673.256C74.7005 671.398 76.2401 669.925 78.0981 669.966ZM35.1598 723.343C35.1598 723.344 35.1596 723.342 35.1594 723.34C35.1597 723.342 35.1599 723.343 35.1598 723.343Z" fill="black"/>
<path fill-rule="evenodd" clip-rule="evenodd" d="M180.033 737.453C181.829 736.978 183.671 738.049 184.147 739.845C189.311 759.354 193.487 773.754 210.138 782.079C211.8 782.91 212.474 784.931 211.643 786.593C210.812 788.256 208.79 788.929 207.128 788.098C187.422 778.245 182.713 760.727 177.641 741.567C177.166 739.771 178.236 737.929 180.033 737.453Z" fill="black"/>
<path fill-rule="evenodd" clip-rule="evenodd" d="M330.685 709.602C332.543 709.602 334.05 711.109 334.05 712.967C334.05 714.15 334.109 715.765 334.178 717.68C334.376 723.126 334.662 731.006 333.94 738.333C333.447 743.346 332.465 748.458 330.522 752.726C328.565 757.024 325.474 760.784 320.654 762.391C318.89 762.979 316.985 762.026 316.397 760.263C315.81 758.5 316.762 756.594 318.525 756.007C320.977 755.189 322.91 753.204 324.397 749.937C325.898 746.64 326.781 742.366 327.243 737.673C327.916 730.845 327.662 723.877 327.465 718.484C327.388 716.368 327.32 714.495 327.32 712.967C327.32 711.109 328.827 709.602 330.685 709.602Z" fill="black"/>
<path fill-rule="evenodd" clip-rule="evenodd" d="M399.998 711.115C401.021 709.564 403.108 709.135 404.659 710.158C409.557 713.386 414.106 717.797 418.412 721.974C419.306 722.841 420.19 723.698 421.065 724.532C426.32 729.548 431.344 733.866 436.953 736.152C439.652 737.251 442.129 739.308 444.086 740.932C444.491 741.269 444.875 741.587 445.233 741.875C447.661 743.822 449.303 744.738 450.889 744.738C452.747 744.738 454.253 746.245 454.253 748.103C454.253 749.962 452.747 751.468 450.889 751.468C446.723 751.468 443.427 749.053 441.023 747.125C440.461 746.675 439.94 746.245 439.447 745.84C437.532 744.265 436.061 743.055 434.414 742.384C427.507 739.57 421.679 734.42 416.419 729.401C415.449 728.476 414.501 727.557 413.566 726.653C409.268 722.49 405.275 718.623 400.956 715.777C399.404 714.754 398.975 712.667 399.998 711.115Z" fill="black"/>
<path fill-rule="evenodd" clip-rule="evenodd" d="M356.574 716.999C358.432 716.999 359.939 718.506 359.939 720.364V767.724C356.574 771.089 353.209 767.724 353.209 767.724V720.364C353.209 718.506 354.715 716.999 356.574 716.999Z" fill="black"/>
<path fill-rule="evenodd" clip-rule="evenodd" d="M437.183 625.777C438.356 624.335 440.476 624.118 441.917 625.291C448.827 630.916 455.235 636.843 461.491 642.628C463.238 644.244 464.973 645.849 466.703 647.433C474.681 654.735 482.638 661.667 491.589 667.634C493.136 668.665 493.554 670.754 492.523 672.301C491.492 673.847 489.403 674.265 487.856 673.234C478.458 666.968 470.19 659.748 462.16 652.398C460.373 650.762 458.601 649.123 456.831 647.487C450.6 641.724 444.397 635.987 437.669 630.511C436.227 629.337 436.01 627.218 437.183 625.777Z" fill="black"/>
<path fill-rule="evenodd" clip-rule="evenodd" d="M132.813 602.345C134.672 602.345 136.178 603.851 136.178 605.71C136.178 621.954 134.911 635.004 128.952 649.903C128.026 652.217 126.644 653.962 125.519 655.34C125.422 655.458 125.328 655.573 125.236 655.685C124.184 656.971 123.429 657.892 122.878 658.994C122.047 660.656 120.026 661.33 118.364 660.499C116.702 659.668 116.028 657.647 116.859 655.984C117.768 654.167 119.008 652.66 119.988 651.471C120.098 651.338 120.204 651.208 120.307 651.083C121.399 649.746 122.191 648.683 122.703 647.404C128.215 633.624 129.449 621.534 129.449 605.71C129.449 603.851 130.955 602.345 132.813 602.345Z" fill="black"/>
<path fill-rule="evenodd" clip-rule="evenodd" d="M140.23 771.193C141.776 772.224 142.194 774.313 141.163 775.859C138.111 780.437 134.198 784.955 130.434 789.299C129.723 790.121 129.017 790.936 128.323 791.744C123.853 796.951 119.842 801.915 117.332 806.935C116.501 808.597 114.48 809.271 112.818 808.44C111.156 807.609 110.482 805.588 111.313 803.926C114.238 798.075 118.766 792.544 123.217 787.36C123.955 786.5 124.691 785.65 125.42 784.808C129.188 780.455 132.769 776.318 135.563 772.126C136.594 770.58 138.683 770.162 140.23 771.193Z" fill="black"/>
<path fill-rule="evenodd" clip-rule="evenodd" d="M284.836 546.315C286.694 546.315 288.201 547.822 288.201 549.68C288.201 551.197 288.207 552.72 288.213 554.25C288.276 569.811 288.341 585.981 281.992 601.501C281.059 603.78 280.005 606.006 278.999 608.128C278.759 608.635 278.521 609.136 278.289 609.63C277.061 612.244 275.942 614.742 275.083 617.318C274.496 619.081 272.59 620.034 270.827 619.446C269.064 618.858 268.111 616.953 268.699 615.19C269.69 612.217 270.952 609.421 272.198 606.768C272.451 606.229 272.703 605.698 272.952 605.173C273.95 603.065 274.906 601.047 275.763 598.953C281.579 584.737 281.531 569.908 281.481 554.126C281.476 552.652 281.471 551.171 281.471 549.68C281.471 547.822 282.978 546.315 284.836 546.315Z" fill="black"/>
<path fill-rule="evenodd" clip-rule="evenodd" d="M363.971 618.988C365.829 618.988 367.335 620.495 367.335 622.353C367.335 623.419 367.337 624.479 367.339 625.532C367.359 638.011 367.377 649.585 364.574 659.519C361.434 670.651 354.791 679.71 341.435 686.389C339.773 687.22 337.752 686.546 336.92 684.884C336.089 683.222 336.763 681.2 338.425 680.369C350.097 674.533 355.474 666.99 358.097 657.692C360.633 648.705 360.621 638.071 360.608 625.25C360.607 624.296 360.606 623.331 360.606 622.353C360.606 620.495 362.112 618.988 363.971 618.988Z" fill="black"/>
<path fill-rule="evenodd" clip-rule="evenodd" d="M315.979 499.283C317.563 498.311 319.635 498.807 320.607 500.391C325.37 508.152 330.743 513.927 336.592 520.214C339.052 522.859 341.597 525.595 344.216 528.606C345.202 529.74 346.108 531.012 346.933 532.199C347.11 532.453 347.282 532.702 347.452 532.948C348.107 533.896 348.722 534.786 349.372 535.644C351.048 537.852 352.471 539.153 353.94 539.642C355.703 540.23 356.655 542.136 356.068 543.899C355.48 545.662 353.574 546.615 351.811 546.027C348.3 544.856 345.835 542.115 344.011 539.711C343.261 538.723 342.538 537.675 341.874 536.715C341.715 536.484 341.559 536.258 341.407 536.039C340.589 534.863 339.863 533.856 339.138 533.022C336.832 530.37 334.465 527.826 332.096 525.277C326.06 518.788 320.005 512.276 314.871 503.911C313.899 502.327 314.396 500.255 315.979 499.283Z" fill="black"/>
<path fill-rule="evenodd" clip-rule="evenodd" d="M423.845 539.622C424.979 538.149 427.092 537.875 428.564 539.009C437.698 546.044 448.076 554.864 453.801 566.063C453.912 566.28 454.017 566.486 454.117 566.682C454.923 568.264 455.399 569.198 455.989 570.036C456.572 570.865 457.311 571.65 458.767 572.722C460.264 573.824 460.584 575.93 459.482 577.427C458.38 578.923 456.274 579.244 454.777 578.142C452.871 576.738 451.572 575.454 450.484 573.908C449.599 572.65 448.888 571.249 448.129 569.756C448.023 569.548 447.917 569.338 447.809 569.127C442.833 559.395 433.573 551.361 424.458 544.341C422.985 543.207 422.711 541.094 423.845 539.622Z" fill="black"/>
<path fill-rule="evenodd" clip-rule="evenodd" d="M124.706 533.889C125.561 535.538 124.917 537.569 123.267 538.425C120.31 539.958 117.399 541.517 114.499 543.07C103.645 548.883 92.9505 554.611 80.6258 558.572C77.5489 559.561 74.3865 561.016 71.4437 562.488C69.7815 563.319 67.7603 562.645 66.9292 560.983C66.0981 559.321 66.7719 557.299 68.434 556.468C71.4703 554.95 74.9959 553.313 78.5665 552.165C90.2549 548.408 100.269 543.049 111.042 537.283C114.01 535.695 117.035 534.075 120.169 532.45C121.819 531.595 123.85 532.239 124.706 533.889Z" fill="black"/>
<path d="M407.679 1345C411.791 1346.87 415.882 1348.95 419.884 1351.04C420.518 1351.37 422.413 1352.3 421.891 1351.81C419.995 1350.02 418.539 1347.91 416.712 1346.08" stroke="black" stroke-width="3" stroke-linecap="round" stroke-linejoin="round"/>
<path d="M403.376 1352C406.408 1353.27 409.271 1354.85 412.129 1356.48C413.107 1357.03 419.673 1360.46 414.758 1358.99C409.494 1357.41 404.1 1356.16 398.679 1355.25" stroke="black" stroke-width="3" stroke-linecap="round" stroke-linejoin="round"/>
<path d="M92.3311 1341C86.2308 1341.94 81.0383 1343.54 75.4403 1346.19C75.3051 1346.25 74.49 1346.44 74.719 1346.44C76.6275 1346.44 78.5169 1346.65 80.4191 1346.77C84.5411 1347.04 88.632 1347.36 92.7498 1347.7" stroke="black" stroke-width="3" stroke-linecap="round" stroke-linejoin="round"/>
<path d="M103.913 1356C98.8195 1359.85 84.3313 1372.15 89.9541 1369.12C95.6983 1366.03 101.705 1363.62 107.682 1361.03" stroke="black" stroke-width="3" stroke-linecap="round" stroke-linejoin="round"/>
</svg>
