<?xml version="1.0" standalone="no"?>
<!DOCTYPE svg PUBLIC "-//W3C//DTD SVG 20010904//EN"
 "http://www.w3.org/TR/2001/REC-SVG-20010904/DTD/svg10.dtd">
<svg version="1.0" xmlns="http://www.w3.org/2000/svg"
 width="1280.000000pt" height="734.000000pt" viewBox="0 0 1280.000000 734.000000"
 preserveAspectRatio="xMidYMid meet">
<metadata>
Created by potrace 1.15, written by Peter Selinger 2001-2017
</metadata>
<g transform="translate(0.000000,734.000000) scale(0.100000,-0.100000)"
fill="#000000" stroke="none">
<path d="M9772 7328 c-7 -7 -12 -42 -12 -85 0 -40 -4 -73 -9 -73 -4 0 -11 34
-13 75 -3 42 -8 78 -11 81 -15 16 -65 -13 -142 -81 -46 -41 -92 -75 -102 -75
-10 0 -60 -14 -111 -30 -51 -16 -114 -32 -140 -36 -98 -14 -121 -42 -57 -68
33 -14 35 -18 35 -60 0 -25 -4 -48 -10 -51 -6 -4 -10 9 -10 32 0 43 -13 69
-29 59 -17 -11 -13 -112 6 -154 14 -31 16 -65 14 -217 -1 -99 -3 -205 -4 -235
-1 -90 20 -180 58 -255 36 -69 37 -73 35 -175 -1 -58 3 -283 8 -500 6 -217 11
-546 12 -730 2 -394 6 -441 37 -455 13 -5 23 -21 26 -38 l4 -29 -18 23 c-10
13 -21 20 -26 16 -16 -17 -26 -584 -14 -847 19 -411 31 -808 31 -1057 l0 -233
-42 0 c-39 0 -40 1 -22 14 32 24 7 31 -114 30 -133 0 -232 -11 -232 -25 0 -5
35 -9 78 -10 54 -1 69 -3 52 -9 -14 -4 -40 -8 -57 -9 -18 -1 -33 -5 -33 -10 0
-13 90 -21 236 -21 l132 0 7 -47 c3 -27 13 -58 21 -70 12 -20 12 -23 -4 -32
-42 -22 -147 -40 -277 -45 -77 -4 -169 -9 -204 -13 -64 -6 -64 -6 -57 18 26
83 26 97 -4 604 -5 94 -14 310 -20 482 -6 172 -13 319 -16 328 -5 13 -9 13
-22 3 -14 -11 -15 -10 -8 7 21 50 27 147 24 363 -3 210 -5 234 -20 243 -12 7
-18 22 -18 49 0 38 -14 61 -49 80 -25 13 -31 4 -21 -28 16 -46 30 -456 31
-859 0 -483 15 -1282 23 -1290 17 -18 21 34 23 310 2 349 16 453 26 202 4 -88
7 -244 7 -347 l0 -187 -47 -6 c-66 -8 -121 -24 -166 -46 -21 -11 -42 -17 -47
-14 -6 4 -10 251 -10 663 0 398 4 651 10 642 13 -23 30 -406 38 -843 4 -206
11 -379 15 -383 4 -4 10 -4 15 0 12 13 14 460 3 890 -10 382 -9 410 7 422 16
12 17 -25 25 -619 7 -621 10 -697 26 -697 12 0 21 468 15 847 -6 436 -11 510
-33 529 -14 13 -15 29 -8 142 9 137 3 522 -9 560 -17 58 -24 -20 -24 -290 0
-158 -4 -289 -9 -292 -5 -3 -15 2 -22 11 -11 12 -15 81 -19 302 -5 269 -14
353 -31 291 -4 -14 -7 -152 -8 -308 -1 -164 -5 -281 -10 -278 -5 3 -12 -1 -15
-10 -3 -9 -6 -302 -7 -652 0 -400 -4 -667 -11 -717 -12 -86 -16 -211 -8 -234
3 -7 0 -16 -7 -18 -7 -2 -15 6 -17 19 -6 27 -23 1257 -18 1309 3 30 7 36 23
32 23 -6 24 5 2 29 -9 11 -11 18 -5 18 16 0 15 32 -1 55 -11 15 -12 23 -1 44
13 29 38 698 27 728 -13 34 -24 -33 -34 -207 -6 -96 -14 -224 -18 -285 -8
-108 -8 -107 -9 75 -2 238 11 416 32 439 9 10 16 23 16 29 0 19 -47 25 -92 11
-34 -11 -48 -23 -66 -57 -30 -54 -56 -71 -121 -79 l-52 -6 6 -96 c3 -53 10
-159 15 -236 17 -256 34 -1405 22 -1417 -7 -7 -75 -14 -170 -18 -87 -4 -164
-10 -170 -14 -31 -19 12 -26 168 -26 l169 0 8 -38 c4 -20 7 -118 8 -217 l0
-180 -246 -3 -246 -2 -6 151 c-4 84 -7 234 -7 333 0 100 -7 314 -15 476 -29
560 -39 836 -42 1115 -2 295 -18 864 -28 1000 -3 44 -10 237 -15 428 l-9 348
25 48 c13 27 32 78 41 114 16 60 16 75 0 233 l-17 169 22 30 c38 52 78 138 78
168 0 16 -9 42 -20 57 -12 17 -24 59 -31 106 -17 124 -20 127 -159 143 -101
12 -182 34 -198 54 -5 7 -12 50 -16 97 -7 100 -22 159 -41 166 -25 10 -54 -15
-57 -49 -2 -18 -6 -25 -9 -17 -22 60 -36 110 -30 110 3 0 12 4 19 9 11 6 8 16
-12 46 -14 21 -26 50 -26 66 0 41 -20 79 -49 93 -15 8 -69 24 -121 36 l-95 23
-117 -26 c-176 -39 -468 -162 -468 -197 0 -6 9 -10 19 -10 26 0 30 -16 22 -93
-9 -90 -24 -99 -20 -12 3 57 1 70 -11 70 -17 0 -27 -37 -29 -105 -1 -25 -5
-50 -9 -56 -6 -9 -508 -175 -662 -220 -52 -15 -529 -181 -700 -244 -63 -23
-162 -57 -220 -74 -58 -18 -148 -48 -200 -68 -53 -20 -120 -41 -150 -47 -30
-5 -82 -19 -114 -30 -33 -12 -67 -21 -77 -21 -30 0 -172 -60 -194 -81 -18 -18
-20 -37 -26 -222 -3 -111 -9 -209 -13 -219 -4 -9 -19 -21 -34 -26 -15 -5 -48
-17 -73 -26 -25 -9 -58 -29 -73 -45 -27 -28 -27 -32 -21 -95 4 -36 11 -66 15
-66 5 0 15 -6 23 -14 11 -11 14 -47 14 -156 1 -117 3 -144 17 -159 10 -11 23
-55 31 -107 7 -49 18 -101 25 -115 8 -17 9 -37 3 -60 l-9 -34 -17 45 c-9 25
-19 80 -22 123 -4 42 -11 77 -15 77 -13 0 -30 -68 -30 -115 1 -22 10 -65 21
-95 19 -50 21 -89 29 -410 4 -195 10 -779 11 -1298 4 -830 2 -944 -11 -952 -8
-5 -35 -12 -60 -16 -25 -4 -56 -12 -70 -19 -14 -8 -33 -16 -43 -19 -25 -8 -13
-23 25 -31 24 -6 35 -3 47 13 11 13 34 22 70 26 l54 7 -7 -58 c-8 -75 8 -104
48 -85 45 20 43 -20 38 887 -1 216 2 354 9 375 6 19 15 204 20 410 12 485 15
513 17 140 1 -168 -3 -366 -9 -440 -13 -173 -13 -127 0 -755 12 -557 15 -620
32 -594 7 9 8 249 3 668 -4 422 -3 652 3 648 6 -4 13 -58 17 -122 6 -106 10
-147 37 -320 11 -74 10 -530 -1 -495 -4 14 -9 108 -10 210 -1 138 -4 179 -12
160 -15 -38 -3 -450 16 -525 9 -33 16 -80 17 -105 1 -59 12 -89 25 -69 5 8 11
403 14 929 4 503 7 866 9 805 1 -60 6 -460 10 -888 6 -571 11 -781 19 -789 9
-9 12 -4 12 22 0 19 7 271 15 560 8 289 15 545 16 570 l1 45 9 -35 c5 -19 8
-282 6 -585 -1 -302 2 -567 6 -588 6 -28 13 -37 25 -35 19 4 30 36 31 101 1
51 17 64 24 20 2 -16 5 187 6 450 0 317 4 476 11 472 6 -3 10 -25 10 -48 1
-242 19 -968 25 -989 18 -69 25 -11 25 222 0 138 4 250 9 250 15 0 21 -69 21
-240 0 -91 5 -205 10 -253 12 -102 6 -120 -46 -142 -69 -28 -14 -47 61 -21 46
16 228 36 324 36 44 0 80 -7 106 -19 l40 -19 -205 -1 c-217 -1 -283 -7 -277
-24 2 -8 64 -10 188 -9 l184 3 -30 -25 -30 -25 77 -1 c43 0 124 -7 180 -15 65
-9 208 -16 388 -18 233 -3 293 -7 331 -20 67 -24 749 -50 749 -28 0 16 -47 21
-258 30 -217 10 -280 19 -207 33 22 4 57 7 78 7 21 1 57 10 80 20 23 10 76 22
117 25 41 4 101 9 134 12 91 9 60 -12 -36 -25 -46 -6 -98 -12 -117 -13 -19 -2
-36 -8 -38 -14 -6 -17 61 -24 157 -18 66 5 108 2 187 -15 110 -23 177 -26 216
-12 15 6 40 6 63 1 60 -14 350 -33 381 -25 27 6 27 7 9 21 -22 16 -35 94 -35
220 -1 52 -5 75 -17 85 -14 11 -14 13 0 21 9 5 16 21 16 35 0 21 -3 23 -14 14
-11 -9 -15 -7 -19 11 -2 13 -4 235 -3 493 2 458 7 534 32 494 5 -8 12 -252 16
-544 4 -369 10 -545 19 -580 7 -27 13 -88 13 -135 1 -78 3 -85 21 -85 19 0 20
6 18 165 -2 91 -7 187 -13 213 -12 58 -13 578 -1 559 13 -21 21 47 23 203 l1
140 8 -130 c3 -71 7 -355 8 -630 1 -466 5 -544 28 -521 11 10 20 559 22 1257
1 759 10 1149 26 1143 18 -7 29 1318 15 1791 -10 345 -17 435 -34 477 -20 47
113 14 256 -63 25 -13 72 -11 86 3 20 20 24 1 6 -34 -9 -18 -35 -60 -58 -93
-32 -47 -41 -56 -44 -40 -18 108 -31 28 -30 -190 0 -212 8 -291 21 -201 4 27
7 70 7 95 1 25 7 57 15 71 14 26 17 23 28 -29 8 -34 -30 -179 -61 -231 -18
-30 -27 -61 -29 -95 -1 -27 -7 -79 -13 -115 -9 -45 -13 -240 -14 -627 -1 -435
-4 -565 -13 -574 -8 -8 -14 -41 -15 -78 -1 -47 -3 -30 -10 59 -10 149 0 1159
13 1275 13 109 32 734 24 754 -16 37 -26 -41 -36 -278 -5 -135 -15 -284 -20
-331 -13 -101 -24 -1285 -14 -1448 4 -69 12 -117 20 -125 14 -14 27 -481 45
-1622 10 -626 16 -772 31 -796 14 -22 11 1180 -3 1494 -17 353 -17 788 0 842
8 28 12 144 12 390 0 535 15 673 41 376 8 -90 9 -365 3 -961 -5 -459 -9 -1096
-9 -1416 l0 -581 28 -40 c34 -49 34 -71 0 -84 -20 -7 -23 -13 -15 -21 9 -9 35
-9 110 0 53 7 144 15 202 18 58 2 129 6 158 9 62 4 62 -10 0 -18 -24 -3 -77
-17 -118 -31 -110 -36 -226 -56 -385 -66 -290 -19 -663 -49 -689 -56 -108 -27
130 -33 377 -9 117 11 162 12 181 4 20 -9 29 -7 56 12 30 23 32 23 44 6 9 -12
27 -17 60 -17 25 0 46 -4 46 -10 0 -5 -6 -10 -12 -10 -7 0 -49 -7 -94 -15 -44
-8 -175 -21 -290 -30 -287 -21 -335 -28 -316 -47 7 -7 75 -7 212 2 208 12 250
10 250 -15 0 -11 -12 -15 -47 -15 -58 0 -93 -9 -93 -23 0 -14 264 -1 358 17
88 18 97 23 81 42 -6 8 -9 17 -6 20 3 3 84 21 179 40 95 19 218 47 273 64 55
16 119 34 142 40 23 6 45 14 48 19 12 20 -30 18 -132 -6 -59 -14 -148 -34
-198 -44 -103 -21 -305 -37 -305 -23 0 10 116 50 175 60 38 6 39 5 20 -10 -19
-15 -18 -15 24 -16 41 0 115 14 311 61 47 11 127 38 177 60 51 21 98 39 105
39 20 0 132 55 146 72 22 28 -10 28 -74 1 -32 -14 -91 -35 -130 -48 -38 -12
-80 -28 -93 -34 -36 -20 -37 -4 -1 17 17 11 58 25 90 31 32 6 75 23 95 36 20
14 43 25 51 25 8 0 41 11 73 25 110 46 136 48 536 50 305 1 399 5 476 18 52 9
163 21 246 26 83 5 156 12 162 16 64 39 -272 31 -463 -11 -90 -19 -266 -31
-266 -17 0 12 26 17 239 44 177 22 201 27 201 42 0 10 -129 5 -223 -9 -32 -5
-39 -4 -31 5 18 20 78 30 252 43 126 9 170 9 195 0 19 -7 82 -12 141 -12 l108
0 -6 25 c-9 37 15 43 138 33 117 -10 126 -7 126 39 0 25 -4 27 -125 47 -50 8
-106 22 -125 29 -19 8 -56 18 -82 21 l-48 7 0 72 c0 40 -11 214 -25 387 -28
368 -42 772 -50 1500 -9 822 -55 1747 -96 1929 -8 37 -7 53 9 90 11 25 28 89
37 143 18 94 18 100 -3 285 -12 103 -22 214 -22 245 0 54 1 57 27 60 31 3 40
26 42 100 1 70 -11 94 -53 102 -20 4 -36 11 -36 17 0 5 -5 53 -10 107 -9 78
-15 100 -32 115 -24 20 -39 22 -56 5z m-77 -135 c-6 -16 -8 -15 -17 7 -5 13
-6 36 -2 50 l7 25 10 -32 c5 -18 6 -40 2 -50z m-55 2 c0 -8 -7 -15 -15 -15
-16 0 -20 12 -8 23 11 12 23 8 23 -8z m-2667 -61 c105 -29 105 -29 87 -96 -14
-50 -28 -56 -41 -19 -13 38 -39 41 -39 6 0 -37 -27 -31 -51 10 -25 41 -39 37
-39 -10 0 -25 6 -37 22 -46 19 -10 20 -12 4 -21 -32 -18 -43 -2 -49 72 -3 40
-9 75 -12 78 -13 13 -20 -17 -25 -106 -4 -63 -9 -91 -14 -79 -10 22 -3 218 8
236 5 7 18 10 30 7 11 -3 65 -17 119 -32z m-203 -65 c0 -44 -4 -68 -10 -64
-18 11 -12 135 7 135 2 0 3 -32 3 -71z m-50 -10 c0 -55 -13 -89 -34 -89 -13 0
-9 56 9 128 9 38 25 14 25 -39z m-75 -6 c-11 -90 -24 -108 -24 -36 -1 66 5 93
21 93 7 0 8 -21 3 -57z m2905 -20 c0 -54 -3 -73 -10 -63 -17 27 -12 140 7 140
2 0 3 -35 3 -77z m-2965 10 c-4 -32 -11 -62 -17 -68 -7 -7 -9 2 -4 30 3 22 6
52 6 68 0 15 5 27 11 27 8 0 9 -18 4 -57z m3034 -5 c1 -39 -9 -63 -20 -46 -10
16 -12 70 -2 94 6 16 7 16 14 -2 4 -10 8 -31 8 -46z m77 40 c-3 -13 -6 -36 -6
-53 0 -33 -15 -63 -26 -52 -11 10 -7 66 7 98 14 34 34 39 25 7z m64 -48 c0
-33 -4 -60 -10 -60 -6 0 -10 27 -10 60 0 33 4 60 10 60 6 0 10 -27 10 -60z
m-3240 -51 c0 -57 -4 -88 -10 -84 -11 7 -14 158 -3 168 12 13 13 7 13 -84z
m2820 25 c0 -41 -4 -63 -10 -59 -18 11 -12 125 7 125 2 0 3 -30 3 -66z m154 4
c5 -39 4 -58 -3 -58 -7 0 -11 24 -11 62 0 74 5 73 14 -4z m-3034 -48 c2 -108
2 -109 -15 -86 -16 21 -20 99 -9 155 11 54 22 21 24 -69z m2820 35 c0 -56 -16
-78 -25 -36 -9 42 3 111 16 90 5 -8 9 -32 9 -54z m-2892 -62 c-2 -79 -6 -98
-18 -98 -19 0 -26 97 -10 155 19 71 31 46 28 -57z m3439 75 c-3 -8 -6 -5 -6 6
-1 11 2 17 5 13 3 -3 4 -12 1 -19z m93 -53 c0 -19 -4 -35 -10 -35 -11 0 -13
30 -4 54 10 25 14 19 14 -19z m-2839 -42 c23 -19 37 -79 45 -193 4 -52 11
-100 16 -107 12 -14 -12 -28 -66 -38 -28 -6 -41 -4 -47 6 -5 8 -9 66 -9 129 0
69 -4 110 -9 105 -14 -15 -31 -121 -31 -194 0 -118 -15 -52 -20 89 -3 91 -9
143 -17 151 -7 7 -15 10 -18 7 -3 -3 -1 -55 4 -115 6 -63 6 -123 1 -139 -4
-16 -9 -22 -9 -14 -16 213 -23 266 -37 288 l-16 25 33 -6 c19 -3 56 -9 83 -13
49 -7 49 -7 42 19 -5 22 -3 24 17 20 12 -3 29 -12 38 -20z m2672 -14 c75 -11
81 -16 62 -42 -11 -16 -14 -37 -10 -82 3 -33 12 -136 20 -230 16 -174 14 -189
-20 -269 -19 -44 -17 -66 14 -181 29 -107 38 -201 56 -591 8 -181 20 -381 26
-444 10 -115 32 -2130 23 -2139 -2 -3 -10 1 -17 8 -9 9 -13 201 -18 829 -9
1111 -9 1114 -21 1073 -5 -19 -13 -30 -18 -25 -4 5 -12 282 -17 615 -6 333
-14 612 -19 620 -16 26 -22 -77 -24 -426 -3 -418 -12 -539 -23 -291 -4 93 -7
281 -7 417 0 136 -4 250 -9 253 -17 11 -26 -225 -22 -554 15 -1235 2 -2409
-30 -2645 -13 -93 -24 -551 -15 -599 4 -21 11 -35 15 -30 5 5 13 144 20 309
11 304 16 350 33 339 6 -4 8 -125 7 -315 -3 -281 0 -333 17 -317 26 26 29 662
5 868 -13 110 4 1849 19 1863 4 5 11 -24 15 -65 4 -40 13 -88 21 -107 12 -27
14 -163 14 -760 0 -693 -3 -807 -39 -1646 -11 -236 -6 -223 -98 -252 -29 -9
-53 -20 -53 -25 0 -4 26 -8 58 -9 59 -1 48 -9 -30 -22 -36 -5 -36 -5 -47 38
-13 52 -13 451 -1 540 5 33 14 256 20 495 13 554 27 860 39 893 6 15 6 29 2
32 -5 3 -8 448 -7 1006 1 550 -2 1005 -6 1012 -23 38 -28 -124 -38 -1253 -9
-966 -22 -1565 -50 -2190 -6 -129 -10 -304 -9 -388 1 -97 -2 -157 -9 -164 -16
-16 -20 43 -27 347 -3 149 -10 274 -16 280 -5 5 -9 38 -10 75 0 36 -4 74 -8
85 -7 16 -9 14 -14 -14 -4 -19 -7 -56 -7 -83 0 -27 -7 -84 -16 -126 -14 -65
-16 -120 -10 -348 5 -247 4 -273 -11 -278 -33 -13 -37 9 -25 136 7 81 8 147 2
193 -4 38 -5 76 0 85 4 8 10 112 13 230 3 125 10 233 18 259 10 35 10 107 0
350 -14 372 -14 543 -1 520 14 -23 28 -258 35 -573 3 -148 8 -273 11 -278 3
-5 12 -4 19 2 7 6 19 9 26 8 10 -2 13 70 13 357 1 227 6 404 14 480 15 129 21
909 12 1500 -2 176 1 478 8 670 13 366 20 465 32 465 4 0 9 -59 12 -130 3 -72
8 -133 11 -137 16 -16 22 16 21 120 -1 155 -22 605 -30 646 -6 32 -6 34 17 27
13 -4 50 -12 82 -17z m-144 -7 c10 -19 31 -158 30 -200 0 -25 -2 -24 -19 13
-10 22 -22 61 -25 86 -8 48 -20 77 -29 68 -13 -12 -26 -117 -26 -203 -1 -69
-3 -87 -11 -73 -7 11 -10 58 -7 115 2 59 -1 98 -7 100 -24 8 -28 -68 -15 -328
7 -148 10 -276 6 -285 -12 -31 -24 -5 -31 67 -4 40 -13 82 -21 93 -10 16 -11
42 -4 120 5 55 9 168 10 251 0 167 0 167 66 183 59 14 72 13 83 -7z m-2855
-11 c16 -17 16 -33 4 -217 -11 -164 -16 -199 -28 -199 -13 0 -15 29 -18 185
-3 184 2 250 17 250 4 0 16 -8 25 -19z m2634 -21 c38 -23 39 -30 10 -63 -20
-23 -23 -23 -34 -9 -11 15 -13 14 -22 -8 -6 -14 -15 -87 -21 -163 -6 -76 -15
-146 -21 -155 -7 -14 -9 -11 -10 16 0 17 -4 32 -10 32 -11 0 -14 -219 -3 -259
6 -23 7 -23 14 -5 4 10 8 52 8 92 1 39 5 72 10 72 11 0 21 -50 21 -107 0 -36
4 -46 20 -50 15 -4 20 -14 20 -39 0 -28 -5 -36 -27 -45 -25 -9 -31 -7 -56 23
-52 62 -61 118 -54 348 8 237 14 275 57 313 36 32 54 34 98 7z m-2720 -205 c0
-60 -3 -132 -7 -160 l-7 -50 -7 79 c-15 170 -3 419 14 291 4 -27 7 -99 7 -160z
m-68 -2 c0 -196 -10 -273 -24 -177 -8 60 -8 233 0 313 13 121 24 57 24 -136z
m229 25 c1 -70 -4 -139 -10 -155 -10 -26 -11 -27 -21 -9 -12 21 -5 286 8 321
8 19 9 18 15 -5 4 -14 7 -82 8 -152z m-300 -65 c0 -131 -4 -210 -9 -198 -10
23 -13 399 -3 408 3 4 8 7 10 7 2 0 3 -98 2 -217z m-56 -26 c5 -167 3 -217 -6
-214 -20 6 -25 47 -26 212 -1 163 6 243 19 228 4 -4 10 -106 13 -226z m-73 1
c0 -192 -4 -238 -21 -238 -5 0 -9 85 -9 189 0 175 -8 234 -24 178 -4 -12 -9
-85 -12 -162 -3 -77 -8 -160 -11 -185 -6 -43 -7 -44 -14 -15 -3 17 -7 112 -8
211 l-1 181 38 16 c65 27 62 35 62 -175z m-132 -45 c-1 -109 2 -209 6 -223 7
-21 6 -23 -5 -12 -10 9 -16 62 -21 189 -7 182 -11 209 -28 198 -6 -4 -10 -86
-10 -216 0 -123 -4 -209 -9 -209 -14 0 -20 62 -24 243 -3 143 -8 179 -22 165
-3 -2 -8 -102 -11 -222 -4 -119 -11 -219 -16 -222 -4 -3 -8 88 -8 203 0 204
-7 257 -30 223 -5 -8 -10 -76 -11 -150 0 -74 -4 -146 -9 -160 -15 -51 -25 12
-25 163 0 136 2 150 19 163 11 8 29 14 41 14 12 0 48 11 81 25 32 13 65 24 71
25 10 0 12 -46 11 -197z m621 85 c-1 -126 -16 -107 -18 23 -1 66 3 89 16 89 2
0 2 -51 2 -112z m2525 -168 c-11 -154 -17 -82 -8 99 8 140 10 153 12 81 2 -47
0 -128 -4 -180z m-2187 173 c-3 -10 -5 -4 -5 12 0 17 2 24 5 18 2 -7 2 -21 0
-30z m2645 -295 c-6 -42 -19 -93 -28 -115 -18 -38 -18 -38 -22 -10 -2 17 6 42
20 65 22 35 23 46 22 187 l-1 150 10 -100 c7 -71 7 -122 -1 -177z m-3982 117
c0 -66 3 -157 7 -202 5 -70 9 -83 23 -83 10 0 20 7 24 15 3 8 12 15 21 15 12
0 15 13 16 63 0 34 4 80 8 102 7 31 9 14 10 -73 l1 -113 -36 -15 c-57 -24 -95
-29 -105 -13 -13 20 -11 392 2 426 18 49 29 6 29 -122z m107 73 c-2 -13 -4 -3
-4 22 0 25 2 35 4 23 2 -13 2 -33 0 -45z m-193 -254 c-6 -140 -15 -188 -30
-150 -9 23 3 401 13 436 13 43 23 -132 17 -286z m146 133 c0 -96 -4 -146 -10
-142 -6 4 -10 69 -10 163 0 105 4 152 10 142 5 -8 10 -82 10 -163z m-218 -134
c-4 -169 -12 -221 -25 -158 -2 14 1 121 7 238 13 256 25 202 18 -80z m3907
195 c1 -10 -3 -18 -9 -18 -6 0 -9 25 -9 58 1 56 1 57 10 17 4 -22 8 -48 8 -57z
m-3960 -5 c-4 -43 -8 -144 -8 -225 -1 -100 -5 -148 -12 -148 -13 0 -8 414 5
442 16 35 22 8 15 -69z m1460 14 c-1 -61 -13 -110 -22 -87 -11 31 -15 104 -6
127 14 38 29 17 28 -40z m69 -10 c2 -37 -1 -67 -6 -67 -15 0 -22 27 -22 87 0
39 4 54 13 51 7 -3 13 -29 15 -71z m310 44 c10 -6 12 -21 7 -53 -5 -34 -3 -47
9 -57 14 -12 17 -9 22 18 9 44 22 38 29 -13 10 -62 6 -69 -30 -50 -16 8 -55
21 -85 28 l-55 13 3 56 c3 45 1 57 -11 57 -10 0 -17 -16 -21 -50 -7 -55 -20
-66 -61 -56 -28 7 -59 48 -52 68 3 8 9 1 16 -15 14 -37 31 -26 32 21 1 35 2
34 9 -11 5 -27 11 -52 15 -55 12 -12 25 23 25 66 l0 42 68 0 c37 0 73 -4 80
-9z m72 -6 c0 -8 -4 -15 -10 -15 -5 0 -7 7 -4 15 4 8 8 15 10 15 2 0 4 -7 4
-15z m-520 -71 c0 -35 -4 -64 -9 -64 -16 0 -29 118 -15 133 16 15 24 -9 24
-69z m-1515 -372 c2 -7 9 -10 15 -7 6 4 10 83 11 203 1 108 4 208 8 222 12 38
23 -140 19 -295 l-3 -130 -38 -12 c-21 -7 -56 -16 -77 -19 l-38 -6 -8 58 c-8
71 1 358 13 376 4 7 10 -73 13 -184 4 -138 9 -201 18 -210 6 -6 12 -10 13 -7
1 2 4 99 8 214 10 286 24 297 33 26 4 -118 10 -221 13 -229z m1446 416 c13
-23 6 -125 -9 -140 -5 -5 -11 13 -15 46 -7 69 -17 88 -29 55 -9 -22 -10 -23
-19 -6 -14 24 -5 45 23 57 33 13 36 12 49 -12z m-117 -24 c8 -20 6 -100 -3
-139 l-7 -30 -7 30 c-12 59 -19 134 -12 145 9 15 22 12 29 -6z m-1490 -20 c10
-25 7 -444 -3 -444 -5 0 -11 13 -14 28 -9 44 -21 398 -14 416 8 20 23 21 31 0z
m-69 -48 c9 -57 2 -392 -7 -402 -17 -17 -23 13 -26 142 -7 220 15 385 33 260z
m1465 21 c0 -14 -20 -37 -32 -37 -4 0 -8 7 -8 16 0 11 -6 14 -20 10 -11 -3
-30 -9 -42 -12 -47 -13 -118 -47 -118 -56 0 -10 17 -8 54 8 13 5 17 4 13 -3
-4 -6 -44 -25 -89 -44 -46 -18 -93 -39 -105 -47 -15 -9 -33 -12 -50 -7 -26 6
-24 8 27 24 69 22 120 48 120 62 0 7 -11 8 -30 4 -86 -19 23 34 145 70 91 27
135 31 135 12z m-1546 -33 c3 -9 5 -95 5 -192 -2 -199 -16 -150 -18 61 -1 109
-11 147 -25 95 -3 -13 -6 -108 -6 -212 0 -152 -3 -188 -12 -178 -9 9 -14 70
-16 215 -3 183 -2 202 14 214 24 18 51 16 58 -3z m1481 -14 c3 -5 1 -10 -4
-10 -6 0 -11 5 -11 10 0 6 2 10 4 10 3 0 8 -4 11 -10z m215 -15 c0 -14 -4 -25
-10 -25 -5 0 -10 11 -10 25 0 14 5 25 10 25 6 0 10 -11 10 -25z m-253 -1 c-3
-3 -12 -4 -19 -1 -8 3 -5 6 6 6 11 1 17 -2 13 -5z m-1566 -417 c-17 -17 -24
83 -17 241 3 85 10 160 14 166 4 6 8 -81 10 -193 1 -119 -2 -209 -7 -214z
m1659 394 c0 -10 -89 -26 -97 -17 -6 5 52 24 80 25 9 1 17 -3 17 -8z m-1713
-23 c-3 -8 -6 -5 -6 6 -1 11 2 17 5 13 3 -3 4 -12 1 -19z m2167 -175 c3 -89
10 -195 15 -235 5 -40 12 -135 16 -210 5 -122 4 -137 -10 -132 -9 4 -20 15
-26 25 -6 11 -12 169 -15 387 -2 214 -1 359 4 347 5 -11 12 -93 16 -182z
m2146 177 c0 -11 -4 -20 -10 -20 -5 0 -10 9 -10 20 0 11 5 20 10 20 6 0 10 -9
10 -20z m-2226 -17 c3 -16 11 -136 17 -268 11 -235 5 -465 -11 -465 -15 0 -23
130 -16 264 5 92 2 174 -8 276 -20 182 -20 220 -2 220 7 0 16 -12 20 -27z
m-2137 -5 c-3 -8 -6 -5 -6 6 -1 11 2 17 5 13 3 -3 4 -12 1 -19z m1063 -41 c0
-47 -25 -26 -28 24 -2 41 -1 43 13 25 8 -11 15 -33 15 -49z m-1108 -164 c3
-216 -9 -258 -24 -81 -9 110 -1 305 12 291 5 -4 10 -99 12 -210z m1832 197
c-6 -6 -46 -17 -89 -25 -96 -19 -413 -119 -477 -151 -52 -26 -72 -30 -66 -13
6 19 131 66 340 127 259 77 320 90 292 62z m277 -161 c13 -203 26 -551 21
-562 -2 -4 -9 -3 -16 2 -9 8 -15 74 -19 233 -4 123 -10 288 -13 368 -5 109 -4
142 5 134 7 -6 16 -77 22 -175z m-62 -49 c13 -219 14 -430 1 -340 -12 80 -30
384 -29 482 1 136 16 61 28 -142z m-711 198 c-3 -7 -26 -21 -52 -31 -54 -20
-53 -6 2 23 44 23 55 24 50 8z m-1458 -214 c0 -112 -4 -204 -9 -204 -11 0 -26
346 -16 389 16 73 25 7 25 -185z m2099 193 c14 -36 25 -214 13 -221 -13 -8
-31 69 -39 165 -4 57 -3 79 6 79 6 0 15 -10 20 -23z m2629 -108 c6 -250 -30
-829 -77 -1239 -27 -234 -41 -418 -42 -575 -1 -71 -4 -155 -9 -185 -7 -54 -7
-53 -9 30 -2 113 -10 160 -28 160 -11 0 -13 9 -9 38 18 118 26 396 28 1044 2
401 4 728 5 728 1 0 7 -18 13 -40 12 -43 30 -54 30 -17 1 12 7 33 14 46 l13
24 7 -27 c13 -54 31 -22 34 63 2 59 6 81 15 78 8 -2 13 -42 15 -128z m-2694
41 c-6 -33 -7 -34 -16 -13 -6 12 -7 38 -3 60 7 37 8 37 17 13 5 -14 6 -41 2
-60z m2546 43 c0 -28 -3 -34 -10 -23 -13 20 -13 60 0 60 6 0 10 -17 10 -37z
m-4516 -176 c4 -88 10 -165 13 -173 8 -20 -13 -17 -23 4 -4 9 -9 96 -11 192
-4 215 11 198 21 -23z m-125 -37 c0 -80 -4 -154 -9 -165 -5 -12 -8 62 -8 185
0 135 3 191 9 165 4 -22 8 -105 8 -185z m281 68 c0 -103 -4 -148 -10 -138 -13
20 -13 290 0 290 6 0 10 -57 10 -152z m1741 99 c-13 -13 -15 11 -4 40 7 16 8
15 11 -6 2 -13 -1 -28 -7 -34z m-89 -5 c-3 -25 6 -48 37 -95 71 -110 76 -128
90 -363 9 -145 21 -189 60 -216 17 -12 20 -38 30 -368 6 -195 15 -458 21 -585
28 -698 32 -857 26 -1054 -11 -335 -25 -293 -26 74 0 304 -7 389 -27 319 -4
-16 -8 -257 -8 -537 0 -279 -3 -507 -6 -507 -14 0 -19 177 -19 616 l0 463 -36
7 c-80 15 -186 -20 -192 -64 -2 -16 4 -25 22 -32 22 -8 24 -13 19 -47 -3 -21
-8 -40 -10 -43 -10 -11 -31 33 -43 90 -14 65 -34 94 -44 62 -4 -10 -2 -83 4
-161 7 -102 7 -154 -1 -180 -18 -61 -9 -94 32 -113 26 -12 47 -36 78 -87 l41
-70 20 -283 c10 -156 24 -454 30 -663 5 -209 12 -435 14 -503 3 -133 12 -156
44 -124 18 18 20 39 26 323 4 167 3 388 -2 491 -9 191 -5 267 13 271 20 4 24
-99 19 -528 -5 -404 0 -563 21 -583 3 -3 11 0 17 6 9 9 14 149 19 543 4 292 9
533 12 536 13 12 29 -119 34 -285 5 -138 2 -235 -12 -391 -15 -173 -17 -222
-7 -290 6 -45 15 -87 18 -93 9 -14 24 11 24 40 0 35 20 26 22 -10 2 -35 -2
-101 -6 -105 -4 -5 -261 28 -305 39 -25 6 -75 24 -111 40 -38 17 -107 36 -168
46 -87 14 -119 14 -219 4 -64 -6 -119 -10 -120 -8 -8 8 10 105 18 100 14 -8
11 40 -3 54 -10 10 -10 15 1 21 11 7 13 25 9 75 -3 36 -10 72 -16 79 -12 14
-36 455 -26 480 3 9 10 17 14 17 16 0 20 -34 20 -153 0 -67 6 -165 14 -217 8
-52 18 -153 22 -225 8 -147 16 -184 39 -165 7 6 15 24 17 38 l3 27 205 5 c224
5 209 14 -45 26 -77 3 -148 10 -159 14 -45 16 23 29 187 36 92 4 167 11 167
16 0 4 -74 8 -164 8 -191 0 -216 6 -216 50 0 36 16 45 66 36 35 -7 59 -36 36
-44 -22 -7 -12 -22 14 -22 15 0 33 8 40 18 11 14 16 15 33 5 28 -17 248 -28
284 -14 35 14 38 57 5 71 -80 34 -153 42 -313 35 -147 -7 -162 -6 -168 9 -13
33 -29 403 -30 701 l-2 300 29 42 c18 27 40 46 61 53 71 24 87 116 66 376 -9
103 -35 174 -71 191 -8 4 -58 7 -112 8 -53 0 -99 2 -102 5 -3 4 -11 71 -17
150 -27 336 -44 147 -35 -377 4 -239 3 -394 -3 -397 -12 -8 -21 17 -21 57 0
18 -7 50 -15 72 -15 42 -21 220 -6 197 12 -20 21 176 22 523 1 180 5 280 9
238 3 -40 9 -75 12 -79 25 -24 28 29 28 481 l0 474 32 58 33 58 5 187 c5 185
5 187 31 215 46 48 61 90 58 157 -1 33 -1 100 0 147 l1 87 53 21 c121 48 394
130 427 128 33 -2 35 -4 32 -35z m-2112 -189 c0 -166 -3 -205 -12 -195 -9 9
-14 66 -16 193 -4 181 -1 209 18 209 6 0 10 -71 10 -207z m120 26 c0 -117 -3
-178 -10 -174 -6 4 -10 73 -10 174 0 147 3 181 17 181 2 0 3 -81 3 -181z m-57
9 c6 -143 1 -220 -14 -196 -5 7 -9 92 -9 188 1 204 15 209 23 8z m1413 56 c-3
-45 -11 -93 -16 -106 -8 -17 -9 -6 -5 47 3 39 5 89 5 113 0 30 4 41 11 36 8
-5 10 -32 5 -90z m-1548 -144 c0 -108 -3 -149 -8 -120 -8 44 -14 257 -10 315
l2 30 8 -30 c4 -16 8 -104 8 -195z m1589 158 c-3 -8 -6 -5 -6 6 -1 11 2 17 5
13 3 -3 4 -12 1 -19z m3253 13 c0 -5 -7 -11 -15 -15 -15 -5 -20 5 -8 17 9 10
23 9 23 -2z m-4970 -186 c0 -104 -4 -185 -9 -185 -12 0 -17 83 -13 240 5 199
22 157 22 -55z m72 20 c1 -113 -7 -175 -23 -175 -10 0 -12 282 -2 320 l7 25 8
-30 c5 -17 9 -79 10 -140z m1437 63 c-2 -96 -2 -99 -9 -43 -11 89 -11 145 0
145 6 0 9 -40 9 -102z m-900 10 c-1 -60 -4 -75 -9 -53 -11 45 -11 135 0 135 6
0 10 -33 9 -82z m851 33 c0 -28 -4 -53 -10 -56 -6 -4 -10 15 -10 49 0 31 5 56
10 56 6 0 10 -22 10 -49z m-1577 -158 l-10 -178 -1 190 c-2 139 1 186 9 178 8
-8 9 -61 2 -190z m2984 140 c-3 -10 -5 -2 -5 17 0 19 2 27 5 18 2 -10 2 -26 0
-35z m-3078 -182 c1 -96 -2 -171 -6 -167 -9 9 -22 312 -15 351 12 64 21 -12
21 -184z m1621 176 c0 -12 -4 -28 -9 -36 -12 -19 -25 21 -16 49 8 25 25 16 25
-13z m-1471 -134 c0 -98 -4 -150 -9 -138 -5 11 -9 79 -9 151 -1 115 2 144 16
144 2 0 3 -71 2 -157z m1301 90 c0 -24 -4 -43 -9 -43 -15 0 -23 39 -16 78 9
47 25 24 25 -35z m58 19 c2 -25 -1 -42 -7 -42 -6 0 -11 6 -11 14 0 7 -3 28 -7
46 -5 25 -3 32 8 28 8 -3 15 -22 17 -46z m3685 41 c12 -11 -14 -33 -39 -33
-25 0 -39 14 -29 30 7 11 58 14 68 3z m-3276 -85 c-2 -18 -4 -6 -4 27 0 33 2
48 4 33 2 -15 2 -42 0 -60z m-2077 -144 c0 -127 -3 -193 -10 -189 -6 4 -10 78
-10 189 0 161 3 196 17 196 2 0 3 -88 3 -196z m59 9 c-1 -128 -4 -175 -10
-148 -15 75 -10 335 7 335 2 0 3 -84 3 -187z m1431 131 c0 -49 -15 -58 -31
-17 -7 19 -7 35 0 51 16 34 31 17 31 -34z m60 11 c0 -33 -4 -45 -15 -45 -16 0
-21 43 -9 74 12 31 24 16 24 -29z m-1353 -182 c-1 -43 -3 -10 -3 72 0 83 2
118 3 78 2 -40 2 -107 0 -150z m-250 10 c3 -117 1 -183 -6 -193 -21 -29 -28 9
-35 180 -6 122 -4 174 4 190 24 44 32 2 37 -177z m2983 177 c0 -5 -4 -10 -10
-10 -5 0 -10 5 -10 10 0 6 5 10 10 10 6 0 10 -4 10 -10z m-1640 -22 c0 -18 -2
-20 -9 -8 -6 8 -7 18 -5 22 9 14 14 9 14 -14z m4074 -44 c0 -32 -6 -147 -12
-256 -7 -108 -12 -299 -13 -425 0 -139 -4 -217 -9 -200 -13 42 -23 593 -13
664 6 38 6 68 0 79 -7 12 -5 25 7 45 12 21 14 34 7 47 -7 14 -6 25 5 40 11 16
12 27 5 41 -11 20 -4 34 13 28 6 -2 11 -30 10 -63z m-3534 15 c0 -17 -4 -28
-10 -24 -5 3 -10 17 -10 31 0 13 5 24 10 24 6 0 10 -14 10 -31z m120 23 c0 -5
-6 -16 -13 -27 -16 -20 -31 -7 -21 19 6 16 34 23 34 8z m-170 -22 c0 -11 -4
-20 -10 -20 -5 0 -10 9 -10 20 0 11 5 20 10 20 6 0 10 -9 10 -20z m-561 6 c-2
-2 -17 -6 -34 -10 -22 -5 -26 -4 -15 4 14 9 59 15 49 6z m133 -30 c17 -25 22
-22 -129 -61 -34 -8 -69 -18 -78 -21 -8 -3 -15 -2 -15 3 0 6 38 22 85 37 114
36 131 61 20 29 -34 -10 -9 8 32 22 39 14 72 11 85 -9z m381 18 c9 -10 -4 -34
-19 -34 -16 0 -16 2 -8 24 6 17 16 20 27 10z m1191 -15 c-3 -5 -10 -7 -15 -3
-5 3 -7 10 -3 15 3 5 10 7 15 3 5 -3 7 -10 3 -15z m-1257 -36 c-4 -17 -4 -17
-12 0 -4 9 -4 25 0 35 8 16 8 16 12 0 3 -10 3 -26 0 -35z m-1557 -86 c0 -63
-4 -96 -10 -92 -6 4 -10 52 -10 113 0 73 3 102 10 92 5 -8 10 -59 10 -113z
m997 117 c-3 -3 -12 -4 -19 -1 -8 3 -5 6 6 6 11 1 17 -2 13 -5z m503 -14 c0
-5 -4 -10 -10 -10 -5 0 -10 5 -10 10 0 6 5 10 10 10 6 0 10 -4 10 -10z m-544
-39 c-6 -8 -52 -21 -136 -37 -64 -11 -19 15 50 30 80 17 93 18 86 7z m344 -20
c0 -7 -74 -41 -89 -41 -5 0 -14 -7 -21 -15 -11 -13 -8 -15 14 -15 35 0 66 -17
66 -35 0 -9 -10 -15 -25 -15 -20 0 -25 -5 -25 -24 0 -14 4 -28 10 -31 5 -3 22
-27 37 -53 27 -46 28 -52 33 -237 6 -195 6 -193 55 -276 20 -33 20 -50 18
-924 -1 -490 -5 -904 -8 -921 -3 -19 -29 -59 -65 -99 -83 -94 -85 -103 -71
-375 12 -253 14 -472 5 -608 l-7 -91 -101 -3 c-87 -3 -101 -5 -104 -20 -3 -16
7 -18 103 -18 68 0 104 -4 100 -10 -3 -5 -35 -10 -71 -10 -35 0 -64 -4 -64 -9
0 -10 23 -15 101 -26 l46 -6 -5 -94 c-4 -89 -4 -95 15 -95 39 0 64 43 74 126
16 125 42 173 52 97 8 -59 3 -206 -7 -222 -21 -32 24 -43 229 -58 55 -4 92 -9
82 -11 -12 -2 -16 -9 -12 -23 8 -24 -20 -26 -72 -4 -19 8 -52 15 -73 15 -21 0
-98 9 -172 20 -150 22 -253 25 -295 9 -51 -21 -180 -14 -261 13 -60 21 -70 26
-50 31 39 11 104 8 167 -9 68 -17 132 -16 139 3 2 7 -19 27 -47 44 -28 18 -51
35 -51 39 0 12 58 20 148 20 69 0 84 3 74 12 -9 9 -44 13 -102 13 l-89 0 -10
80 c-14 101 -16 307 -13 915 3 453 -1 631 -28 1165 -24 485 -30 697 -20 715
12 22 13 90 2 106 -4 6 -16 15 -26 21 -18 10 -18 12 7 33 15 13 29 37 33 55 3
17 -6 123 -20 235 -36 282 -46 342 -62 367 -14 23 -19 98 -8 127 9 24 24 9 24
-24 0 -53 31 -45 45 12 4 15 13 32 20 38 7 6 80 28 163 49 82 21 158 43 168
49 18 10 44 6 44 -7z m611 -16 c26 -3 55 -12 65 -19 17 -13 16 -17 -28 -68
l-46 -54 -7 -135 c-7 -120 -5 -139 10 -162 20 -31 14 -77 -10 -77 -13 0 -15
26 -15 163 0 158 -6 197 -29 183 -7 -5 -11 -70 -11 -203 l0 -195 28 7 27 7
-22 -24 c-13 -15 -23 -41 -26 -73 -3 -27 -10 -97 -16 -155 -21 -208 -30 -555
-19 -744 11 -191 5 -541 -11 -591 -5 -16 -10 -28 -12 -25 -1 3 -5 321 -8 707
-4 505 -9 705 -17 713 -9 9 -13 -27 -18 -142 -9 -253 -15 -1609 -8 -1963 4
-187 3 -354 -2 -385 -5 -30 -10 -217 -10 -415 -1 -313 -3 -360 -16 -357 -8 2
-22 10 -30 18 -13 12 -13 16 -1 23 11 7 13 141 10 809 -3 440 -8 804 -12 808
-4 4 -10 4 -14 0 -9 -9 -8 -658 2 -838 l6 -127 -27 -14 -28 -15 5 -108 c8
-206 4 -544 -6 -544 -7 0 -10 291 -11 853 0 617 -5 973 -18 1292 -27 705 -30
861 -17 986 17 167 21 189 36 189 7 0 18 7 25 15 8 9 30 15 57 15 l44 0 -5 53
c-3 28 -8 147 -12 262 -3 116 -9 214 -12 220 -14 22 -20 -51 -21 -250 -2 -296
-18 -295 -23 1 -2 190 -6 244 -18 262 -8 12 -18 22 -21 22 -3 0 -4 -120 -1
-267 4 -226 2 -266 -9 -255 -10 10 -16 62 -20 200 -5 134 -11 198 -22 227 -9
22 -16 55 -17 73 0 17 -4 32 -10 32 -13 0 -13 -154 -1 -235 5 -33 12 -109 16
-170 10 -165 -10 -120 -29 65 -9 85 -19 165 -22 177 -13 50 -24 6 -25 -100 0
-72 -3 -105 -9 -92 -5 11 -9 90 -9 175 -1 121 -4 160 -16 177 -14 20 -13 23
12 43 l28 22 5 -24 c3 -12 10 -23 15 -22 19 1 70 15 87 25 26 14 90 11 138 -6
53 -19 80 -7 80 35 0 29 1 29 28 15 15 -8 48 -17 73 -20z m-1161 -65 c0 -27
-4 -50 -10 -50 -5 0 -10 23 -10 50 0 28 5 50 10 50 6 0 10 -22 10 -50z m648
13 c13 -31 16 -71 16 -223 -1 -244 -18 -344 -43 -254 -14 51 -14 67 2 83 17
17 17 375 0 392 -20 20 -28 2 -33 -79 -6 -73 -7 -75 -18 -48 -7 16 -15 49 -19
72 -5 36 -2 46 20 68 36 36 55 33 75 -11z m-784 11 c3 -9 6 -34 6 -56 0 -32
-3 -39 -17 -36 -11 2 -19 14 -21 32 -7 56 17 100 32 60z m2222 -10 c10 -38
-11 -52 -24 -16 -6 17 -8 33 -5 36 13 12 23 5 29 -20z m-1969 10 c-3 -3 -12
-4 -19 -1 -8 3 -5 6 6 6 11 1 17 -2 13 -5z m1908 -24 c-5 -8 -11 -8 -17 -2 -6
6 -7 16 -3 22 5 8 11 8 17 2 6 -6 7 -16 3 -22z m-2285 -38 c0 -27 -6 -57 -14
-67 -13 -18 -14 -18 -20 2 -6 19 -3 44 11 96 9 34 23 16 23 -31z m47 -19 c-2
-16 -4 -5 -4 22 0 28 2 40 4 28 2 -13 2 -35 0 -50z m254 30 c-10 -17 -10 -16
-11 3 0 23 13 41 18 25 2 -6 -1 -18 -7 -28z m-376 -64 c-4 -27 -10 -49 -15
-49 -21 0 -27 78 -9 112 11 19 12 20 21 4 5 -10 7 -39 3 -67z m-65 5 c0 -28
-4 -43 -10 -39 -5 3 -10 26 -10 51 0 28 4 43 10 39 6 -3 10 -26 10 -51z m2422
34 c-7 -7 -12 -8 -12 -2 0 14 12 26 19 19 2 -3 -1 -11 -7 -17z m-2522 -12
c-18 -23 -213 -77 -226 -63 -5 5 24 17 126 50 93 30 117 33 100 13z m2590 -15
c0 -6 -4 -13 -10 -16 -5 -3 -10 1 -10 9 0 9 5 16 10 16 6 0 10 -4 10 -9z
m-2090 -15 c0 -3 -4 -8 -10 -11 -5 -3 -10 -1 -10 4 0 6 5 11 10 11 6 0 10 -2
10 -4z m2040 -10 c0 -3 -4 -8 -10 -11 -5 -3 -10 -1 -10 4 0 6 5 11 10 11 6 0
10 -2 10 -4z m-2165 -53 c4 -20 11 -366 16 -767 8 -579 22 -1176 28 -1193 1
-2 6 -3 11 -3 6 0 10 30 11 68 1 64 1 65 10 27 6 -22 7 -92 4 -155 -3 -63 -8
-478 -11 -922 -4 -665 -7 -808 -18 -808 -7 0 -16 14 -20 31 -10 54 -7 359 5
380 12 23 14 378 3 467 -17 136 -25 25 -50 -681 -4 -117 -10 -167 -17 -164
-22 7 -28 73 -29 307 -1 247 11 440 39 627 12 84 19 110 28 103 15 -12 25 -3
25 23 0 11 -9 21 -21 24 -21 6 -21 7 -4 19 15 11 17 22 11 76 -20 178 -26 371
-32 983 -4 369 -10 677 -14 685 -14 25 -19 -22 -23 -210 -4 -166 -9 -210 -27
-210 -12 0 -20 74 -27 260 -5 152 -4 180 11 207 14 27 16 69 16 279 0 136 3
244 7 241 9 -10 32 -293 33 -405 0 -70 3 -93 13 -90 19 7 21 349 2 544 -16
170 -19 286 -9 297 12 12 22 -2 29 -40z m79 -55 c3 -46 9 -104 12 -130 8 -58
-11 -67 -20 -10 -12 85 -18 235 -9 229 6 -4 13 -44 17 -89z m-162 30 c2 -23 2
-56 -1 -73 -4 -30 -5 -30 -12 -5 -10 36 -11 120 0 120 5 0 11 -19 13 -42z
m238 -34 c0 -41 -4 -63 -10 -59 -5 3 -10 35 -10 71 0 41 4 63 10 59 6 -3 10
-35 10 -71z m-801 -1 l-1 -58 -9 49 c-7 45 -5 66 7 66 2 0 3 -26 3 -57z m321
-15 c14 -18 26 -25 37 -21 15 6 15 -12 7 -198 -14 -331 -13 -343 40 -416 22
-30 23 -41 29 -285 4 -139 10 -582 14 -984 l6 -732 -59 -12 c-32 -7 -93 -13
-134 -14 l-75 -1 -8 60 c-5 33 -6 109 -3 169 4 75 1 129 -8 175 -14 63 -19
178 -47 1021 -5 173 -14 339 -18 369 -7 47 -5 61 15 105 20 44 24 66 23 156 0
173 -16 379 -29 395 -7 9 -29 15 -51 15 l-39 0 0 -47 c0 -69 -18 -41 -26 41
-7 68 -6 70 21 92 l28 22 27 -20 c22 -16 36 -19 68 -13 l40 6 4 64 c4 66 22
99 63 115 21 9 21 9 75 -62z m186 -3 c-2 -22 -10 -69 -16 -105 -9 -46 -10
-143 -6 -327 5 -170 4 -263 -3 -263 -24 0 -51 183 -49 330 0 69 -2 186 -5 260
l-5 135 12 -110 c7 -60 15 -103 19 -95 3 8 7 62 9 120 4 117 12 145 35 114 10
-12 13 -33 9 -59z m-446 -7 c0 -15 -4 -30 -10 -33 -6 -4 -10 12 -10 42 0 35 3
44 10 33 5 -8 10 -27 10 -42z m62 -35 c7 -9 6 -15 -7 -19 -32 -13 -45 33 -23
83 l12 28 4 -40 c2 -22 8 -45 14 -52z m-225 55 c-3 -8 -6 -5 -6 6 -1 11 2 17
5 13 3 -3 4 -12 1 -19z m3233 -1275 c-5 -23 -10 -62 -10 -87 0 -25 -4 -48 -10
-51 -7 -4 -10 172 -10 522 0 512 11 859 27 899 12 30 16 -1233 3 -1283z
m-3281 1235 c0 -35 -2 -39 -9 -21 -8 19 -3 63 6 63 2 0 4 -19 3 -42z m3211 22
c0 -9 -40 -30 -56 -30 -13 0 -1 29 14 33 30 8 42 7 42 -3z m-3400 -66 c0 -34
-4 -53 -10 -49 -5 3 -10 28 -10 56 0 27 5 49 10 49 6 0 10 -25 10 -56z m99 19
c0 -10 -4 -27 -9 -38 -7 -16 -9 -13 -9 18 -1 20 4 37 9 37 6 0 10 -8 9 -17z
m3218 11 c-3 -3 -12 -4 -19 -1 -8 3 -5 6 6 6 11 1 17 -2 13 -5z m-3367 -65 c0
-24 -4 -38 -10 -34 -5 3 -10 24 -10 46 0 24 4 38 10 34 6 -3 10 -24 10 -46z
m3300 41 c-20 -13 -33 -13 -25 0 3 6 14 10 23 10 15 0 15 -2 2 -10z m156 -658
c-4 -367 -11 -683 -15 -702 l-8 -35 -6 45 c-3 25 -8 319 -11 654 -4 448 -9
612 -17 623 -8 9 -22 12 -41 8 -42 -10 -34 10 10 21 30 8 37 14 35 32 -2 19 2
22 29 22 l31 0 -7 -668z m2131 631 c-3 -10 -5 -4 -5 12 0 17 2 24 5 18 2 -7 2
-21 0 -30z m-5233 -310 c10 -440 17 -989 12 -978 -3 6 -7 40 -11 78 -4 37 -10
67 -14 67 -5 0 -11 -46 -14 -102 -4 -56 -12 -106 -18 -112 -8 -8 -10 0 -5 34
15 108 26 467 26 868 0 237 4 432 8 432 5 0 12 -129 16 -287z m883 245 c-3 -7
-5 -2 -5 12 0 14 2 19 5 13 2 -7 2 -19 0 -25z m-999 -145 c-3 -57 -3 -58 -12
-20 -4 21 -4 72 0 115 l9 77 3 -57 c2 -32 2 -84 0 -115z m62 140 c0 -16 -5
-35 -10 -43 -7 -11 -10 -4 -10 28 0 23 5 42 10 42 6 0 10 -12 10 -27z m1590
-13 c0 -5 -4 -10 -10 -10 -5 0 -10 5 -10 10 0 6 5 10 10 10 6 0 10 -4 10 -10z
m-1840 -10 c0 -5 -4 -10 -10 -10 -5 0 -10 5 -10 10 0 6 5 10 10 10 6 0 10 -4
10 -10z m37 -32 c-3 -8 -6 -5 -6 6 -1 11 2 17 5 13 3 -3 4 -12 1 -19z m3298
-290 c3 -167 5 -379 3 -473 l-3 -170 -20 40 c-19 38 -20 63 -22 439 -1 349 0
401 14 411 13 10 13 12 -1 24 -21 18 -20 31 3 31 18 0 19 -15 26 -302z m372
220 c-3 -8 -6 -5 -6 6 -1 11 2 17 5 13 3 -3 4 -12 1 -19z m-472 -18 c-3 -5
-11 -10 -16 -10 -6 0 -7 5 -4 10 3 6 11 10 16 10 6 0 7 -4 4 -10z m-1464 -13
c-1 -12 -15 -9 -19 4 -3 6 1 10 8 8 6 -3 11 -8 11 -12z m-1024 -29 c-3 -7 -5
-2 -5 12 0 14 2 19 5 13 2 -7 2 -19 0 -25z m364 30 c0 -2 3 -34 6 -73 6 -85
-5 -190 -18 -160 -11 30 -11 235 1 235 6 0 10 -1 11 -2z m2119 -68 c-18 -11
-24 -6 -16 16 5 14 9 15 19 5 9 -9 9 -14 -3 -21z m-2013 -42 c-2 -13 -4 -3 -4
22 0 25 2 35 4 23 2 -13 2 -33 0 -45z m-1200 -100 c-2 -29 -3 -6 -3 52 0 58 1
81 3 53 2 -29 2 -77 0 -105z m1031 -395 c-1 -325 -4 -505 -8 -443 -15 218 -10
990 6 990 2 0 3 -246 2 -547z m803 504 c-13 -13 -26 -3 -16 12 3 6 11 8 17 5
6 -4 6 -10 -1 -17z m1860 -58 l-10 -24 0 26 c-1 14 2 29 6 33 12 12 14 -9 4
-35z m-3544 -1 c-3 -8 -6 -5 -6 6 -1 11 2 17 5 13 3 -3 4 -12 1 -19z m1010
-75 c2 -48 8 -290 13 -538 11 -561 27 -937 45 -1091 24 -204 49 -1017 39
-1269 l-9 -220 -78 -9 c-63 -7 -81 -6 -91 5 -11 11 -12 119 -5 591 4 318 11
583 15 590 4 6 6 85 5 175 -1 96 1 163 7 163 15 0 24 -459 21 -957 -4 -401 -1
-478 15 -462 11 10 26 460 27 784 2 466 15 316 24 -298 5 -257 11 -467 15
-467 14 0 20 98 20 349 -1 368 -17 843 -35 1011 -12 108 -18 309 -23 787 -4
353 -11 645 -15 649 -4 4 -10 4 -14 0 -5 -4 -7 -293 -5 -641 3 -446 0 -635 -7
-640 -6 -3 -11 -19 -11 -35 0 -16 -4 -31 -9 -34 -5 -3 -11 65 -15 157 -10 291
-16 1251 -7 1297 5 25 9 37 10 28 2 -24 23 -68 33 -68 4 0 8 40 8 89 0 88 8
156 18 147 2 -3 6 -45 9 -93z m703 89 c0 -12 -51 -34 -59 -27 -7 8 28 35 46
35 7 0 13 -4 13 -8z m3899 -252 c1 -206 -18 -917 -28 -1065 -8 -110 -8 -110
-10 75 -2 183 -6 233 -32 441 -15 123 -6 296 33 619 20 168 24 188 30 145 3
-27 7 -124 7 -215z m-4900 163 c-1 -48 -3 -53 -9 -28 -11 45 -11 85 0 85 6 0
9 -25 9 -57z m2361 42 c0 -8 -4 -15 -10 -15 -5 0 -10 7 -10 15 0 8 5 15 10 15
6 0 10 -7 10 -15z m-1364 -22 c-10 -10 -19 5 -10 18 6 11 8 11 12 0 2 -7 1
-15 -2 -18z m-1436 -44 c0 -43 -25 -129 -53 -184 l-31 -60 -9 38 c-12 51 -2
90 22 82 23 -7 31 17 31 101 0 33 3 64 7 68 10 9 33 -23 33 -45z m1377 -1 c-3
-7 -5 -2 -5 12 0 14 2 19 5 13 2 -7 2 -19 0 -25z m3758 -128 c11 -88 13 -156
8 -230 -7 -113 -20 -107 -22 10 0 36 -6 108 -12 160 -10 81 -6 200 6 188 2 -2
11 -60 20 -128z m-3697 -27 c-4 -37 -4 -37 -12 -10 -5 15 -4 49 0 75 l8 47 4
-37 c2 -21 2 -55 0 -75z m1362 98 c0 -6 -4 -13 -10 -16 -5 -3 -10 1 -10 9 0 9
5 16 10 16 6 0 10 -4 10 -9z m-3043 -203 c-1 -167 12 -247 24 -148 4 30 7 103
8 163 1 64 5 107 11 107 12 0 12 -309 1 -440 -5 -47 -9 -71 -10 -55 -1 17 -4
40 -7 53 -6 20 -8 21 -19 6 -10 -14 -13 -6 -19 52 -11 114 -19 380 -13 398 18
45 25 3 24 -136z m3041 49 c2 -45 -1 -93 -7 -107 -9 -23 -10 -22 -10 16 -1 23
-4 77 -7 120 -6 67 -4 77 7 66 9 -8 15 -42 17 -95z m-3171 -14 c-3 -10 -5 -4
-5 12 0 17 2 24 5 18 2 -7 2 -21 0 -30z m1753 27 c0 -5 -4 -10 -10 -10 -5 0
-10 5 -10 10 0 6 5 10 10 10 6 0 10 -4 10 -10z m69 -296 c12 -243 31 -692 31
-739 -1 -23 -3 -26 -10 -15 -5 9 -14 158 -20 330 -6 173 -15 339 -20 369 -15
86 -23 235 -15 277 13 70 22 10 34 -222z m-69 232 c0 -3 -4 -8 -10 -11 -5 -3
-10 -1 -10 4 0 6 5 11 10 11 6 0 10 -2 10 -4z m0 -56 c0 -5 -4 -10 -9 -10 -6
0 -13 5 -16 10 -3 6 1 10 9 10 9 0 16 -4 16 -10z m-975 -108 c-8 -8 -25 10
-25 27 0 30 14 34 22 5 4 -16 6 -30 3 -32z m960 38 c3 -5 1 -10 -4 -10 -6 0
-11 5 -11 10 0 6 2 10 4 10 3 0 8 -4 11 -10z m-1685 -44 c0 -24 7 -63 15 -86
15 -42 12 -105 -5 -115 -10 -6 -17 45 -24 163 -2 45 0 82 5 82 5 0 9 -20 9
-44z m3117 -149 c-2 -23 -3 -1 -3 48 0 50 1 68 3 42 2 -26 2 -67 0 -90z
m-3167 102 c0 -6 -4 -7 -10 -4 -5 3 -10 11 -10 16 0 6 5 7 10 4 6 -3 10 -11
10 -16z m780 -19 c0 -5 -4 -10 -10 -10 -5 0 -10 5 -10 10 0 6 5 10 10 10 6 0
10 -4 10 -10z m-800 -39 c0 -6 -4 -13 -10 -16 -5 -3 -10 1 -10 9 0 9 5 16 10
16 6 0 10 -4 10 -9z m810 -61 c0 -21 -4 -41 -9 -44 -11 -7 -24 56 -15 78 10
27 24 7 24 -34z m-779 -20 c-9 -23 -10 -23 -10 11 -1 20 2 39 7 43 11 12 14
-27 3 -54z m3208 -87 c0 -87 -4 -131 -9 -118 -12 29 -12 255 0 255 6 0 10 -52
9 -137z m-2439 5 c0 -25 -3 -29 -10 -18 -13 20 -13 50 0 50 6 0 10 -15 10 -32z
m82 -29 c11 -97 9 -399 -4 -468 l-13 -66 -6 120 c-11 206 -10 360 2 372 8 8 6
18 -6 36 -10 16 -14 34 -10 47 11 36 30 16 37 -41z m4685 -11 c-2 -13 -4 -3
-4 22 0 25 2 35 4 23 2 -13 2 -33 0 -45z m-5487 -45 c0 -67 -3 -93 -10 -83
-13 20 -13 180 0 180 6 0 10 -39 10 -97z m65 -207 c-4 -160 -10 -338 -14 -396
-6 -98 -7 -90 -13 115 -3 121 -2 288 2 370 5 83 9 165 9 183 1 22 5 31 12 26
8 -5 9 -87 4 -298z m3167 -9 c21 -336 33 -933 20 -997 l-9 -45 -6 45 c-17 129
-45 1301 -31 1287 5 -5 17 -135 26 -290z m-1557 273 c3 -5 1 -10 -4 -10 -6 0
-11 5 -11 10 0 6 2 10 4 10 3 0 8 -4 11 -10z m-1390 -30 c3 -6 7 -66 7 -134 1
-69 4 -130 8 -137 4 -6 1 -23 -6 -38 -8 -14 -14 -41 -14 -60 0 -19 -3 -32 -6
-29 -9 10 -25 320 -19 366 6 41 17 53 30 32z m5154 -183 c1 -43 -3 -66 -9 -62
-6 4 -9 51 -9 113 1 87 3 99 10 62 4 -25 8 -76 8 -113z m-4722 121 c-3 -8 -6
-5 -6 6 -1 11 2 17 5 13 3 -3 4 -12 1 -19z m1010 -50 c-2 -13 -4 -5 -4 17 -1
22 1 32 4 23 2 -10 2 -28 0 -40z m3810 -30 c-3 -7 -5 -2 -5 12 0 14 2 19 5 13
2 -7 2 -19 0 -25z m-3852 -8 c-5 -8 -11 -8 -17 -2 -6 6 -7 16 -3 22 5 8 11 8
17 2 6 -6 7 -16 3 -22z m2752 4 c3 -9 -2 -118 -11 -243 -9 -124 -16 -334 -16
-467 0 -286 -8 -410 -24 -373 -14 33 -20 691 -8 895 9 152 20 204 43 204 5 0
12 -7 16 -16z m-4497 -39 c0 -30 -10 -55 -21 -55 -10 0 -12 73 -3 83 12 11 24
-3 24 -28z m3377 3 c-3 -7 -5 -2 -5 12 0 14 2 19 5 13 2 -7 2 -19 0 -25z
m2220 -50 c-3 -7 -5 -2 -5 12 0 14 2 19 5 13 2 -7 2 -19 0 -25z m-2226 -359
c9 -301 6 -549 -6 -537 -2 2 -8 192 -14 423 -9 377 -7 485 6 472 2 -3 8 -164
14 -358z m2186 304 c-3 -10 -5 -4 -5 12 0 17 2 24 5 18 2 -7 2 -21 0 -30z m83
-20 c0 -35 -4 -53 -9 -47 -9 8 -3 104 5 104 2 0 4 -26 4 -57z m-5372 -208 c0
-99 -4 -193 -8 -210 -4 -16 -8 83 -8 220 0 157 3 235 9 210 4 -22 8 -121 7
-220z m-284 -265 l-7 -25 -7 25 c-9 30 -1 468 8 490 9 20 15 -458 6 -490z
m4421 455 c0 -42 -19 -58 -30 -25 -9 29 3 72 18 67 7 -2 12 -21 12 -42z
m-1412 -77 c9 -151 7 -438 -2 -463 -5 -12 -10 19 -14 85 -12 200 -20 458 -14
474 15 38 24 8 30 -96z m1311 90 c-8 -28 -12 -33 -20 -25 -9 8 6 47 17 47 6 0
7 -10 3 -22z m-3530 -13 c-4 -8 -8 -15 -10 -15 -2 0 -4 7 -4 15 0 8 4 15 10
15 5 0 7 -7 4 -15z m2140 -10 c8 -30 -3 -125 -14 -125 -11 0 -23 105 -15 130
9 27 22 25 29 -5z m2631 -31 c12 -29 15 -84 15 -272 0 -129 -2 -233 -5 -230
-3 3 -10 86 -15 184 -5 99 -12 218 -16 267 -3 48 -3 87 0 87 3 0 13 -16 21
-36z m-666 -212 c1 -47 -3 -71 -9 -67 -6 4 -9 62 -8 148 1 126 2 133 8 67 4
-41 8 -108 9 -148z m620 43 c15 -221 21 -559 10 -548 -9 9 -27 318 -31 565 -2
81 0 144 4 140 4 -4 12 -75 17 -157z m-4698 -3 c-8 -13 -10 -2 -11 43 0 91 14
126 18 42 2 -37 -2 -75 -7 -85z m1539 55 c0 -104 -16 -115 -24 -17 -4 44 -4
85 -1 91 15 23 25 -8 25 -74z m-90 25 c-18 -24 -21 -49 -27 -210 -3 -101 -9
-178 -13 -170 -11 19 -20 285 -12 343 6 39 12 52 31 62 35 17 44 6 21 -25z
m194 6 c10 -39 7 -341 -5 -380 -11 -42 -20 -46 -40 -21 -10 12 -15 67 -19 212
-3 108 -4 199 -2 204 2 4 16 7 31 7 21 0 30 -6 35 -22z m1903 -140 c-2 -24 -4
-5 -4 42 0 47 2 66 4 43 2 -24 2 -62 0 -85z m-3137 -5 c0 -18 -4 -33 -10 -33
-5 0 -10 21 -10 48 0 34 3 43 10 32 5 -8 10 -30 10 -47z m1980 -22 c0 -38 5
-72 12 -79 9 -9 8 -17 -2 -37 -11 -21 -11 -29 0 -50 17 -32 18 -143 3 -275 -7
-58 -15 -144 -19 -192 -3 -49 -9 -88 -13 -88 -16 0 -20 162 -11 425 5 149 9
294 10 323 0 33 4 51 10 47 6 -3 10 -37 10 -74z m-1386 -79 c4 -89 3 -131 -4
-127 -6 4 -10 60 -10 137 0 72 2 129 4 127 2 -2 6 -64 10 -137z m1140 40 c4
-41 2 -61 -4 -57 -6 3 -10 34 -10 67 0 76 5 72 14 -10z m-2097 -9 c-2 -16 -4
-5 -4 22 0 28 2 40 4 28 2 -13 2 -35 0 -50z m1220 -306 c-1 -67 -3 -9 -3 128
0 138 2 192 3 122 2 -71 2 -183 0 -250z m800 301 c-3 -7 -5 -2 -5 12 0 14 2
19 5 13 2 -7 2 -19 0 -25z m-1012 -722 c-4 -364 -11 -726 -14 -806 -6 -143 -7
-144 -15 -75 -9 71 -1 1071 11 1398 4 128 9 174 16 161 7 -12 8 -241 2 -678z
m-86 406 c1 -117 4 -144 16 -148 8 -4 15 -12 15 -20 0 -8 -7 -14 -15 -14 -11
0 -15 -11 -15 -42 0 -33 3 -39 11 -28 10 15 5 -550 -7 -695 -14 -169 -21 -51
-28 438 -7 513 -1 780 15 692 4 -22 8 -104 8 -183z m1948 -137 c0 -97 -1 -103
-7 -50 -8 58 -14 323 -9 375 4 40 16 -205 16 -325z m-770 313 c-3 -8 -6 -5 -6
6 -1 11 2 17 5 13 3 -3 4 -12 1 -19z m-2680 -20 c-3 -8 -6 -5 -6 6 -1 11 2 17
5 13 3 -3 4 -12 1 -19z m2080 -20 c-3 -7 -5 -2 -5 12 0 14 2 19 5 13 2 -7 2
-19 0 -25z m2373 -30 c0 -45 -3 -59 -10 -48 -17 26 -12 110 7 110 2 0 3 -28 3
-62z m-4581 -60 c-2 -100 -3 -106 -9 -53 -7 54 -2 165 6 165 2 0 3 -51 3 -112z
m4755 18 c-3 -14 -10 -29 -15 -32 -10 -6 -12 59 -2 70 13 13 24 -11 17 -38z
m-1904 -46 c0 -22 -4 -40 -10 -40 -11 0 -13 39 -4 64 10 26 14 19 14 -24z
m-720 -20 c0 -11 -4 -20 -10 -20 -5 0 -10 9 -10 20 0 11 5 20 10 20 6 0 10 -9
10 -20z m977 -67 c-3 -10 -5 -2 -5 17 0 19 2 27 5 18 2 -10 2 -26 0 -35z
m-1108 -225 c11 -204 14 -385 6 -377 -16 17 -50 529 -39 599 l7 45 8 -35 c4
-19 12 -123 18 -232z m114 140 c13 -168 8 -409 -11 -493 l-17 -80 -3 215 c-3
229 5 440 18 440 4 0 10 -37 13 -82z m-599 25 c13 -35 19 -84 22 -178 2 -93 1
-119 -6 -90 -5 22 -9 69 -10 105 -2 91 -13 153 -27 158 -10 3 -13 -22 -14
-100 0 -56 -2 -98 -4 -93 -7 19 -24 229 -19 237 3 4 13 8 22 8 12 0 24 -16 36
-47z m-759 -90 l-8 -28 -7 27 c-5 15 -6 38 -2 50 l5 22 10 -21 c5 -12 6 -34 2
-50z m3492 -250 c-1 -43 -3 -10 -3 72 0 83 2 118 3 78 2 -40 2 -107 0 -150z
m-670 140 c-3 -10 -5 -4 -5 12 0 17 2 24 5 18 2 -7 2 -21 0 -30z m-1627 -414
c7 -367 12 -451 29 -543 11 -61 19 -111 17 -113 -1 -1 -16 -5 -32 -9 l-29 -5
-3 557 c-1 307 0 555 3 552 3 -3 10 -201 15 -439z m3960 59 c0 -299 6 -356 30
-293 6 14 10 60 10 101 0 43 4 74 10 74 6 0 10 9 10 20 0 11 -4 20 -10 20 -15
0 -12 37 4 43 11 5 15 -18 21 -117 4 -68 4 -132 1 -143 -7 -21 -68 -43 -120
-43 l-26 0 5 113 c3 61 8 202 12 312 4 110 9 189 11 175 8 -53 22 -43 22 16 0
42 3 55 10 44 6 -9 10 -141 10 -322z m-5440 308 c0 -3 -4 -8 -10 -11 -5 -3
-10 -1 -10 4 0 6 5 11 10 11 6 0 10 -2 10 -4z m1024 -63 c3 -38 8 -124 12
-193 7 -150 19 -217 41 -242 24 -27 9 -33 -21 -7 -15 13 -28 38 -32 58 -3 20
-7 41 -9 48 -9 27 -14 403 -6 403 5 0 12 -30 15 -67z m1681 47 c3 -5 1 -10 -4
-10 -6 0 -11 5 -11 10 0 6 2 10 4 10 3 0 8 -4 11 -10z m-2863 -255 c-9 -67
-10 -65 -11 61 0 72 2 147 7 165 11 52 14 -141 4 -226z m5657 90 c4 -88 3
-134 -4 -132 -6 2 -11 61 -13 142 -1 77 0 136 4 132 4 -3 9 -67 13 -142z
m-3802 68 c-3 -10 -5 -2 -5 17 0 19 2 27 5 18 2 -10 2 -26 0 -35z m-1486 -351
c-13 -21 -14 74 -3 249 l7 124 3 -178 c1 -105 -2 -185 -7 -195z m-147 246 c4
-62 11 -221 16 -353 11 -270 19 -355 31 -355 5 0 9 44 10 98 1 148 15 157 23
15 4 -68 11 -125 15 -128 8 -5 21 138 21 236 0 32 6 70 12 86 11 24 13 2 18
-152 3 -99 5 -181 5 -182 0 -1 -31 -3 -70 -4 -69 -2 -69 -2 -77 27 -22 81 -40
824 -19 824 5 0 11 -51 15 -112z m-347 -125 c-8 -253 -20 -326 -32 -195 -5 60
-2 131 11 248 10 90 20 164 23 164 2 0 1 -98 -2 -217z m292 -193 c6 -179 14
-348 17 -376 7 -58 8 -57 -77 -69 l-47 -7 -7 257 c-7 248 -6 295 14 380 8 36
9 32 10 -40 4 -196 20 -522 27 -540 8 -19 9 -18 15 5 4 14 7 151 8 306 1 313
10 488 22 439 4 -16 12 -176 18 -355z m3125 255 c7 -29 0 -48 -15 -40 -12 8
-12 65 0 65 5 0 12 -11 15 -25z m1915 -117 c-1 -106 -4 -131 -10 -98 -13 78
-9 240 7 240 2 0 3 -64 3 -142z m-1180 52 c1 -20 -1 -22 -9 -10 -5 8 -9 29 -9
45 0 26 2 27 9 10 5 -11 9 -31 9 -45z m-2769 10 c0 -5 -4 -10 -10 -10 -5 0
-10 5 -10 10 0 6 5 10 10 10 6 0 10 -4 10 -10z m231 -157 c-8 -14 -10 -7 -11
32 0 28 4 61 8 75 5 19 8 11 10 -32 2 -32 -2 -66 -7 -75z m1794 71 c3 -30 4
-103 0 -162 -3 -59 -2 -186 4 -282 7 -113 7 -178 1 -184 -7 -7 -10 5 -10 32 0
23 -4 42 -10 42 -5 0 -10 -15 -10 -32 0 -53 -17 -69 -25 -25 -9 46 1 87 20 87
18 0 18 0 -1 38 -13 28 -14 53 -6 184 5 84 7 183 5 220 -9 121 18 191 32 82z
m-2029 -11 c-6 -14 -9 -15 -16 -4 -11 19 -1 46 13 32 5 -5 7 -18 3 -28z m531
-146 c-2 -23 -3 -1 -3 48 0 50 1 68 3 42 2 -26 2 -67 0 -90z m-620 101 c-3 -8
-6 -5 -6 6 -1 11 2 17 5 13 3 -3 4 -12 1 -19z m2832 -128 c-1 -69 -3 -118 -5
-110 -7 34 -9 259 -2 247 4 -6 7 -68 7 -137z m-2289 89 c0 -10 -4 -19 -10 -19
-5 0 -10 12 -10 26 0 14 4 23 10 19 6 -3 10 -15 10 -26z m-506 -30 c-3 -5 -10
-7 -15 -3 -5 3 -7 10 -3 15 3 5 10 7 15 3 5 -3 7 -10 3 -15z m2755 -195 c6
-77 10 -169 10 -205 l-2 -64 -7 60 c-4 33 -13 73 -19 89 -16 41 -25 191 -16
272 8 67 8 68 16 29 4 -22 12 -103 18 -181z m-2792 184 c-3 -8 -6 -5 -6 6 -1
11 2 17 5 13 3 -3 4 -12 1 -19z m2730 -30 c-3 -8 -6 -5 -6 6 -1 11 2 17 5 13
3 -3 4 -12 1 -19z m1317 -95 c5 -42 3 -63 -4 -63 -5 0 -10 15 -10 33 0 17 -3
50 -6 72 -5 27 -3 37 3 30 6 -5 14 -38 17 -72z m-3614 -5 c0 -25 -3 -29 -10
-18 -13 20 -13 50 0 50 6 0 10 -15 10 -32z m-353 0 c-3 -8 -6 -5 -6 6 -1 11 2
17 5 13 3 -3 4 -12 1 -19z m4541 13 c16 -10 -55 -21 -137 -21 -35 0 -65 -6
-79 -16 -12 -8 -30 -14 -40 -11 -12 3 -7 9 20 21 65 28 208 45 236 27z m-4065
-231 c4 -78 3 -114 -3 -97 -5 16 -11 92 -14 170 -3 88 -2 125 3 97 5 -25 11
-101 14 -170z m637 169 c9 -6 -13 -8 -59 -6 -42 1 -76 7 -78 13 -4 12 114 6
137 -7z m3441 -25 c9 -11 7 -14 -14 -14 -14 0 -27 7 -31 15 -3 8 -13 15 -21
15 -9 0 -14 4 -10 9 7 12 59 -5 76 -25z m-4477 -100 c18 -69 21 -154 6 -154
-5 0 -10 24 -10 53 0 28 -7 77 -15 107 -8 30 -15 62 -15 70 1 27 17 -9 34 -76z
m-44 -64 c9 -48 8 -65 -1 -76 -10 -12 -14 -13 -20 -2 -11 21 -21 142 -13 162
7 18 8 18 15 -2 4 -11 13 -48 19 -82z m524 24 c12 -31 6 -131 -8 -143 -33 -28
-42 32 -20 137 5 26 19 29 28 6z m2114 -116 c-2 -49 -9 -93 -16 -100 -9 -9
-10 8 -6 73 3 46 8 100 11 119 10 56 16 7 11 -92z m134 -15 c-2 -13 -8 -23
-13 -23 -11 0 -12 64 -2 74 10 10 20 -23 15 -51z m-1764 -78 c28 -13 52 -29
52 -34 0 -11 -10 -8 -92 28 -27 11 -48 23 -48 26 0 12 38 3 88 -20z m1552 -85
c-8 -5 -24 -10 -35 -10 -17 0 -17 2 -5 10 8 5 24 10 35 10 17 0 17 -2 5 -10z
m-95 -19 c-11 -11 -120 -41 -145 -41 -30 1 39 30 92 39 29 5 55 9 58 10 2 0 0
-3 -5 -8z m-491 -200 c6 -10 -40 -21 -86 -21 -16 0 -37 -4 -47 -10 -18 -9 -71
7 -71 22 0 13 196 22 204 9z"/>
<path d="M7074 6739 c-12 -19 -8 -119 6 -133 19 -19 30 15 24 69 -8 63 -18 83
-30 64z"/>
<path d="M9715 6840 c-9 -14 -8 -331 1 -518 6 -135 17 -181 29 -130 9 38 37
191 42 231 8 62 -37 401 -56 420 -5 5 -12 4 -16 -3z"/>
<path d="M9873 4914 c-3 -8 -1 -20 6 -27 8 -8 11 -4 11 16 0 30 -7 35 -17 11z"/>
<path d="M9280 6776 c0 -30 4 -57 9 -60 11 -7 19 44 13 84 -7 50 -22 34 -22
-24z"/>
<path d="M9270 6575 c0 -8 5 -15 10 -15 6 0 10 7 10 15 0 8 -4 15 -10 15 -5 0
-10 -7 -10 -15z"/>
<path d="M9486 6009 c-17 -110 -17 -903 1 -886 7 7 22 423 25 664 1 163 -1
236 -9 244 -9 9 -13 3 -17 -22z"/>
<path d="M6603 1813 c-31 -12 -9 -24 39 -21 65 4 80 28 16 27 -23 0 -49 -3
-55 -6z"/>
<path d="M6370 1800 c0 -5 14 -10 31 -10 17 0 28 4 24 10 -3 6 -17 10 -31 10
-13 0 -24 -4 -24 -10z"/>
<path d="M6175 1790 c-4 -6 -3 -16 3 -22 6 -6 12 -6 17 2 4 6 3 16 -3 22 -6 6
-12 6 -17 -2z"/>
<path d="M5146 1921 c-8 -13 77 -23 129 -15 69 10 43 24 -45 24 -43 0 -81 -4
-84 -9z"/>
<path d="M5350 1921 c0 -6 5 -13 10 -16 6 -3 10 1 10 9 0 9 -4 16 -10 16 -5 0
-10 -4 -10 -9z"/>
<path d="M5907 5600 c-10 -42 -20 -333 -13 -383 11 -73 26 -55 26 31 0 99 11
234 19 227 3 -3 4 -43 2 -88 -2 -68 0 -80 11 -69 17 17 25 222 9 249 -9 15
-10 12 -11 -19 0 -54 -18 -47 -25 10 -9 66 -11 70 -18 42z"/>
<path d="M5940 5254 c0 -14 4 -23 10 -19 6 3 10 15 10 26 0 10 -4 19 -10 19
-5 0 -10 -12 -10 -26z"/>
<path d="M5828 4985 c-4 -38 -11 -229 -14 -422 -4 -194 -11 -353 -15 -353 -11
0 -14 137 -10 450 1 129 -2 249 -7 265 l-9 30 -9 -30 c-14 -50 -7 -1485 7
-1485 14 0 19 74 19 290 0 125 3 269 7 321 7 93 8 94 14 39 4 -30 8 -120 8
-200 1 -141 11 -199 24 -148 9 30 7 1107 -2 1223 l-6 90 -7 -70z"/>
<path d="M5823 3664 c-3 -8 -1 -20 6 -27 8 -8 11 -4 11 16 0 30 -7 35 -17 11z"/>
<path d="M6266 3680 c-11 -53 -17 -238 -8 -244 14 -9 22 28 29 135 4 60 2 103
-5 115 -10 17 -11 17 -16 -6z"/>
<path d="M9086 7030 c-11 -59 10 -150 35 -150 13 0 11 137 -1 161 -15 27 -27
24 -34 -11z"/>
<path d="M7335 6087 c-7 -189 3 -587 15 -587 4 0 11 24 14 52 9 63 -4 665 -14
693 -4 11 -10 -60 -15 -158z"/>
<path d="M7336 4048 c-3 -35 -7 -306 -9 -603 -2 -445 -5 -544 -17 -565 -12
-20 -15 -106 -18 -455 -5 -473 3 -744 21 -726 7 7 13 107 18 268 3 142 10 266
14 275 20 47 25 -18 25 -302 l0 -308 -38 -7 c-94 -16 -79 -44 20 -38 99 6 108
10 81 31 -21 17 -21 19 -26 607 -5 499 -8 599 -21 647 -14 47 -18 155 -25 643
-4 322 -11 588 -14 591 -3 3 -8 -23 -11 -58z m1 -1410 c-2 -35 -3 -7 -3 62 0
69 1 97 3 63 2 -35 2 -91 0 -125z m28 -305 c-3 -23 -11 -46 -17 -49 -12 -7 -5
83 10 136 7 23 7 23 10 -10 2 -19 1 -54 -3 -77z"/>
<path d="M8493 4090 c-25 -10 -32 -50 -10 -50 25 0 137 42 137 51 0 12 -98 11
-127 -1z"/>
<path d="M7180 2540 c0 -5 5 -10 10 -10 6 0 10 5 10 10 0 6 -4 10 -10 10 -5 0
-10 -4 -10 -10z"/>
<path d="M10360 2274 c-8 -3 -22 -8 -30 -11 -41 -14 45 -22 265 -22 284 -1
315 -5 312 -35 -2 -20 3 -21 118 -27 66 -4 123 -7 128 -8 4 0 5 -12 1 -26 -3
-14 -5 -26 -3 -27 2 0 110 -5 239 -9 129 -4 263 -11 298 -15 41 -4 62 -3 62 4
0 6 -8 13 -19 17 -38 12 -189 25 -296 26 -179 1 -91 18 148 28 215 9 287 8
411 -10 73 -10 92 -6 63 16 -28 20 -93 24 -542 35 -456 11 -539 18 -560 47
-12 17 -36 18 -297 20 -156 1 -290 0 -298 -3z m910 -126 c0 -5 -7 -8 -15 -8
-15 0 -20 21 -8 33 7 7 23 -11 23 -25z"/>
<path d="M11082 2259 c-16 -6 -16 -7 1 -14 32 -13 1344 -12 1357 2 9 8 7 12
-6 17 -26 8 -1330 3 -1352 -5z"/>
<path d="M10820 2210 c-12 -8 -12 -10 3 -16 9 -3 25 -3 34 0 15 6 15 8 3 16
-8 6 -17 10 -20 10 -3 0 -12 -4 -20 -10z"/>
<path d="M10466 2200 c-103 -3 -161 -9 -163 -16 -5 -16 70 -24 231 -24 141 1
236 16 244 38 4 13 -7 13 -312 2z"/>
<path d="M12180 2185 c0 -8 5 -15 10 -15 6 0 10 7 10 15 0 8 -4 15 -10 15 -5
0 -10 -7 -10 -15z"/>
<path d="M12263 2193 c-48 -9 -19 -21 65 -27 98 -7 278 -24 335 -33 43 -6 49
8 14 32 -39 25 -328 45 -414 28z"/>
<path d="M2773 2131 c-65 -6 -87 -16 -59 -27 22 -8 282 2 316 12 l25 8 -25 7
c-30 8 -170 8 -257 0z"/>
<path d="M2307 2109 c-21 -3 -45 -13 -53 -21 -14 -13 -14 -17 0 -30 20 -21 96
-31 158 -23 66 9 44 25 -34 25 -64 0 -77 14 -23 24 70 14 24 38 -48 25z"/>
<path d="M7677 2114 c-11 -12 3 -24 28 -24 30 0 55 10 55 21 0 10 -73 12 -83
3z"/>
<path d="M8900 2110 c0 -5 4 -10 9 -10 6 0 13 5 16 10 3 6 -1 10 -9 10 -9 0
-16 -4 -16 -10z"/>
<path d="M3353 2102 c-58 -7 -96 -24 -76 -34 4 -3 35 -2 68 3 33 4 88 8 122 8
52 1 61 -2 57 -14 -5 -13 6 -15 68 -15 46 0 81 5 93 13 17 13 16 15 -16 26
-41 14 -230 22 -316 13z"/>
<path d="M12313 2103 c-18 -3 -32 -20 -20 -24 13 -4 335 -32 377 -32 64 -1 98
9 83 24 -17 17 -381 44 -440 32z"/>
<path d="M2716 2070 c-28 -3 -52 -12 -54 -18 -2 -7 -18 -12 -36 -12 -18 0 -37
-5 -43 -11 -6 -6 -69 -13 -141 -16 -108 -5 -137 -3 -172 11 -39 15 -44 15 -66
1 -33 -22 -30 -29 11 -22 53 9 42 -9 -14 -23 -54 -13 -90 -34 -79 -46 4 -4 59
-2 121 5 98 9 120 9 150 -4 42 -17 237 -22 237 -5 0 6 -8 10 -17 11 -15 0 -15
2 2 9 11 5 59 9 108 9 70 1 87 4 87 16 0 8 -7 15 -15 15 -8 0 -15 5 -15 11 0
7 12 8 33 4 41 -9 49 -14 42 -26 -4 -5 15 -9 42 -9 37 0 53 -5 66 -21 10 -11
25 -18 35 -15 9 3 55 10 102 16 47 6 93 13 104 16 29 9 6 23 -54 33 -36 5 -44
9 -25 10 39 1 75 26 75 52 0 18 -8 19 -217 18 -120 -1 -240 -5 -267 -9z m101
-26 c-3 -3 -12 -4 -19 -1 -8 3 -5 6 6 6 11 1 17 -2 13 -5z m-72 -43 c-14 -14
-113 -26 -100 -13 9 10 40 17 90 21 12 0 15 -3 10 -8z m-298 -57 c-3 -3 -12
-4 -19 -1 -8 3 -5 6 6 6 11 1 17 -2 13 -5z"/>
<path d="M8952 2063 c-13 -2 -21 -10 -19 -16 3 -8 29 -11 77 -10 67 2 90 7 79
17 -7 7 -113 14 -137 9z"/>
<path d="M7772 2048 c5 -15 28 -18 29 -3 0 6 -7 12 -17 13 -10 3 -15 -1 -12
-10z"/>
<path d="M7906 2050 c5 -5 42 -12 82 -16 118 -11 92 -22 -51 -21 -91 1 -139
-3 -156 -12 -13 -7 -19 -16 -15 -19 5 -4 87 -6 182 -4 l174 3 -7 27 c-3 15
-13 33 -22 40 -20 15 -202 17 -187 2z"/>
<path d="M3257 2003 c-12 -11 -8 -23 8 -23 8 0 15 7 15 15 0 16 -12 20 -23 8z"/>
<path d="M10196 1992 c-10 -17 8 -23 109 -33 52 -5 113 -18 137 -29 44 -20
118 -27 118 -12 0 22 -44 44 -114 57 -111 21 -242 30 -250 17z"/>
<path d="M10560 1977 c0 -10 13 -17 40 -22 26 -4 41 -13 45 -26 4 -10 18 -22
33 -25 15 -4 40 -18 55 -31 16 -12 32 -23 35 -23 4 0 52 -7 107 -15 55 -8 109
-16 120 -18 12 -1 21 5 23 16 4 21 -26 35 -153 71 -50 14 -117 37 -149 51 -75
33 -156 45 -156 22z"/>
<path d="M7752 1953 c-6 -2 -10 -9 -6 -14 7 -12 64 -12 64 1 0 6 -4 10 -9 10
-5 0 -15 2 -23 4 -7 3 -19 2 -26 -1z"/>
<path d="M7875 1953 c-11 -2 -27 -6 -35 -9 -24 -8 9 -24 50 -24 33 0 70 14 60
23 -9 8 -55 14 -75 10z"/>
<path d="M7980 1950 c-12 -8 -12 -10 3 -16 21 -8 35 2 21 16 -5 5 -15 6 -24 0z"/>
<path d="M2877 1943 c-16 -15 -5 -24 25 -21 41 4 50 28 11 28 -17 0 -33 -3
-36 -7z"/>
<path d="M2670 1930 c0 -5 11 -10 25 -10 14 0 25 5 25 10 0 6 -11 10 -25 10
-14 0 -25 -4 -25 -10z"/>
<path d="M10330 1930 c0 -5 7 -10 15 -10 8 0 15 5 15 10 0 6 -7 10 -15 10 -8
0 -15 -4 -15 -10z"/>
<path d="M10600 1930 c0 -5 5 -10 11 -10 5 0 7 5 4 10 -3 6 -8 10 -11 10 -2 0
-4 -4 -4 -10z"/>
<path d="M10160 1910 c-12 -8 -12 -10 3 -16 21 -8 35 2 21 16 -5 5 -15 6 -24
0z"/>
<path d="M10265 1891 c5 -9 61 -23 153 -36 60 -10 54 11 -10 30 -57 17 -153
21 -143 6z"/>
<path d="M7745 1883 c-49 -7 -51 -21 -4 -27 24 -3 108 -7 187 -8 125 -3 142
-1 142 13 0 11 -12 18 -37 23 -41 6 -239 6 -288 -1z"/>
<path d="M11403 1863 c-40 -8 -25 -23 22 -23 25 0 45 -4 45 -10 0 -6 -35 -10
-85 -10 -74 0 -84 2 -78 16 6 15 -2 16 -78 10 -90 -8 -103 -12 -93 -27 3 -6
29 -8 62 -5 39 4 51 3 37 -3 -11 -5 -34 -10 -52 -10 -55 -2 -46 -19 14 -27 33
-4 91 -2 141 6 55 8 122 10 193 5 108 -7 149 -2 149 16 0 16 -81 47 -140 54
-105 12 -115 12 -137 8z"/>
<path d="M10464 1809 c-4 -7 1 -18 11 -25 16 -12 100 -34 130 -34 31 0 13 19
-37 38 -79 31 -96 34 -104 21z"/>
<path d="M9483 1800 c-117 -10 -295 -39 -308 -51 -5 -5 -9 -21 -10 -37 0 -23
-5 -27 -30 -30 -16 -1 -61 -9 -100 -16 -38 -8 -126 -18 -195 -21 -68 -3 -126
-8 -128 -10 -2 -2 -1 -9 3 -16 11 -17 251 -5 400 21 106 18 196 23 355 18 25
0 115 9 200 21 85 12 218 26 295 31 77 6 154 14 170 18 28 8 26 9 -25 15 -57
7 -258 -5 -390 -23 -108 -14 -509 -24 -490 -11 29 18 174 41 360 56 207 17
243 23 234 36 -6 10 -206 10 -341 -1z"/>
<path d="M11854 1799 c-8 -14 5 -26 37 -34 37 -9 49 22 13 35 -32 13 -41 13
-50 -1z"/>
<path d="M9922 1791 c-28 -17 238 -29 356 -15 28 4 52 11 52 15 0 11 -391 11
-408 0z"/>
<path d="M3639 1779 c-59 -5 -155 -26 -254 -54 -87 -25 -165 -45 -172 -45 -19
0 -125 -49 -145 -67 -10 -9 -18 -24 -18 -34 0 -27 -19 -34 -86 -34 -51 0 -72
-6 -135 -40 l-74 -40 -191 -5 c-141 -4 -195 -9 -207 -19 -15 -12 -17 -11 -17
7 0 29 -21 72 -34 72 -19 0 -56 -30 -56 -45 0 -7 9 -17 21 -20 11 -4 18 -10
14 -13 -12 -13 -219 -42 -228 -33 -6 6 -19 0 -36 -18 -14 -15 -51 -36 -81 -45
-30 -10 -72 -31 -93 -48 -20 -16 -42 -26 -47 -23 -6 3 -10 0 -10 -8 0 -7 -13
-25 -29 -39 -16 -15 -53 -59 -82 -98 -60 -80 -146 -151 -211 -173 -24 -8 -65
-22 -93 -32 -27 -9 -88 -22 -135 -29 -88 -13 -194 -59 -332 -143 l-57 -35 -89
12 c-66 9 -102 10 -140 1 -52 -11 -202 -65 -278 -101 -44 -20 -114 -76 -114
-91 0 -16 47 -9 73 11 14 11 32 20 40 20 8 0 43 13 78 30 35 16 93 34 129 39
80 13 227 14 234 2 7 -11 -88 -36 -219 -57 -164 -27 -290 -74 -253 -95 8 -5
46 2 93 16 43 13 150 36 239 50 89 13 226 36 306 50 148 26 222 30 145 7 -46
-13 -224 -46 -365 -68 -52 -8 -149 -30 -215 -49 -119 -35 -291 -63 -320 -51
-12 4 -14 10 -5 25 15 29 12 41 -9 41 -23 0 -36 -17 -36 -45 0 -16 -9 -21 -50
-27 -74 -11 -96 -18 -90 -28 3 -6 24 -10 46 -10 22 0 56 -7 76 -15 20 -9 39
-11 42 -7 6 9 62 16 211 28 l75 5 -54 -29 c-54 -28 -76 -52 -49 -52 8 0 46 11
84 24 107 36 237 64 425 91 94 14 175 28 180 31 5 3 6 10 3 16 -10 16 -311
-14 -464 -47 -20 -4 -18 -2 7 10 36 17 367 80 489 93 44 5 89 14 100 19 22 12
285 84 386 107 106 24 228 91 213 117 -10 16 -62 10 -97 -11 -36 -21 -278 -83
-305 -78 -9 2 44 22 118 46 74 24 159 53 189 64 30 11 107 38 170 60 148 51
159 62 55 55 -102 -6 -337 -63 -366 -88 -12 -10 -36 -19 -52 -19 -17 0 -104
-12 -194 -26 -90 -15 -166 -24 -169 -21 -13 12 9 27 39 27 18 0 68 7 112 15
44 9 92 13 106 10 46 -10 42 13 -3 27 -43 13 -42 13 66 19 87 5 111 10 118 23
8 14 12 15 25 5 12 -11 17 -10 24 4 7 11 22 17 45 17 19 0 63 12 97 26 46 20
90 28 172 35 60 5 129 11 153 14 48 5 55 -7 15 -27 -14 -7 -28 -19 -31 -25 -7
-23 45 -14 126 22 97 42 162 58 360 85 84 11 159 23 167 26 36 14 9 24 -67 25
l-83 1 55 18 c30 10 109 25 175 34 66 10 138 22 160 28 34 9 37 12 20 19 -42
16 -165 8 -372 -25 -13 -2 -23 0 -23 4 0 4 15 10 33 12 17 3 76 17 131 32 54
14 117 26 140 26 22 0 76 7 119 15 43 8 104 15 135 15 l57 0 -34 -18 c-75 -37
-34 -56 60 -28 44 13 203 36 362 52 64 6 69 5 74 -15 7 -26 5 -26 108 0 80 20
86 20 132 5 99 -35 225 -31 277 9 32 24 11 29 -68 15 -41 -7 -87 -9 -103 -5
-27 6 -27 7 -9 21 11 7 16 17 12 21 -14 14 -249 8 -419 -11 -95 -10 -186 -15
-210 -11 -23 4 -73 6 -111 5 l-70 -1 25 20 c33 26 18 37 -34 23 -23 -6 -82
-22 -132 -36 -97 -26 -255 -46 -363 -46 -101 0 -235 -23 -493 -85 -128 -31
-240 -54 -248 -53 -18 4 215 68 246 68 11 0 26 6 32 14 14 17 95 36 154 36 23
0 49 4 57 10 70 44 -349 2 -497 -50 -31 -11 -74 -33 -94 -50 -41 -33 -88 -54
-98 -44 -15 15 145 124 182 124 11 0 26 9 35 20 29 35 346 86 377 60 10 -9 30
-11 63 -6 26 4 119 11 207 16 88 5 221 18 295 29 74 11 170 22 213 26 43 4 83
13 91 20 11 12 20 11 54 -6 45 -22 123 -30 129 -13 5 14 -29 24 -84 24 -89 0
-30 31 122 64 117 25 237 44 525 82 237 32 310 38 525 42 218 3 270 1 405 -18
177 -24 301 -48 313 -60 18 -17 -177 -36 -217 -21 -23 9 -31 9 -40 -4 -6 -8
-40 -20 -76 -26 -98 -17 -96 -29 5 -28 92 0 129 4 437 37 120 13 212 18 287
14 95 -4 111 -3 111 10 0 24 -57 32 -260 33 -205 2 -234 6 -225 36 5 15 1 19
-19 19 -14 0 -28 -4 -31 -10 -10 -17 -43 -11 -64 11 -16 17 -23 19 -41 9 -17
-9 -28 -8 -53 4 -40 18 -161 33 -340 41 -79 4 -155 12 -179 21 -59 20 -90 18
-239 -20 -74 -18 -174 -38 -224 -44 -164 -20 -509 -72 -589 -88 -44 -9 -122
-29 -175 -45 -52 -15 -97 -26 -100 -24 -2 3 1 5 7 5 7 0 12 5 12 10 0 6 -41
10 -102 10 -62 0 -98 4 -92 9 13 14 143 38 262 50 57 6 111 15 120 20 33 18
-36 34 -121 27 -43 -3 -76 -2 -73 3 3 4 37 11 75 14 65 5 131 28 131 45 0 5
-5 13 -12 20 -6 6 -9 14 -6 17 10 10 147 45 177 45 31 0 45 -18 31 -40 -7 -11
-11 -11 -24 -1 -27 23 -136 -14 -136 -45 0 -12 7 -14 28 -10 15 3 45 8 67 12
l40 6 -45 -24 c-46 -24 -61 -54 -25 -51 11 1 63 10 114 22 52 11 169 25 260
31 284 19 311 21 305 31 -3 5 -74 9 -159 9 -139 0 -184 7 -155 25 21 13 -3 25
-51 25 -54 0 -63 -11 -21 -26 26 -11 26 -11 -18 -17 -122 -17 -152 -17 -140
-2 7 8 27 15 45 15 57 0 87 22 48 34 -23 7 297 -2 360 -10 65 -9 62 11 -5 31
-117 34 -284 48 -429 34z m-674 -354 c-49 -7 -109 -17 -133 -23 -43 -10 -62
-3 -39 16 20 16 47 20 157 20 l105 0 -90 -13z m-470 -5 c-3 -5 -27 -10 -53 -9
-38 1 -42 2 -22 9 37 12 82 12 75 0z m243 -23 c3 -13 -3 -17 -27 -17 -36 0
-48 15 -24 29 25 15 47 9 51 -12z m-163 -172 c-51 -20 -293 -75 -318 -73 -29
3 -27 5 26 21 83 26 226 55 267 55 19 0 31 -1 25 -3z m-115 -104 c-53 -30
-461 -112 -440 -88 3 3 36 13 74 21 38 9 84 25 101 36 22 13 62 22 135 28 148
13 148 13 130 3z m-444 -30 c-9 -14 -53 -28 -186 -61 -69 -17 -134 -37 -146
-45 -20 -13 -94 -31 -94 -23 0 2 24 29 54 61 57 60 74 66 131 46 26 -10 46 -8
111 9 84 22 139 28 130 13z m-980 -350 c-14 -8 -26 -19 -26 -23 0 -12 30 -10
135 12 53 11 102 20 109 20 6 0 -22 -19 -62 -41 -58 -33 -87 -42 -135 -46
l-62 -4 -16 35 -17 36 42 19 c48 21 71 16 32 -8z"/>
<path d="M11953 1768 c4 -13 -6 -17 -50 -23 -67 -8 -83 -14 -83 -27 0 -14 135
-4 154 11 10 9 43 10 114 5 64 -4 101 -3 105 4 9 14 -71 33 -167 39 -69 5 -79
4 -73 -9z"/>
<path d="M8805 1764 c-102 -20 -125 -27 -125 -35 0 -20 34 -22 109 -6 42 9
104 19 139 23 34 4 62 11 62 15 0 9 -145 11 -185 3z"/>
<path d="M9025 1760 c-8 -13 21 -24 62 -24 36 0 48 7 38 23 -8 14 -92 14 -100
1z"/>
<path d="M12270 1734 c0 -9 -8 -23 -17 -30 -32 -23 0 -39 87 -43 91 -4 108 12
35 30 -25 6 -45 15 -45 20 0 13 113 11 166 -2 53 -14 68 -5 35 22 -20 16 -40
19 -142 19 -104 0 -119 -2 -119 -16z"/>
<path d="M11063 1720 c-55 -11 -83 -27 -83 -46 0 -18 16 -17 110 10 87 25 286
22 544 -10 48 -6 58 -5 54 7 -12 35 -493 65 -625 39z"/>
<path d="M11990 1680 c-20 -13 -4 -17 93 -25 43 -3 84 -8 92 -11 20 -8 32 25
14 37 -19 12 -180 11 -199 -1z"/>
<path d="M10096 1671 c-11 -17 3 -19 224 -26 113 -4 221 -7 240 -8 42 -2 50
15 12 26 -48 14 -468 21 -476 8z"/>
<path d="M11240 1671 c0 -6 1 -11 3 -11 12 -1 241 -32 271 -37 55 -8 38 13
-27 32 -67 21 -247 33 -247 16z"/>
<path d="M11780 1667 l-25 -11 29 -4 c36 -5 93 6 101 18 8 14 -74 11 -105 -3z"/>
<path d="M11930 1670 c0 -5 7 -10 16 -10 8 0 12 5 9 10 -3 6 -10 10 -16 10 -5
0 -9 -4 -9 -10z"/>
<path d="M12500 1673 c0 -6 7 -16 16 -24 14 -12 13 -14 -7 -21 -35 -13 -8 -32
35 -24 41 8 63 37 42 55 -19 16 -86 26 -86 14z"/>
<path d="M10932 1658 c5 -15 28 -18 29 -3 0 6 -7 12 -17 13 -10 3 -15 -1 -12
-10z"/>
<path d="M10842 1634 c9 -9 21 -13 27 -10 20 13 11 26 -16 26 -25 0 -26 -1
-11 -16z"/>
<path d="M8465 1620 c-98 -21 -135 -34 -135 -49 0 -17 20 -17 123 2 168 30
210 41 215 55 6 18 -95 14 -203 -8z"/>
<path d="M9440 1620 c-41 -27 -131 -43 -255 -45 -130 -2 -198 -16 -178 -36 6
-6 34 -6 83 2 73 11 81 9 93 -25 1 -4 36 1 77 12 41 12 113 26 160 32 103 14
127 24 88 39 -14 5 -29 15 -33 20 -8 13 -16 14 -35 1z"/>
<path d="M11728 1611 c-64 -7 -118 -31 -118 -51 0 -6 7 -10 15 -10 8 0 15 -4
15 -10 0 -5 -24 -10 -54 -10 -30 0 -57 -4 -60 -9 -12 -18 1012 -38 1061 -21
18 7 31 15 28 19 -2 5 -163 10 -357 14 -222 3 -371 10 -400 17 -41 11 -49 10
-63 -4 -24 -23 -101 -22 -114 3 -6 10 -7 21 -4 25 3 3 129 6 279 6 252 0 338
8 246 24 -60 10 -401 15 -474 7z"/>
<path d="M9797 1599 c-52 -12 -77 -27 -77 -44 0 -19 15 -19 44 0 13 9 58 20
101 24 101 12 124 31 35 30 -36 -1 -82 -5 -103 -10z"/>
<path d="M9970 1601 c0 -14 39 -21 118 -21 68 0 92 10 56 24 -25 9 -174 7
-174 -3z"/>
<path d="M10978 1603 c-25 -4 -56 -29 -46 -38 2 -2 51 0 109 5 57 5 169 10
249 11 80 0 156 4 170 8 24 7 24 7 -9 14 -35 7 -426 7 -473 0z"/>
<path d="M7340 1559 c-36 -5 -180 -6 -321 -3 -194 5 -265 4 -294 -6 -53 -17
-244 -18 -513 -1 -167 10 -226 11 -235 2 -19 -19 4 -30 82 -41 41 -6 88 -19
105 -29 79 -49 331 -93 351 -62 4 7 5 14 3 16 -2 3 -53 11 -112 20 -174 24
-265 56 -139 49 37 -2 124 -9 193 -16 101 -9 131 -8 150 2 18 10 118 15 368
21 307 7 519 20 592 36 23 5 24 6 5 13 -25 11 -150 10 -235 -1z"/>
<path d="M4357 1535 c-192 -26 -217 -32 -217 -45 0 -15 86 -12 232 9 73 11
181 23 241 27 59 4 107 10 107 14 0 27 -145 25 -363 -5z"/>
<path d="M4808 1553 c-33 -8 -19 -23 21 -23 42 0 62 14 35 24 -17 6 -29 6 -56
-1z"/>
<path d="M10595 1551 c-3 -5 -1 -13 5 -16 15 -9 90 4 90 16 0 12 -87 12 -95 0z"/>
<path d="M8757 1539 c-44 -10 -101 -38 -94 -46 3 -3 48 2 99 11 51 8 114 18
141 21 26 4 47 10 47 16 0 11 -142 10 -193 -2z"/>
<path d="M11235 1540 c-4 -6 8 -10 29 -10 20 0 36 5 36 10 0 6 -13 10 -29 10
-17 0 -33 -4 -36 -10z"/>
<path d="M11404 1539 c-10 -17 13 -36 27 -22 12 12 4 33 -11 33 -5 0 -12 -5
-16 -11z"/>
<path d="M2700 1518 c-30 -19 -32 -23 -15 -25 28 -5 108 20 113 35 7 21 -60
14 -98 -10z"/>
<path d="M3819 1520 c-36 -4 -112 -17 -170 -29 -57 -11 -128 -23 -156 -27 -61
-8 -94 -27 -77 -44 9 -9 22 -8 55 1 54 14 214 14 266 -1 30 -9 68 -7 182 8
151 21 186 35 165 69 -22 36 -41 39 -68 10 -23 -25 -31 -27 -100 -27 -41 0
-81 -3 -90 -6 -9 -3 -16 -2 -16 4 0 5 42 14 93 18 52 5 91 13 90 19 -3 13 -89
15 -174 5z"/>
<path d="M8390 1513 c-98 -11 -325 -54 -334 -63 -7 -7 -7 -13 1 -21 8 -8 30
-7 81 5 39 9 87 16 107 16 l37 0 -32 -26 c-44 -38 -25 -48 46 -24 32 12 90 25
129 30 38 5 71 13 73 19 2 6 9 11 17 11 7 0 18 6 24 14 14 16 -4 26 -49 26
-16 0 -32 5 -35 10 -3 6 -12 9 -18 8 -7 0 -28 -3 -47 -5z"/>
<path d="M4601 1456 c-22 -27 27 -31 127 -10 47 9 19 24 -47 24 -47 0 -72 -4
-80 -14z"/>
<path d="M8646 1459 c-27 -4 -54 -13 -59 -18 -13 -13 -9 -14 73 -11 68 2 105
14 95 31 -7 10 -39 10 -109 -2z"/>
<path d="M4256 1451 c-4 -5 -2 -12 3 -15 5 -4 12 -2 15 3 4 5 2 12 -3 15 -5 4
-12 2 -15 -3z"/>
<path d="M4316 1451 c-9 -13 49 -24 85 -16 23 5 28 9 18 16 -19 12 -96 11
-103 0z"/>
<path d="M4466 1451 c-8 -13 48 -24 75 -16 17 6 19 9 8 16 -18 12 -76 11 -83
0z"/>
<path d="M8855 1420 c-44 -4 -136 -17 -205 -29 -69 -11 -210 -30 -315 -42
-140 -15 -211 -28 -270 -49 -71 -24 -168 -45 -245 -53 -14 -1 -24 -6 -22 -12
6 -22 146 -8 277 28 103 29 167 40 305 52 96 9 200 22 230 30 30 8 107 22 170
30 208 28 255 36 265 46 10 10 -67 10 -190 -1z"/>
<path d="M1905 1410 c-8 -12 14 -22 57 -24 23 -1 33 3 33 14 0 18 -79 27 -90
10z"/>
<path d="M1771 1401 c-15 -10 -7 -31 12 -31 7 0 30 5 51 11 29 8 36 13 25 20
-18 11 -70 11 -88 0z"/>
<path d="M4946 1385 c-89 -15 -108 -27 -84 -51 14 -14 28 -15 108 -6 100 11
134 28 110 56 -15 19 -28 19 -134 1z"/>
<path d="M1610 1375 c0 -8 9 -15 20 -15 11 0 20 7 20 15 0 8 -9 15 -20 15 -11
0 -20 -7 -20 -15z"/>
<path d="M1680 1380 c0 -5 5 -10 10 -10 6 0 10 5 10 10 0 6 -4 10 -10 10 -5 0
-10 -4 -10 -10z"/>
<path d="M5415 1374 c-132 -14 -381 -58 -422 -75 -29 -11 -30 -29 -1 -29 13 0
97 16 188 35 91 19 211 39 267 45 56 6 121 17 145 24 l43 14 -45 0 c-25 0
-103 -7 -175 -14z"/>
<path d="M7887 1375 c-26 -8 -86 -18 -134 -24 -82 -10 -115 -22 -100 -37 4 -4
60 -2 124 5 115 12 183 33 191 59 4 15 -17 14 -81 -3z"/>
<path d="M1490 1370 c-11 -6 -12 -12 -4 -20 13 -13 44 -2 44 16 0 16 -18 18
-40 4z"/>
<path d="M4320 1361 c-30 -8 -39 -38 -14 -48 9 -3 47 2 84 11 47 13 73 15 86
8 11 -5 39 -13 63 -17 24 -4 59 -14 77 -21 18 -8 47 -14 64 -14 38 0 40 27 4
61 -25 23 -31 24 -182 26 -86 1 -168 -2 -182 -6z"/>
<path d="M1220 1334 c-169 -14 -130 -34 65 -33 83 0 159 4 170 8 l20 8 -20 6
c-28 8 -182 15 -235 11z"/>
<path d="M7008 1304 c-18 -18 -4 -24 57 -24 37 0 65 4 65 10 0 6 -10 10 -22
10 -13 0 -39 3 -58 6 -19 3 -38 2 -42 -2z"/>
<path d="M4890 1290 c0 -5 14 -10 30 -10 17 0 30 5 30 10 0 6 -13 10 -30 10
-16 0 -30 -4 -30 -10z"/>
<path d="M1605 1280 c-10 -17 5 -30 35 -30 36 0 47 16 21 29 -25 14 -48 14
-56 1z"/>
<path d="M4250 1279 c-76 -14 -90 -19 -90 -29 0 -13 51 -13 126 1 78 14 94 19
94 30 0 11 -68 10 -130 -2z"/>
<path d="M991 1267 c-46 -16 -55 -41 -12 -33 17 3 45 9 62 12 32 6 35 28 3 31
-10 1 -34 -3 -53 -10z"/>
<path d="M1321 1271 c-10 -7 -10 -10 -1 -16 6 -4 16 -3 22 3 13 13 -4 23 -21
13z"/>
<path d="M1697 1274 c-8 -8 1 -24 14 -24 5 0 9 7 9 15 0 15 -12 20 -23 9z"/>
<path d="M5675 1146 c-48 -14 -44 -32 5 -27 40 4 70 17 70 31 0 13 -25 11 -75
-4z"/>
<path d="M5287 1134 c-16 -17 -4 -24 39 -24 32 0 44 4 42 13 -5 13 -69 22 -81
11z"/>
<path d="M773 1117 c-13 -5 -23 -13 -23 -18 0 -10 39 1 46 13 9 15 1 16 -23 5z"/>
<path d="M850 1122 c0 -12 134 -36 154 -29 23 9 20 24 -6 31 -34 9 -148 7
-148 -2z"/>
<path d="M3509 1106 c-79 -23 -129 -49 -129 -66 0 -19 45 -10 125 25 92 40
122 43 158 15 44 -35 64 -18 31 28 -20 29 -83 29 -185 -2z"/>
<path d="M5565 1120 c-3 -5 1 -10 9 -10 8 0 18 5 21 10 3 6 -1 10 -9 10 -8 0
-18 -4 -21 -10z"/>
<path d="M3787 1102 c-10 -10 -14 -22 -10 -25 13 -14 31 -7 47 18 16 24 15 25
-2 25 -10 0 -26 -8 -35 -18z"/>
<path d="M7233 1099 c-51 -15 -50 -29 2 -29 50 0 89 15 80 31 -7 11 -39 10
-82 -2z"/>
<path d="M4203 1081 c-146 -6 -186 -13 -148 -27 20 -8 400 2 433 12 12 3 22
10 22 15 0 9 -42 9 -307 0z"/>
<path d="M4610 1070 c0 -5 25 -10 56 -10 34 0 53 4 49 10 -3 6 -28 10 -56 10
-27 0 -49 -4 -49 -10z"/>
<path d="M6786 1062 c13 -12 222 -32 259 -26 100 18 45 31 -134 33 -74 0 -131
-3 -125 -7z"/>
<path d="M2999 1056 c-2 -3 -72 -12 -154 -21 -83 -9 -184 -22 -225 -30 -431
-77 -552 -109 -658 -172 -76 -46 -122 -82 -122 -95 0 -15 41 -3 135 39 44 19
100 42 125 50 25 8 72 26 105 39 33 13 96 30 140 38 44 8 139 28 211 45 72 17
194 38 270 46 157 17 284 42 284 56 0 9 -102 13 -111 5z"/>
<path d="M9160 1050 c-8 -5 -29 -10 -47 -10 -36 0 -89 -18 -80 -26 3 -4 34 -1
69 5 35 6 84 13 111 17 26 3 47 9 47 15 0 12 -81 11 -100 -1z"/>
<path d="M9306 1051 c-3 -4 19 -11 48 -15 30 -3 63 -9 73 -12 14 -4 13 -1 -6
15 -24 22 -104 30 -115 12z"/>
<path d="M9702 1052 c-20 -13 3 -20 95 -28 70 -6 76 -5 63 9 -18 18 -138 32
-158 19z"/>
<path d="M9540 1040 c0 -12 34 -12 70 0 20 7 16 8 -22 9 -27 1 -48 -3 -48 -9z"/>
<path d="M6471 1030 c-69 -8 -103 -21 -88 -37 7 -6 154 13 183 24 16 6 9 24
-9 22 -7 -1 -45 -5 -86 -9z"/>
<path d="M3115 1016 c-56 -18 -178 -81 -194 -100 -24 -29 28 -19 106 19 39 20
100 41 135 46 135 23 168 31 168 40 0 13 -169 10 -215 -5z"/>
<path d="M3562 1023 c-18 -7 -4 -23 19 -23 12 0 19 5 17 12 -5 14 -18 18 -36
11z"/>
<path d="M5993 1013 c-7 -3 -13 -9 -13 -14 0 -12 37 -12 44 0 7 11 -14 20 -31
14z"/>
<path d="M5665 1000 c-4 -6 5 -10 20 -10 15 0 24 4 20 10 -3 6 -12 10 -20 10
-8 0 -17 -4 -20 -10z"/>
<path d="M5818 1003 c18 -2 45 -2 60 0 15 2 0 4 -33 4 -33 0 -45 -2 -27 -4z"/>
<path d="M5510 990 c0 -5 7 -10 15 -10 8 0 15 5 15 10 0 6 -7 10 -15 10 -8 0
-15 -4 -15 -10z"/>
<path d="M6155 990 c3 -5 13 -10 21 -10 8 0 14 5 14 10 0 6 -9 10 -21 10 -11
0 -17 -4 -14 -10z"/>
<path d="M2870 980 c0 -5 5 -10 10 -10 6 0 10 5 10 10 0 6 -4 10 -10 10 -5 0
-10 -4 -10 -10z"/>
<path d="M5405 970 c-3 -5 -1 -10 4 -10 6 0 11 5 11 10 0 6 -2 10 -4 10 -3 0
-8 -4 -11 -10z"/>
<path d="M4500 963 c-84 -4 -102 -10 -76 -25 20 -11 301 -5 456 10 l75 7 -90
6 c-92 7 -250 8 -365 2z"/>
<path d="M8690 930 c-41 -5 -142 -16 -225 -25 -82 -9 -273 -19 -422 -22 -150
-3 -273 -9 -273 -14 0 -13 53 -18 243 -22 122 -3 182 -9 192 -17 13 -10 19 -9
35 5 12 11 41 20 72 22 75 6 476 52 516 60 24 4 30 8 20 14 -15 10 -51 10
-158 -1z"/>
<path d="M3843 913 c-24 -2 -43 -9 -43 -15 0 -8 40 -9 137 -5 75 4 156 7 180
7 23 0 43 5 43 10 0 10 -220 11 -317 3z"/>
<path d="M6760 900 c-45 -6 -45 -6 -18 -18 20 -8 48 -9 100 -2 40 5 76 10 81
10 4 0 7 5 7 10 0 11 -97 11 -170 0z"/>
<path d="M9264 899 c-10 -17 13 -36 27 -22 12 12 4 33 -11 33 -5 0 -12 -5 -16
-11z"/>
<path d="M6505 890 c-13 -6 14 -9 78 -9 63 -1 96 3 92 9 -7 12 -142 12 -170 0z"/>
<path d="M3434 875 c-19 -14 -19 -14 3 -15 28 0 53 10 53 21 0 14 -34 11 -56
-6z"/>
<path d="M6145 864 c-99 -13 -191 -29 -205 -36 l-25 -12 31 -4 c17 -2 123 9
235 23 262 33 279 36 279 46 0 15 -127 8 -315 -17z"/>
<path d="M8870 855 c-8 -2 -54 -9 -103 -15 -48 -7 -90 -16 -93 -21 -14 -23
274 8 301 32 8 8 -68 11 -105 4z"/>
<path d="M3225 825 c-49 -13 -124 -34 -165 -48 -65 -22 -70 -25 -40 -26 19 0
72 8 118 19 103 25 117 25 70 -1 -46 -24 -50 -44 -8 -35 17 3 134 13 260 21
240 17 396 37 413 54 15 15 -21 14 -173 -4 -139 -17 -387 -20 -410 -5 -15 9
-17 8 36 25 8 3 12 9 9 15 -8 13 -4 13 -110 -15z"/>
<path d="M5513 831 c-91 -6 -121 -15 -89 -27 22 -8 373 -1 382 9 4 4 4 10 0
14 -9 10 -178 12 -293 4z"/>
<path d="M3946 821 c-7 -10 41 -21 91 -21 30 0 34 2 23 15 -14 16 -105 21
-114 6z"/>
<path d="M8305 813 c-43 -5 -71 -21 -58 -34 5 -5 85 -2 178 6 94 8 176 15 183
15 7 0 10 5 7 10 -6 10 -223 11 -310 3z"/>
<path d="M2400 768 c-20 -12 -30 -23 -23 -25 21 -7 83 17 83 33 0 20 -19 17
-60 -8z"/>
<path d="M7670 780 c-63 -4 -126 -8 -139 -9 -20 -1 -23 -3 -12 -13 9 -10 67
-13 229 -11 240 2 369 10 356 23 -13 13 -299 19 -434 10z"/>
<path d="M6872 760 c-65 -4 -107 -11 -115 -19 -10 -11 5 -12 83 -7 96 6 162
18 145 27 -6 2 -56 2 -113 -1z"/>
<path d="M12770 740 c0 -5 7 -10 15 -10 8 0 15 5 15 10 0 6 -7 10 -15 10 -8 0
-15 -4 -15 -10z"/>
<path d="M6210 729 c-47 -4 -164 -8 -260 -9 -175 -1 -236 -9 -196 -25 20 -9
489 3 550 13 47 8 62 33 19 30 -15 0 -66 -4 -113 -9z"/>
<path d="M6385 730 c-4 -6 27 -10 85 -10 58 0 89 4 85 10 -3 6 -42 10 -85 10
-43 0 -82 -4 -85 -10z"/>
<path d="M6600 730 c0 -5 23 -10 51 -10 31 0 48 4 44 10 -3 6 -26 10 -51 10
-24 0 -44 -4 -44 -10z"/>
<path d="M8777 720 c-170 -13 -225 -21 -244 -35 -36 -27 -4 -35 107 -24 309
28 359 37 345 59 -7 11 -60 11 -208 0z"/>
<path d="M2200 713 c-215 -35 -237 -41 -211 -58 11 -6 125 7 216 26 75 16 85
19 85 30 0 9 -42 10 -90 2z"/>
<path d="M5482 698 c7 -20 48 -23 48 -4 0 11 -9 16 -26 16 -16 0 -24 -5 -22
-12z"/>
<path d="M4027 683 c-15 -15 -5 -23 27 -23 40 0 66 8 66 21 0 10 -83 12 -93 2z"/>
<path d="M7966 682 c-4 -7 3 -14 19 -18 60 -15 21 -26 -185 -55 -88 -12 -111
-22 -94 -39 16 -16 312 25 398 55 46 16 96 25 137 26 86 1 167 12 153 21 -21
14 -420 22 -428 10z"/>
<path d="M8447 684 c-9 -10 2 -24 19 -24 8 0 14 7 14 15 0 15 -21 21 -33 9z"/>
<path d="M3875 672 c-55 -13 -27 -27 48 -23 71 3 85 6 75 16 -9 9 -93 14 -123
7z"/>
<path d="M4790 671 c-19 -4 -66 -19 -105 -34 -38 -14 -99 -33 -134 -41 -34 -8
-66 -17 -69 -20 -14 -15 15 -18 95 -9 48 6 89 9 90 8 2 -1 -3 -9 -10 -18 -12
-17 -119 -51 -212 -67 -49 -8 -290 -12 -250 -3 11 2 30 6 43 9 12 2 22 9 22
14 0 12 -216 2 -240 -11 -12 -6 -8 -10 15 -18 17 -6 39 -16 50 -23 48 -28 430
-16 492 16 26 14 215 33 351 36 6 0 12 6 12 14 0 21 -16 24 -120 19 -114 -5
-105 11 12 22 82 7 102 17 69 35 -14 7 -34 7 -63 0 -63 -14 -108 -13 -108 4 0
21 73 46 134 46 45 0 60 -5 92 -31 22 -17 49 -35 62 -40 12 -5 22 -15 22 -23
0 -22 14 -23 128 -9 66 8 110 9 116 3 9 -9 -7 -14 -82 -25 -58 -7 -128 -43
-114 -57 7 -7 31 -7 79 1 201 36 193 35 193 22 0 -11 -62 -36 -113 -45 -46 -9
-64 -37 -48 -79 12 -30 26 -32 84 -16 48 13 43 32 -9 39 -77 10 5 21 211 27
164 4 198 3 188 -8 -22 -22 5 -39 62 -39 35 0 57 5 65 15 7 8 19 15 26 15 42
0 -19 68 -76 85 -14 4 -50 20 -80 36 -75 39 -82 38 -78 -13 l3 -43 -55 -3
c-61 -3 -141 17 -148 36 -2 6 9 17 25 23 26 10 27 12 8 19 -11 5 -34 9 -51 9
-24 1 -33 6 -37 23 -4 12 -5 24 -3 25 2 2 27 -5 55 -17 28 -11 59 -20 67 -20
26 0 11 33 -25 57 -28 19 -47 23 -114 23 -70 0 -83 -3 -109 -25 -34 -28 -88
-34 -108 -10 -7 8 -18 15 -25 15 -6 0 -32 13 -56 30 -40 27 -51 30 -119 29
-41 -1 -91 -4 -110 -8z"/>
<path d="M12597 674 c-12 -12 4 -24 33 -24 16 0 31 4 34 9 10 16 -52 30 -67
15z"/>
<path d="M1810 646 c-47 -13 -124 -35 -172 -49 -47 -14 -124 -31 -170 -37 -45
-6 -130 -26 -188 -44 -150 -48 -395 -102 -538 -121 -131 -17 -242 -46 -261
-69 -20 -24 0 -24 114 -1 61 12 164 30 230 39 191 27 354 63 492 107 113 36
141 42 235 44 104 2 108 3 142 33 38 33 63 42 178 67 79 17 102 30 77 46 -21
13 -46 10 -139 -15z"/>
<path d="M9090 650 c-30 -5 -147 -13 -260 -20 -207 -11 -274 -22 -267 -43 5
-13 6 -13 259 7 218 18 438 47 438 58 0 10 -93 8 -170 -2z"/>
<path d="M12470 650 c20 -13 53 -13 45 0 -3 6 -18 10 -33 10 -21 0 -24 -2 -12
-10z"/>
<path d="M11265 630 c-10 -11 -29 -20 -42 -20 -31 0 -30 -28 2 -36 15 -4 32
-1 42 7 12 10 40 13 106 10 64 -2 88 0 83 8 -4 6 -34 11 -66 11 -49 0 -61 3
-70 20 -6 11 -17 20 -24 20 -7 0 -21 -9 -31 -20z"/>
<path d="M11737 634 c-20 -20 33 -24 313 -24 282 0 371 7 289 24 -42 8 -594 8
-602 0z"/>
<path d="M3442 615 c-90 -17 -112 -24 -112 -36 0 -12 10 -12 109 6 101 18 121
23 121 36 0 12 -27 10 -118 -6z"/>
<path d="M3590 620 c0 -5 5 -10 10 -10 6 0 10 5 10 10 0 6 -4 10 -10 10 -5 0
-10 -4 -10 -10z"/>
<path d="M8213 588 c-21 -18 -61 -53 -89 -79 -28 -26 -80 -61 -115 -79 -35
-18 -75 -42 -89 -55 -26 -24 -71 -39 -155 -50 -65 -8 -85 -14 -85 -26 0 -12
94 -12 161 1 36 7 79 27 131 62 43 28 81 48 85 45 3 -4 -20 -34 -51 -67 -36
-40 -56 -70 -56 -86 0 -33 16 -30 51 8 16 18 68 74 116 123 92 97 95 89 3 -11
-90 -97 -100 -146 -32 -151 15 -1 39 -4 53 -8 24 -6 37 2 103 65 54 52 79 83
86 109 5 21 21 48 35 61 32 30 32 50 0 50 -26 0 -34 15 -12 23 9 3 9 7 -2 20
-11 14 -11 17 1 17 7 0 23 -7 36 -15 29 -21 65 -4 60 28 -2 17 -14 24 -53 34
-95 21 -140 17 -182 -19z m67 -27 c0 -6 -12 -23 -26 -38 l-25 -28 7 25 c7 29
23 50 35 50 5 0 9 -4 9 -9z m10 -145 c-28 -39 -57 -62 -66 -54 -1 2 18 27 43
56 54 63 68 62 23 -2z m-103 -133 c4 -12 -35 -29 -44 -19 -8 8 18 37 30 33 6
-2 12 -8 14 -14z"/>
<path d="M3014 599 c-56 -9 -109 -27 -102 -34 2 -2 64 2 138 10 74 8 141 15
148 15 6 0 12 5 12 10 0 12 -123 11 -196 -1z"/>
<path d="M6495 605 c-5 -2 -28 -6 -49 -10 -56 -9 -27 -25 46 -25 63 0 113 14
103 30 -6 9 -77 13 -100 5z"/>
<path d="M5707 593 c-15 -14 -6 -23 22 -23 34 0 49 15 25 24 -21 8 -39 8 -47
-1z"/>
<path d="M6206 591 c-3 -5 1 -11 9 -15 15 -6 29 7 18 18 -9 9 -21 8 -27 -3z"/>
<path d="M6265 590 c-8 -12 20 -24 35 -15 6 3 8 11 5 16 -8 12 -32 12 -40 -1z"/>
<path d="M7615 591 c-6 -11 9 -23 19 -14 9 9 7 23 -3 23 -6 0 -12 -4 -16 -9z"/>
<path d="M8475 590 c-4 -7 -3 -16 2 -21 12 -12 55 1 50 15 -5 15 -44 20 -52 6z"/>
<path d="M11775 593 c-48 -12 -55 -43 -10 -43 41 0 127 22 118 30 -11 10 -83
19 -108 13z"/>
<path d="M11510 570 c0 -5 6 -10 14 -10 8 0 18 5 21 10 3 6 -3 10 -14 10 -12
0 -21 -4 -21 -10z"/>
<path d="M11635 554 c-18 -14 -50 -15 -260 -11 -216 5 -482 -4 -527 -19 -22
-7 -24 -33 -3 -40 8 -4 68 1 133 10 155 21 263 20 329 -3 47 -16 75 -17 320
-9 278 8 333 13 333 31 0 7 -37 8 -109 4 -127 -6 -149 -3 -153 27 -4 26 -36
31 -63 10z"/>
<path d="M3955 551 c-7 -12 31 -25 45 -16 6 4 8 11 5 16 -8 12 -42 12 -50 0z"/>
<path d="M8900 550 c0 -5 11 -12 24 -16 14 -3 23 -12 22 -22 -1 -15 12 -17
119 -14 66 1 130 4 143 7 44 10 21 25 -40 25 -35 0 -85 7 -112 15 -55 17 -156
20 -156 5z"/>
<path d="M4350 541 c-14 -4 -26 -15 -28 -24 -3 -13 4 -17 30 -17 46 0 112 20
102 30 -13 13 -76 20 -104 11z"/>
<path d="M8030 534 c-99 -24 -297 -43 -576 -56 -180 -8 -273 -16 -271 -22 9
-28 142 -30 422 -7 77 6 194 16 260 21 120 9 218 31 231 51 13 21 -12 26 -66
13z"/>
<path d="M12076 535 c-8 -8 -21 -15 -30 -15 -8 0 -18 -5 -22 -12 -5 -8 6 -9
40 -5 60 9 70 15 55 33 -15 18 -24 18 -43 -1z"/>
<path d="M5460 520 c0 -5 7 -10 15 -10 8 0 15 5 15 10 0 6 -7 10 -15 10 -8 0
-15 -4 -15 -10z"/>
<path d="M8560 521 c0 -9 27 -41 34 -41 27 0 283 -45 316 -55 50 -16 287 -75
301 -75 5 0 9 6 9 14 0 20 -55 36 -357 106 -266 61 -303 67 -303 51z"/>
<path d="M3090 479 c-19 -4 -110 -20 -202 -34 -170 -25 -241 -44 -204 -53 11
-2 44 1 75 7 31 6 99 15 151 21 157 17 270 43 270 61 0 11 -42 10 -90 -2z"/>
<path d="M11075 480 c-16 -4 -108 -8 -204 -9 l-174 -1 19 -21 c18 -21 24 -21
189 -14 254 10 287 10 318 -7 30 -17 77 -13 77 7 0 7 -21 15 -52 19 -28 4 -64
14 -79 22 -30 15 -47 16 -94 4z"/>
<path d="M3701 469 c-105 -9 -180 -29 -228 -59 -34 -20 -43 -40 -20 -40 8 0
42 12 78 27 59 25 76 28 214 30 83 1 157 4 165 7 8 2 28 7 43 11 16 3 27 11
24 18 -5 15 -143 18 -276 6z"/>
<path d="M6104 465 c-12 -9 -44 -14 -91 -15 -58 0 -73 -3 -73 -15 0 -12 18
-15 103 -15 93 0 107 -3 161 -29 75 -38 113 -29 65 15 -12 10 -27 31 -35 46
-13 25 -20 28 -62 28 -27 0 -57 -7 -68 -15z"/>
<path d="M8420 454 c0 -21 -4 -25 -20 -21 -10 3 -27 -1 -36 -7 -14 -10 -14
-16 -5 -35 11 -20 6 -29 -67 -104 -93 -96 -109 -121 -91 -144 22 -26 98 -11
126 24 61 77 75 92 112 117 25 18 47 26 58 22 14 -6 10 -12 -22 -38 -35 -29
-95 -111 -95 -130 0 -24 35 -1 82 53 51 59 54 61 90 55 46 -8 49 6 13 55 -14
19 -48 67 -76 107 -27 39 -54 72 -59 72 -6 0 -10 -12 -10 -26z m50 -89 c0 -8
-12 -21 -28 -29 -15 -8 -36 -24 -47 -36 -27 -30 -75 -63 -75 -52 0 5 29 39 65
76 60 63 85 75 85 41z"/>
<path d="M12250 465 c33 -19 51 -19 44 0 -4 9 -19 15 -38 15 l-31 -1 25 -14z"/>
<path d="M6330 440 c0 -5 14 -10 30 -10 17 0 30 5 30 10 0 6 -13 10 -30 10
-16 0 -30 -4 -30 -10z"/>
<path d="M7647 425 c-26 -7 -86 -18 -135 -24 -120 -16 -134 -20 -126 -33 12
-19 268 11 347 41 15 6 27 15 27 21 0 13 -54 11 -113 -5z"/>
<path d="M11340 431 c0 -5 7 -12 16 -15 20 -8 123 -8 163 0 63 13 28 24 -74
24 -58 0 -105 -4 -105 -9z"/>
<path d="M10460 409 c-36 -11 -99 -22 -140 -24 -41 -2 -100 -6 -130 -10 -62
-8 -377 10 -449 26 -105 23 -215 19 -188 -7 18 -19 311 -53 451 -54 83 0 104
-3 133 -21 38 -24 91 -22 154 4 79 33 141 47 205 47 78 0 119 -16 119 -45 0
-19 -7 -20 -155 -20 -131 0 -155 -2 -155 -15 0 -13 28 -15 179 -18 156 -2 178
-1 172 13 -3 9 0 15 8 15 7 0 25 9 40 21 23 18 27 19 32 4 5 -12 13 -15 33 -9
14 4 67 8 116 9 98 1 275 13 315 21 23 5 23 6 6 16 -11 6 -130 14 -280 18
-228 6 -269 10 -321 28 -71 25 -64 25 -145 1z"/>
<path d="M4187 391 c-54 -9 -98 -20 -97 -26 1 -13 176 -9 248 6 33 7 52 15 52
25 0 19 -72 17 -203 -5z"/>
<path d="M2895 363 c-53 -16 -75 -29 -75 -45 0 -11 38 -6 113 14 47 13 61 31
31 42 -9 3 -16 6 -17 5 -1 0 -24 -7 -52 -16z"/>
<path d="M3020 371 c-22 -6 -23 -8 -7 -14 28 -11 117 -8 117 3 0 6 -6 10 -14
10 -7 0 -26 2 -42 4 -16 3 -40 1 -54 -3z"/>
<path d="M5850 351 c0 -30 242 -65 280 -41 21 13 -21 27 -122 40 -101 12 -158
13 -158 1z"/>
<path d="M6385 350 c-9 -14 36 -39 88 -49 25 -4 58 -16 71 -25 31 -20 46 -20
46 -1 0 27 -36 52 -83 59 -26 4 -49 11 -52 17 -8 12 -62 12 -70 -1z"/>
<path d="M7182 348 c6 -16 53 -32 153 -52 44 -9 90 -19 103 -22 31 -9 30 21
-2 41 -48 31 -262 59 -254 33z"/>
<path d="M300 340 c0 -5 5 -10 10 -10 6 0 10 5 10 10 0 6 -4 10 -10 10 -5 0
-10 -4 -10 -10z"/>
<path d="M6942 340 c-38 -16 -15 -30 46 -29 65 1 106 12 80 21 -32 13 -104 17
-126 8z"/>
<path d="M7102 341 c4 -13 18 -16 19 -4 0 4 -5 9 -11 12 -7 2 -11 -2 -8 -8z"/>
<path d="M9385 310 c-10 -17 3 -60 19 -60 8 0 16 7 20 15 3 8 17 15 31 15 14
0 42 -7 62 -15 39 -17 123 -20 123 -6 0 32 -237 80 -255 51z"/>
<path d="M2551 285 c-40 -7 -78 -18 -84 -24 -16 -16 18 -25 66 -16 23 3 60 10
82 13 26 5 40 12 40 22 0 20 -17 21 -104 5z"/>
<path d="M5512 279 c2 -6 8 -10 13 -10 5 0 11 4 13 10 2 6 -4 11 -13 11 -9 0
-15 -5 -13 -11z"/>
<path d="M6656 252 c-8 -14 20 -34 41 -30 28 5 22 33 -9 36 -14 2 -29 -1 -32
-6z"/>
<path d="M9680 235 c0 -28 42 -126 67 -155 23 -28 63 -41 63 -20 0 27 -46 126
-72 156 -31 35 -58 44 -58 19z"/>
<path d="M8695 220 c-3 -5 -3 -16 2 -22 4 -7 8 -26 8 -43 0 -25 4 -31 26 -33
30 -3 79 32 79 57 0 31 -99 66 -115 41z"/>
<path d="M8612 182 c-40 -40 -50 -61 -36 -75 19 -19 89 66 82 100 -3 14 -12 9
-46 -25z"/>
<path d="M8493 178 c-42 -45 -57 -75 -41 -84 17 -11 78 61 78 91 0 14 -1 25
-3 25 -2 0 -17 -15 -34 -32z"/>
<path d="M8850 170 c0 -5 17 -12 38 -15 20 -3 50 -12 65 -20 16 -8 34 -15 41
-15 8 0 26 -10 41 -21 16 -13 62 -29 113 -40 48 -10 99 -22 114 -28 29 -11 58
-6 58 10 0 14 -33 26 -150 58 -58 16 -136 40 -175 55 -70 26 -145 34 -145 16z"/>
<path d="M9465 60 c-12 -19 101 -68 132 -56 25 10 -3 34 -60 51 -60 18 -64 18
-72 5z"/>
</g>
</svg>
